<svg xmlns="http://www.w3.org/2000/svg" width="31.581" height="53.082" viewBox="0 0 31.581 53.082">
  <g id="A" transform="translate(-27.986 -129.907)">
    <g id="Group_3" data-name="Group 3">
      <path id="Path_1" data-name="Path 1" d="M59.564,151.721a15.322,15.322,0,0,1-2.339,8.1c-1.655,2.713-5.448,4.728-6.1,7.708-.907,4.181-.216,9.2.331,13.393a.278.278,0,0,1-.338.317.347.347,0,0,1-.166.532,20.178,20.178,0,0,1-14.1-.115.332.332,0,0,1-.576-.223c.029-3.4.46-6.916.173-10.313-.3-3.613-2.958-5.441-4.959-8.075-3.159-4.138-4.39-8.708-2.828-13.782,1-3.267,3.188-3.908,5.275-3.145a3.355,3.355,0,0,1,3.368-4.145,3.46,3.46,0,0,1,1.6.41,2.653,2.653,0,0,1,1.238-3.124A3.225,3.225,0,0,1,44,139.9c-.2-1.7,1.886-2.735,3.44-2.317a3.991,3.991,0,0,1,1.058.46,6.153,6.153,0,0,1-.079-5.75c.482-.936,1.562-2.519,2.829-2.382,1.712.194,1.921,2.734,2.274,3.936.871,2.965,3.03,4.8,3.519,7.866a26.425,26.425,0,0,0,1.612,6.046A11.22,11.22,0,0,1,59.564,151.721Zm-1.209,3.944c1.13-3.735.137-6.132-1.123-9.55-.784-2.116-.734-4.2-1.634-6.276-.8-1.857-1.964-3.361-2.526-5.311-.136-.511-.266-1.029-.374-1.548a1.812,1.812,0,0,0-.511-1.309,2.275,2.275,0,0,0-.194-.4,1.4,1.4,0,0,0-2.318.057,4.515,4.515,0,0,0-.942,1.727,2.257,2.257,0,0,0-.044.3c-.007,0-.007,0-.014.007-.828,1.519-.094,3.922.6,5.3a6.2,6.2,0,0,1,.921,1.224c.331.28.6.647.914.95a13.485,13.485,0,0,0,1.252,1.043.168.168,0,0,1-.173.288,6.152,6.152,0,0,1-1.324-.892c.331.791.6,1.6.871,2.339a.2.2,0,0,1,.065.107c.554,1.857,1.763,4.556-.245,5.981-1.015.727-2.915.619-3.519-.554a5.621,5.621,0,0,1-1.2,3.526.211.211,0,0,1-.195.072,2.819,2.819,0,0,1-3.468.389,5.416,5.416,0,0,1-.533,1.533c-.914,1.72-2.828,1.367-4.1.281-.086.2-.18.41-.252.619a2.691,2.691,0,0,1-3.015.46c-2.1-.936-2.332-3.634-4.246-4.663-.267-.144-.08-.6.2-.49a4.5,4.5,0,0,1,2.1,2.123,7.7,7.7,0,0,0,1.806,2.044,2.167,2.167,0,0,1,.7-2.389,1.863,1.863,0,0,1,2.339.352,4.856,4.856,0,0,0-.108-.806.948.948,0,0,0-.043-.6,9.326,9.326,0,0,0-2.972-4.045,1.639,1.639,0,0,0-1.13-.676c-2.073-.929-3.671.252-4.477,2.2a1.207,1.207,0,0,0-.072.295c-.446.389-.475.9-.7,2.31a11.3,11.3,0,0,0-.057,3.937c.676,4.059,3.4,7,6.067,9.932,3.792,4.181,2.569,10.493,2.267,15.725a23.677,23.677,0,0,0,13.818-.144.394.394,0,0,1,.093-.008.416.416,0,0,1-.1-.2,62.927,62.927,0,0,1-.561-9.593c.036-1.706-.223-4.211.641-5.787.626-1.144,2.3-1.972,3.159-2.8A16.2,16.2,0,0,0,58.355,155.665Zm-6.47-7.341a3.23,3.23,0,0,0,.158-1.857.178.178,0,0,1-.216.036,1.882,1.882,0,0,0-2.641.475,1.909,1.909,0,0,0,.907,2.548c.014.007.014.029.029.036A2.1,2.1,0,0,0,51.885,148.324Zm.108-2.137c-.166-.806-.475-1.619-.677-2.31a.163.163,0,0,1-.036-.058,15.871,15.871,0,0,0-1.972-4.325c-1.475-1.857-4.663-2.044-4.908.784a7.093,7.093,0,0,1,.489.569,15.141,15.141,0,0,1,3.138,7.693,5.45,5.45,0,0,0,1.339.914,2.146,2.146,0,0,1-.59-2.713A2.2,2.2,0,0,1,51.993,146.187Zm-4.664,3.181a11.8,11.8,0,0,0-1.014-4.606,15.751,15.751,0,0,0-1.5-2.829,6.934,6.934,0,0,0-1.721-1.907q-3.951-.864-3.72,2.354a.191.191,0,0,1-.151.2,7.963,7.963,0,0,1,2.612,3.735.344.344,0,0,1,.194.2,13.427,13.427,0,0,1,1.224,6.045,4.156,4.156,0,0,0,.676.237,2.888,2.888,0,0,1,.447-3.2,2.235,2.235,0,0,1,2.842-.317.125.125,0,0,1,.051.094.174.174,0,0,1-.238.144,2.014,2.014,0,0,0-2.533.647,3.18,3.18,0,0,0-.245,2.706,2.639,2.639,0,0,0,2.483-1.216.214.214,0,0,1,.13-.072A5.7,5.7,0,0,0,47.329,149.368Zm-4.743,2.317v-.05a12.841,12.841,0,0,0-.978-4.419.382.382,0,0,1-.18-.187c-.59-1.447-1.375-3.275-2.85-4.038-2.433-1.245-4.239,1.109-4.117,3.347v.007c2.721,1.317,5.074,4.923,4.088,8.06.158.087.317.181.482.267a3.009,3.009,0,0,1,.943-2.9A2.171,2.171,0,0,1,42.586,151.685Zm-.007.338a.107.107,0,0,1-.064-.014,1.884,1.884,0,0,0-2.455.252,3.209,3.209,0,0,0-.655,2.612c.857.439,1.771.684,2.548-.316A4.827,4.827,0,0,0,42.579,152.023Zm-4.39,1.5c-.014-.014-.029-.014-.043-.036a1.469,1.469,0,0,0-2.231-.41,2.414,2.414,0,0,0-.41,2.217,1.848,1.848,0,0,0,2.332-.108A5.248,5.248,0,0,0,38.189,153.52Z"/>
      <path id="Path_2" data-name="Path 2" d="M57.232,146.115c1.26,3.418,2.253,5.815,1.123,9.55a16.2,16.2,0,0,1-4.347,7.082c-.864.827-2.533,1.655-3.159,2.8-.864,1.576-.6,4.081-.641,5.787a62.927,62.927,0,0,0,.561,9.593.416.416,0,0,0,.1.2.394.394,0,0,0-.093.008,23.677,23.677,0,0,1-13.818.144c.3-5.232,1.525-11.544-2.267-15.725-2.67-2.937-5.391-5.873-6.067-9.932a11.3,11.3,0,0,1,.057-3.937c.223-1.41.252-1.921.7-2.31a1.207,1.207,0,0,1,.072-.295c.806-1.95,2.4-3.131,4.477-2.2a1.639,1.639,0,0,1,1.13.676,9.326,9.326,0,0,1,2.972,4.045.948.948,0,0,1,.043.6,4.856,4.856,0,0,1,.108.806,1.863,1.863,0,0,0-2.339-.352,2.167,2.167,0,0,0-.7,2.389A7.7,7.7,0,0,1,33.339,153a4.5,4.5,0,0,0-2.1-2.123c-.281-.115-.468.346-.2.49,1.914,1.029,2.151,3.727,4.246,4.663a2.691,2.691,0,0,0,3.015-.46c.072-.209.166-.418.252-.619,1.267,1.086,3.181,1.439,4.1-.281a5.416,5.416,0,0,0,.533-1.533,2.819,2.819,0,0,0,3.468-.389.211.211,0,0,0,.195-.072,5.621,5.621,0,0,0,1.2-3.526c.6,1.173,2.5,1.281,3.519.554,2.008-1.425.8-4.124.245-5.981a.2.2,0,0,0-.065-.107c-.274-.735-.54-1.548-.871-2.339a6.152,6.152,0,0,0,1.324.892.168.168,0,0,0,.173-.288,13.485,13.485,0,0,1-1.252-1.043c-.317-.3-.583-.67-.914-.95a6.2,6.2,0,0,0-.921-1.224c-.7-1.382-1.433-3.785-.6-5.3.007-.007.007-.007.014-.007a2.257,2.257,0,0,1,.044-.3,4.515,4.515,0,0,1,.942-1.727,1.4,1.4,0,0,1,2.318-.057,2.275,2.275,0,0,1,.194.4,1.812,1.812,0,0,1,.511,1.309c.108.519.238,1.037.374,1.548.562,1.95,1.728,3.454,2.526,5.311C56.5,141.912,56.448,144,57.232,146.115Z" fill="#ebd7be"/>
      <path id="Path_3" data-name="Path 3" d="M52.043,146.467a3.23,3.23,0,0,1-.158,1.857,2.1,2.1,0,0,1-1.763,1.238c-.015-.007-.015-.029-.029-.036a1.909,1.909,0,0,1-.907-2.548,1.882,1.882,0,0,1,2.641-.475A.178.178,0,0,0,52.043,146.467Z" fill="#ebd7be"/>
      <path id="Path_4" data-name="Path 4" d="M51.316,143.877c.2.691.511,1.5.677,2.31a2.2,2.2,0,0,0-3.217.554,2.146,2.146,0,0,0,.59,2.713,5.45,5.45,0,0,1-1.339-.914,15.141,15.141,0,0,0-3.138-7.693,7.093,7.093,0,0,0-.489-.569c.245-2.828,3.433-2.641,4.908-.784a15.871,15.871,0,0,1,1.972,4.325A.163.163,0,0,0,51.316,143.877Z" fill="#ebd7be"/>
      <path id="Path_5" data-name="Path 5" d="M46.315,144.762a11.8,11.8,0,0,1,1.014,4.606h-.057a.125.125,0,0,0-.051-.094,2.235,2.235,0,0,0-2.842.317,2.888,2.888,0,0,0-.447,3.2,4.156,4.156,0,0,1-.676-.237,13.427,13.427,0,0,0-1.224-6.045.344.344,0,0,0-.194-.2,7.963,7.963,0,0,0-2.612-3.735.191.191,0,0,0,.151-.2q-.226-3.218,3.72-2.354a6.934,6.934,0,0,1,1.721,1.907A15.751,15.751,0,0,1,46.315,144.762Z" fill="#ebd7be"/>
      <path id="Path_6" data-name="Path 6" d="M47.272,149.368h.057a5.7,5.7,0,0,1-.46,2.209.214.214,0,0,0-.13.072,2.639,2.639,0,0,1-2.483,1.216,3.18,3.18,0,0,1,.245-2.706,2.014,2.014,0,0,1,2.533-.647A.174.174,0,0,0,47.272,149.368Z" fill="#ebd7be"/>
      <path id="Path_7" data-name="Path 7" d="M42.586,151.635v.05a2.171,2.171,0,0,0-2.612.086,3.009,3.009,0,0,0-.943,2.9c-.165-.086-.324-.18-.482-.267.986-3.137-1.367-6.743-4.088-8.06v-.007c-.122-2.238,1.684-4.592,4.117-3.347,1.475.763,2.26,2.591,2.85,4.038a.382.382,0,0,0,.18.187A12.841,12.841,0,0,1,42.586,151.635Z" fill="#ebd7be"/>
      <path id="Path_8" data-name="Path 8" d="M42.515,152.009a.107.107,0,0,0,.064.014,4.827,4.827,0,0,1-.626,2.534c-.777,1-1.691.755-2.548.316a3.209,3.209,0,0,1,.655-2.612A1.884,1.884,0,0,1,42.515,152.009Z" fill="#ebd7be"/>
      <path id="Path_9" data-name="Path 9" d="M38.146,153.484c.014.022.029.022.043.036a5.248,5.248,0,0,1-.352,1.663,1.848,1.848,0,0,1-2.332.108,2.414,2.414,0,0,1,.41-2.217A1.469,1.469,0,0,1,38.146,153.484Z" fill="#ebd7be"/>
    </g>
  </g>
</svg>
