<svg xmlns="http://www.w3.org/2000/svg" width="22.873" height="59.773" viewBox="0 0 22.873 59.773">
  <g id="B" transform="translate(-101.434 -123.216)">
    <g id="Group_5" data-name="Group 5">
      <path id="Path_10" data-name="Path 10" d="M124.3,153.568c.108,4.261-1.007,7.449-2.778,11.213-2.274,4.822-1.238,11.083-.842,16.294a.272.272,0,0,1-.165.28.29.29,0,0,1-.144.389c-3.772,1.95-9.464,1.461-13.178-.439a.243.243,0,0,1-.057-.36.3.3,0,0,1,.014-.194,28.442,28.442,0,0,0,1.936-8.089,11.291,11.291,0,0,0-2.72-8.565,13.032,13.032,0,0,1-2.858-8.722,88.353,88.353,0,0,0-1.691-15.69c-.345-2.051-.864-4.318.569-5.865a.142.142,0,0,1,.05-.194,3.132,3.132,0,0,1,.324-.151c.043-.036.086-.08.137-.115a.141.141,0,0,1,.194.007c1.576-.339,2.519,1.6,3.1,3.792-.188-1.871-.375-3.742-.547-5.606-.151-1.713-.562-3.44,1.259-4.117a1.611,1.611,0,0,1,2.145.684,15.7,15.7,0,0,1-.173-2.6,2.134,2.134,0,0,1,.741-1.749c.986-.777,3.2-.842,3.772.454a.129.129,0,0,1-.015.136,6.143,6.143,0,0,1,.756,2.03,1.658,1.658,0,0,1,1.389-.813,2.339,2.339,0,0,1,1.828.978.145.145,0,0,1,.108.072c2.324,3.944,3.555,8.536,4.577,12.969A71.825,71.825,0,0,1,124.3,153.568Zm-.619,1.922c.446-9.306-2.778-19.309-6.2-27.917-.022-.014-.051-.021-.065-.043-.425-.554-.806-1.2-1.54-1.389a1.3,1.3,0,0,0-1.576.986.134.134,0,0,1-.043.058c.151,1.122.172,2.288.287,3.324.425,4.016.806,8.061.95,12.1a9.4,9.4,0,0,1,3.671.144c.338.08.187.562-.137.511a14.66,14.66,0,0,0-4.088-.1c1.137,1.849,1.792,3.943,3.527,5.419.144.129-.044.345-.2.259a6.878,6.878,0,0,1-2.641-3.059c-.122-.223-.259-.5-.4-.806-.569.461-1.094,1.072-1.879.979a2.869,2.869,0,0,1-1.741-1.209c-.835-1.08-1.058-2.706.093-3.577a2.013,2.013,0,0,0-1.058.331c-2.238,4.009,1.245,8.111,4.34,10.4,1.216.9,2.382,1.64,2.469,3.252.014.281-.447.346-.5.065a4.488,4.488,0,0,0-2.073-2.749,7.505,7.505,0,0,0-.158,3.829.22.22,0,0,1-.425.115,5.616,5.616,0,0,1,.324-4.138,17.665,17.665,0,0,1-2.015-1.526,10.955,10.955,0,0,1-2.526-3.548,8.243,8.243,0,0,1-.669-2.951c-.015.015-.029.022-.043.036a21.162,21.162,0,0,0-2.534,1.31c-.2.123-.352-.173-.18-.309.144-.108.288-.2.425-.3a.175.175,0,0,1-.072-.122c-.122-1.065-.23-2.13-.345-3.2-.483-2.259-1.181-7.931-3.656-7.837-2.57,3.073.583,10.975,1.022,14.545.6,4.944-.835,10.075,2.187,14.43,1.85,2.67,3.505,4.217,3.62,7.628a26.89,26.89,0,0,1-1.993,10.522.289.289,0,0,1-.05.072c3.677,1.375,8.708,1.994,12.234.137h.007a.375.375,0,0,1-.028-.079c-.317-4.283-1.073-9.277-.31-13.538a13.231,13.231,0,0,1,1.821-4.03A18.355,18.355,0,0,0,123.68,155.49Zm-8.838-12.768c.058-.014.123-.021.188-.035l-.008-.008c-.237-2.929-.4-5.865-.669-8.794s-.093-7.219-1.547-9.846a2.494,2.494,0,0,0-2.037-.237,1.816,1.816,0,0,0-1.382,1.907c-.021,1.181.123,2.382.194,3.563a26.9,26.9,0,0,1,.7,4.735c.288,2.281.539,4.577.647,6.88v.008c1.181-.526,2.591.295,3.39,1.338.144.187.273.382.4.576A.181.181,0,0,1,114.842,142.722Zm-.331,2.268a2.535,2.535,0,0,1,.526-.382c-.677-1.353-1.634-3.037-2.872-3.375-.014.021-.021.05-.05.064-1.418.893-.792,2.649.187,3.6a1.305,1.305,0,0,0,1.159.5A1.18,1.18,0,0,0,114.511,144.99Zm-3.943-3.9c.021-.015.043-.022.064-.036a.2.2,0,0,1-.122-.166c-.2-1.964-.346-3.936-.583-5.9-.065-.54-.648-8.975-3.275-6.945-.014.014-.028.007-.043.014-1.4,1.735-.18,6.406-.029,8.154.245,2.872.526,5.736.735,8.608a10.641,10.641,0,0,1,1.863-.972.205.205,0,0,1,.238.072,4.163,4.163,0,0,1,.727-2.324.137.137,0,0,1,.029-.144,1.99,1.99,0,0,1,.4-.353Z"/>
      <path id="Path_11" data-name="Path 11" d="M117.484,127.573c3.418,8.608,6.642,18.611,6.2,27.917a18.355,18.355,0,0,1-2.166,8.017,13.231,13.231,0,0,0-1.821,4.03c-.763,4.261-.007,9.255.31,13.538a.375.375,0,0,0,.028.079h-.007c-3.526,1.857-8.557,1.238-12.234-.137a.289.289,0,0,0,.05-.072,26.89,26.89,0,0,0,1.993-10.522c-.115-3.411-1.77-4.958-3.62-7.628-3.022-4.355-1.59-9.486-2.187-14.43-.439-3.57-3.592-11.472-1.022-14.545,2.475-.094,3.173,5.578,3.656,7.837.115,1.073.223,2.138.345,3.2a.175.175,0,0,0,.072.122c-.137.1-.281.2-.425.3-.172.136-.021.432.18.309a21.162,21.162,0,0,1,2.534-1.31c.014-.014.028-.021.043-.036a8.243,8.243,0,0,0,.669,2.951,10.955,10.955,0,0,0,2.526,3.548,17.665,17.665,0,0,0,2.015,1.526,5.616,5.616,0,0,0-.324,4.138.22.22,0,0,0,.425-.115,7.505,7.505,0,0,1,.158-3.829,4.488,4.488,0,0,1,2.073,2.749c.05.281.511.216.5-.065-.087-1.612-1.253-2.353-2.469-3.252-3.095-2.289-6.578-6.391-4.34-10.4a2.013,2.013,0,0,1,1.058-.331c-1.151.871-.928,2.5-.093,3.577a2.869,2.869,0,0,0,1.741,1.209c.785.093,1.31-.518,1.879-.979.144.31.281.583.4.806a6.878,6.878,0,0,0,2.641,3.059c.158.086.346-.13.2-.259-1.735-1.476-2.39-3.57-3.527-5.419a14.66,14.66,0,0,1,4.088.1c.324.051.475-.431.137-.511a9.4,9.4,0,0,0-3.671-.144c-.144-4.037-.525-8.082-.95-12.1-.115-1.036-.136-2.2-.287-3.324a.134.134,0,0,0,.043-.058,1.3,1.3,0,0,1,1.576-.986c.734.187,1.115.835,1.54,1.389C117.433,127.552,117.462,127.559,117.484,127.573Z" fill="#ebd7be"/>
      <path id="Path_12" data-name="Path 12" d="M115.03,142.687c-.065.014-.13.021-.188.035a.181.181,0,0,0-.122.087c-.13-.194-.259-.389-.4-.576-.8-1.043-2.209-1.864-3.39-1.338v-.008c-.108-2.3-.359-4.6-.647-6.88a26.9,26.9,0,0,0-.7-4.735c-.071-1.181-.215-2.382-.194-3.563a1.816,1.816,0,0,1,1.382-1.907,2.494,2.494,0,0,1,2.037.237c1.454,2.627,1.288,6.91,1.547,9.846s.432,5.865.669,8.794Z" fill="#ebd7be"/>
      <path id="Path_13" data-name="Path 13" d="M115.037,144.608a2.535,2.535,0,0,0-.526.382,1.18,1.18,0,0,1-1.05.4,1.305,1.305,0,0,1-1.159-.5c-.979-.95-1.605-2.706-.187-3.6.029-.014.036-.043.05-.064C113.4,141.571,114.36,143.255,115.037,144.608Z" fill="#ebd7be"/>
      <path id="Path_14" data-name="Path 14" d="M110.632,141.053c-.021.014-.043.021-.064.036v.007a1.99,1.99,0,0,0-.4.353.137.137,0,0,0-.029.144,4.163,4.163,0,0,0-.727,2.324.205.205,0,0,0-.238-.072,10.641,10.641,0,0,0-1.863.972c-.209-2.872-.49-5.736-.735-8.608-.151-1.748-1.367-6.419.029-8.154.015-.007.029,0,.043-.014,2.627-2.03,3.21,6.4,3.275,6.945.237,1.965.381,3.937.583,5.9A.2.2,0,0,0,110.632,141.053Z" fill="#ebd7be"/>
    </g>
  </g>
</svg>
