<svg xmlns="http://www.w3.org/2000/svg" width="31.147" height="53.603" viewBox="0 0 31.147 53.603">
  <g id="C" transform="translate(-177.688 -129.386)">
    <g id="Group_7" data-name="Group 7">
      <path id="Path_15" data-name="Path 15" d="M208.224,144.642c2.425,4.4-2.98,9.665-5.549,12.731-2.728,3.246-5.808,6.406-8.248,9.874-2.5,3.57-2.267,9.723-2.569,14.005a.334.334,0,0,1-.245.3.369.369,0,0,1-.237.475c-4.412,1.382-9.414,1.4-13.566-.813a.246.246,0,0,1-.079-.353.3.3,0,0,1,.007-.317c2.116-3.541,2.67-8.629,2.871-12.666.18-3.483-.906-6.78-.964-10.234A43.281,43.281,0,0,1,183.51,138.9a25.831,25.831,0,0,1,5.081-7.3c.611-.611,1.684-1.928,2.727-1.712a1.692,1.692,0,0,1,1.26.82,2.783,2.783,0,0,1,2.562-1.31.2.2,0,0,1,.172.137,1.287,1.287,0,0,1,.763.338,1.874,1.874,0,0,1,1.98-.1,1.232,1.232,0,0,1,.726.605c0-.058.036-.115.108-.1a1.672,1.672,0,0,1,1.238,2.246,5.532,5.532,0,0,1-2.411,2.921.239.239,0,0,1,.043.173,6.347,6.347,0,0,1-2.742,4.419.2.2,0,0,1,.209.194,7.83,7.83,0,0,1-.979,4.167.183.183,0,0,1,.115.152c.166,2.2-.784,5.318,1.224,6.916s4.944-1.353,6.535-2.526a.189.189,0,0,1,.252.028c.633-1.921,3.253-6.1,5.311-4.836a.171.171,0,0,1,.245.036c.079.122.151.237.223.36l.043.043A.122.122,0,0,1,208.224,144.642Zm-5.571,11.774c2.519-3,7.032-7.521,5.074-11.853-2.461-1-4.2,3.4-5.246,4.93a.122.122,0,0,1-.224-.087c-1.626,1.382-4.4,4.045-6.613,2.771-2.6-1.482-1.728-5.1-1.649-7.513a.146.146,0,0,1-.1-.209,9.135,9.135,0,0,0,.928-4.225.157.157,0,0,1,.051-.115,3.99,3.99,0,0,1-.4.159.112.112,0,0,1-.108-.187,17.629,17.629,0,0,0,1.928-2.008,6.862,6.862,0,0,0,.979-2.361.186.186,0,0,1-.144-.338,7.868,7.868,0,0,0,1.979-1.864c.612-.842,1.209-2.656-.273-3.059-.007,0-.014-.014-.022-.014a2.291,2.291,0,0,1-.007,1.784,5.272,5.272,0,0,1-2.483,2.627c.007.015.015.015.022.029.4,2.188-1.95,4.383-3.7,5.283a.155.155,0,0,1-.159-.267c1.6-1.093,3.491-2.77,3.505-4.879-.1.05-.209.093-.309.137-.166.072-.274-.2-.123-.288,1.274-.684,4.009-2.987,2.62-4.534a.205.205,0,0,1-.129-.022,1.983,1.983,0,0,0-1.757-.165,2.613,2.613,0,0,1,.159,2.267,3.658,3.658,0,0,1-1.929,2.015.186.186,0,0,1,.115.2c-.165,1.735-1.763,3.289-3.346,4.131a.278.278,0,0,1,.273.274,9.441,9.441,0,0,1-1.742,6,.184.184,0,0,1-.316-.187,11.532,11.532,0,0,0,1.482-5.815.31.31,0,0,1,.036-.144,4.93,4.93,0,0,1-.619.266.222.222,0,0,1-.172-.4A8.287,8.287,0,0,0,192.614,137a16.275,16.275,0,0,0,1.533-2.44,2.818,2.818,0,0,1-1.209.043.166.166,0,0,1,.043-.323c2.123.165,4.692-3.275,2.18-4.484-.014.007-.014.014-.021.014a3.637,3.637,0,0,0-2.426,1.3,4.37,4.37,0,0,1-.87,2.85,3.284,3.284,0,0,1-1.267,1.612,5.24,5.24,0,0,1-.727.626.274.274,0,0,1,.094.267c-.259,1.575-.785,3.727-2.311,4.462a.092.092,0,0,1,.015.05c.4,1.7.374,3.843-1.4,4.743a.179.179,0,0,1-.179-.31c1.461-.993,1.338-2.749,1.05-4.289,0-.007.007-.007,0-.015a2.806,2.806,0,0,1-.626.087.136.136,0,0,1-.036-.266c2.13-.6,2.627-2.692,2.944-4.614v-.007a.17.17,0,0,1,0-.259c-.094-.079-.123-.238.007-.295a4.425,4.425,0,0,0,2.073-1.979.172.172,0,0,1,.187-.086,3.2,3.2,0,0,0,.5-2.483,1.033,1.033,0,0,0-.993-.756,1.761,1.761,0,0,0-1.468.741.875.875,0,0,0-.093.159l-.842.842a.921.921,0,0,0-.2.295,13.294,13.294,0,0,0-2.627,3.339A28.9,28.9,0,0,0,183,141.691a44.451,44.451,0,0,0-2.735,15.344c.007,4.692,1.317,8.859.712,13.616-.439,3.448-.863,7.169-2.648,10.206,4.325,1.4,8.4,1.856,12.846.46.007-.007.015,0,.022-.007s-.007-.036-.007-.058A96.073,96.073,0,0,1,192.275,171c.461-2.555,1.476-3.965,3.109-5.923C197.8,162.188,200.235,159.3,202.653,156.416Z"/>
      <path id="Path_16" data-name="Path 16" d="M207.727,144.563c1.958,4.332-2.555,8.852-5.074,11.853-2.418,2.886-4.85,5.772-7.269,8.665-1.633,1.958-2.648,3.368-3.109,5.923a96.073,96.073,0,0,0-1.086,10.248c0,.022.007.044.007.058s-.015,0-.022.007c-4.447,1.4-8.521.936-12.846-.46,1.785-3.037,2.209-6.758,2.648-10.206.6-4.757-.705-8.924-.712-13.616A44.451,44.451,0,0,1,183,141.691a28.9,28.9,0,0,1,2.943-5.865,13.294,13.294,0,0,1,2.627-3.339.921.921,0,0,1,.2-.295l.842-.842a.875.875,0,0,1,.093-.159,1.761,1.761,0,0,1,1.468-.741,1.033,1.033,0,0,1,.993.756,3.2,3.2,0,0,1-.5,2.483.172.172,0,0,0-.187.086,4.425,4.425,0,0,1-2.073,1.979c-.13.057-.1.216-.007.295a.17.17,0,0,0,0,.259v.007c-.317,1.922-.814,4.016-2.944,4.614a.136.136,0,0,0,.036.266,2.806,2.806,0,0,0,.626-.087c.007.008,0,.008,0,.015.288,1.54.411,3.3-1.05,4.289a.179.179,0,0,0,.179.31c1.778-.9,1.807-3.045,1.4-4.743a.092.092,0,0,0-.015-.05c1.526-.735,2.052-2.887,2.311-4.462a.274.274,0,0,0-.094-.267,5.24,5.24,0,0,0,.727-.626,3.284,3.284,0,0,0,1.267-1.612,4.37,4.37,0,0,0,.87-2.85,3.637,3.637,0,0,1,2.426-1.3c.007,0,.007-.007.021-.014,2.512,1.209-.057,4.649-2.18,4.484a.166.166,0,0,0-.043.323,2.818,2.818,0,0,0,1.209-.043,16.275,16.275,0,0,1-1.533,2.44,8.287,8.287,0,0,1-2.375,1.756.222.222,0,0,0,.172.4,4.93,4.93,0,0,0,.619-.266.31.31,0,0,0-.036.144,11.532,11.532,0,0,1-1.482,5.815.184.184,0,0,0,.316.187,9.441,9.441,0,0,0,1.742-6,.278.278,0,0,0-.273-.274c1.583-.842,3.181-2.4,3.346-4.131a.186.186,0,0,0-.115-.2,3.658,3.658,0,0,0,1.929-2.015,2.613,2.613,0,0,0-.159-2.267,1.983,1.983,0,0,1,1.757.165.205.205,0,0,0,.129.022c1.389,1.547-1.346,3.85-2.62,4.534-.151.086-.043.36.123.288.1-.044.208-.087.309-.137-.014,2.109-1.9,3.786-3.505,4.879a.155.155,0,0,0,.159.267c1.749-.9,4.1-3.1,3.7-5.283-.007-.014-.015-.014-.022-.029a5.272,5.272,0,0,0,2.483-2.627,2.291,2.291,0,0,0,.007-1.784c.008,0,.015.014.022.014,1.482.4.885,2.217.273,3.059a7.868,7.868,0,0,1-1.979,1.864.186.186,0,0,0,.144.338,6.862,6.862,0,0,1-.979,2.361,17.629,17.629,0,0,1-1.928,2.008.112.112,0,0,0,.108.187,3.99,3.99,0,0,0,.4-.159.157.157,0,0,0-.051.115,9.135,9.135,0,0,1-.928,4.225.146.146,0,0,0,.1.209c-.079,2.418-.949,6.031,1.649,7.513,2.216,1.274,4.987-1.389,6.613-2.771a.122.122,0,0,0,.224.087C203.524,147.967,205.266,143.563,207.727,144.563ZM193.4,140.115c0-.2-.331-.266-.367-.05a19.779,19.779,0,0,1-.964,4.116c-.043.137.172.231.237.1A9.468,9.468,0,0,0,193.4,140.115Z" fill="#ebd7be"/>
      <path id="Path_17" data-name="Path 17" d="M193.031,140.065c.036-.216.367-.151.367.05a9.468,9.468,0,0,1-1.094,4.167c-.065.13-.28.036-.237-.1A19.779,19.779,0,0,0,193.031,140.065Z"/>
    </g>
  </g>
</svg>
