<?xml version="1.0" standalone="no"?>
<svg version="1.0" xmlns="http://www.w3.org/2000/svg"
 width="1280.000000pt" height="664.000000pt" viewBox="0 0 1280.000000 664.000000"
 preserveAspectRatio="xMidYMid meet">
<metadata>
Created by potrace 1.15, written by Peter Selinger 2001-2017
</metadata>
<g transform="translate(0.000000,664.000000) scale(0.100000,-0.100000)"
fill="#000000" stroke="none">
<path d="M12375 6621 c-214 -53 -455 -204 -694 -436 -574 -557 -1143 -1523
-1878 -3190 -73 -165 -605 -1405 -625 -1455 l-9 -25 -20 25 c-85 105 -138 203
-368 670 -208 424 -326 587 -478 662 -60 29 -77 33 -148 33 -71 0 -88 -4 -149
-35 -91 -45 -221 -168 -264 -247 -58 -109 -76 -199 -76 -368 0 -167 19 -288
79 -493 168 -585 615 -1278 984 -1525 146 -98 239 -127 437 -134 121 -5 152
-3 224 16 348 88 607 383 868 986 105 243 199 499 382 1039 379 1122 555 1575
830 2131 281 568 566 1017 1010 1590 315 406 359 499 292 626 -67 128 -213
176 -397 130z"/>
<path d="M539 6576 c-160 -45 -328 -213 -449 -451 -27 -54 -60 -128 -72 -166
-19 -59 -20 -73 -9 -108 33 -112 252 -346 1047 -1117 803 -779 1034 -1028
1034 -1113 0 -153 -526 -899 -1329 -1886 -188 -230 -468 -566 -581 -695 -99
-114 -130 -173 -130 -251 0 -177 212 -348 645 -519 233 -93 626 -222 674 -221
111 1 236 137 413 451 36 63 275 536 531 1051 460 928 553 1105 628 1206 45
60 99 113 116 113 28 0 175 -212 326 -471 202 -346 624 -1158 862 -1659 230
-484 209 -447 299 -536 62 -62 99 -90 156 -117 197 -94 445 -109 881 -53 234
30 293 49 360 116 107 107 86 259 -72 521 -74 123 -132 206 -410 586 -116 158
-278 388 -361 512 -181 271 -329 478 -620 869 -431 578 -526 716 -597 858 -58
117 -59 129 -13 199 127 196 591 675 1497 1546 669 643 625 595 625 694 -1
144 -139 337 -351 487 -186 132 -361 183 -493 144 -100 -30 -354 -244 -692
-581 -268 -268 -395 -407 -853 -935 -325 -375 -524 -590 -546 -590 -32 0
-1905 1767 -2026 1911 -48 58 -147 138 -209 169 -95 48 -191 60 -281 36z"/>
</g>
</svg>
