<svg xmlns="http://www.w3.org/2000/svg" width="23.711" height="46.379" viewBox="0 0 23.711 46.379">
  <g id="E" transform="translate(-306.208 -136.611)">
    <g id="Group_11" data-name="Group 11">
      <path id="Path_27" data-name="Path 27" d="M329.871,154.4a25.762,25.762,0,0,1-1.742,11.35c-.863,1.907-2.144,3.483-2.684,5.556a22.855,22.855,0,0,0-.245,10.09.332.332,0,0,1-.065.281.677.677,0,0,0,.029.107.383.383,0,0,1-.173.411c-1.576.892-4.433.784-6.189.8a28.756,28.756,0,0,1-7.751-1.037.236.236,0,0,1-.137-.086.255.255,0,0,1-.158-.288c.338-2.886.842-6.139.288-9.025-.381-2.008-1.432-3.821-2.13-5.721a43.405,43.405,0,0,1-2.462-12.7c-.158-3.022-1.583-16.257,4.8-14.4.007.008.007.015.014.015.115-1.324.784-2.555,2.361-2.5a.208.208,0,0,1,.187.152,3.161,3.161,0,0,1,2.821.784c.561-1.123,1.641-1.8,3.526-1.511a.144.144,0,0,1,.13.158,2.394,2.394,0,0,1,1.957,1.555,2.892,2.892,0,0,1,2.829-1.181.143.143,0,0,1,.158-.036,1.933,1.933,0,0,1,.216.116c.036.007.065.014.094.021a.17.17,0,0,1,.115.094c4.124,2.245,3.792,9.946,3.375,13.847a.393.393,0,0,1-.05.136A6.422,6.422,0,0,1,329.871,154.4Zm-2.4,11.076A23.965,23.965,0,0,0,329.2,154.4c-.281-3.051-2.375-4.534-4.808-5.937-1.756-1.015-4.541-2.871-6.628-2.274a9.611,9.611,0,0,1-2.31.734c0,.014.007.022,0,.043-.31.936.136,1.742-1.13,1.9a9.157,9.157,0,0,1-3.951-.648.125.125,0,0,1-.08-.165.115.115,0,0,1,.144-.072,12.1,12.1,0,0,0,2.951.54c.7.028,1.389.172,1.627-.756.072-.259.014-.511.072-.784l-.108.021c-1.454.2-3.772-.388-4.722.95a.4.4,0,0,0-.021.086c-.194.828.741,1.965,1.18,2.282a4.789,4.789,0,0,0,2.037.878c1.655.36,3.3.288,4.476-1.044.123-.136.331.036.245.187a3.414,3.414,0,0,1-.856.965c.007.014.028.021.036.036a4.127,4.127,0,0,0,3.6,1.713c.252-.238.5-.475.756-.7.3-.274.741.165.446.446-1.95,1.813-3.85,3.627-3.915,6.477a.152.152,0,0,1-.3,0c-.3-2.317,1.03-4.217,2.591-5.8a4.184,4.184,0,0,1-3.67-1.849c-.007-.007-.007-.022-.014-.029a6.173,6.173,0,0,1-4.988-.238,3.016,3.016,0,0,1-1.979-2.339c-.122-.6-.223-1.245.237-1.619-1.151-.331-1.957-2.684-2.123-3.526a.2.2,0,0,1,.008-.116.174.174,0,0,1,.316-.021c.468.878,1.145,3.519,2.505,3.087h.014a3.239,3.239,0,0,1,.936-.28,15.43,15.43,0,0,1,1.921-.079c-1.4-.979-1.95-3.685-2.295-5.082a5.133,5.133,0,0,1-.144-1.309.112.112,0,0,1-.051.021c-1.972-.158-3.138,1.274-3.757,3.505-1.676,5.952.439,17.589,1.1,20,.82,2.994,2.511,5.743,3.116,8.78.583,2.937.108,6.132-.23,9.076a33.644,33.644,0,0,0,6.4.827c2.252.044,4.548-.547,6.743-.208-.331-.051-.317-.526-.079-.663a24.712,24.712,0,0,1,.021-8.729C324.984,169.854,326.33,168.033,327.474,165.471ZM328.5,150.7c.13-4.1.454-10.435-3.116-12.99-3.836-.259-4.5,5.412-4.081,8.226a22.992,22.992,0,0,1,3.8,2.145c.749-.094.785-1.814.77-2.159a12.117,12.117,0,0,1-.057-1.526,5.422,5.422,0,0,1,.676-2.368.229.229,0,0,1,.418.173,9.139,9.139,0,0,0-.518,3.346,4.081,4.081,0,0,1-.123,1.843,1.56,1.56,0,0,1-.878.871l.281.172A10.634,10.634,0,0,1,328.5,150.7Zm-6.642-11.716c-.008-.015-.022-.022-.022-.036a2.316,2.316,0,0,0-.828-1.389,2.265,2.265,0,0,0-1.6-.432c-.008,0-.008-.007-.015-.007-3.922.64-2.583,5.628-2.008,8.6.259-.086.511-.187.77-.281a.224.224,0,0,1,.3.137,4.544,4.544,0,0,1,1.814.043,1.661,1.661,0,0,0,.511-.54A10.683,10.683,0,0,1,321.854,138.98Zm-5.42-.3c-.021-.021-.043-.035-.064-.057-.77-1.029-2.088-.928-3.246-.792-1.9.662-1.346,3.1-.821,4.635.432,1.252.814,3.325,2.145,3.966.166-.015.324-.022.489-.051a12.884,12.884,0,0,0,2.1-.54C316.377,143.974,315.715,140.772,316.434,138.677Z"/>
      <path id="Path_28" data-name="Path 28" d="M329.2,154.4a23.965,23.965,0,0,1-1.728,11.076c-1.144,2.562-2.49,4.383-2.958,7.212a24.712,24.712,0,0,0-.021,8.729c-.238.137-.252.612.079.663-2.2-.339-4.491.252-6.743.208a33.644,33.644,0,0,1-6.4-.827c.338-2.944.813-6.139.23-9.076-.6-3.037-2.3-5.786-3.116-8.78-.663-2.411-2.778-14.048-1.1-20l.555.158a.2.2,0,0,0-.008.116c.166.842.972,3.2,2.123,3.526-.46.374-.359,1.022-.237,1.619a3.016,3.016,0,0,0,1.979,2.339,6.173,6.173,0,0,0,4.988.238c.007.007.007.022.014.029a4.184,4.184,0,0,0,3.67,1.849c-1.561,1.584-2.893,3.484-2.591,5.8a.152.152,0,0,0,.3,0c.065-2.85,1.965-4.664,3.915-6.477.295-.281-.144-.72-.446-.446-.252.223-.5.46-.756.7a4.127,4.127,0,0,1-3.6-1.713c-.008-.015-.029-.022-.036-.036a3.414,3.414,0,0,0,.856-.965c.086-.151-.122-.323-.245-.187-1.173,1.332-2.821,1.4-4.476,1.044a4.789,4.789,0,0,1-2.037-.878c-.439-.317-1.374-1.454-1.18-2.282l.057.015a.125.125,0,0,0,.08.165,9.157,9.157,0,0,0,3.951.648c1.266-.158.82-.964,1.13-1.9.007-.021,0-.029,0-.043a9.611,9.611,0,0,0,2.31-.734c2.087-.6,4.872,1.259,6.628,2.274C326.827,149.861,328.921,151.344,329.2,154.4Z" fill="#ebd7be"/>
      <path id="Path_29" data-name="Path 29" d="M325.38,137.706c3.57,2.555,3.246,8.888,3.116,12.99a10.634,10.634,0,0,0-2.828-2.267l-.281-.172a1.56,1.56,0,0,0,.878-.871,4.081,4.081,0,0,0,.123-1.843,9.139,9.139,0,0,1,.518-3.346.229.229,0,0,0-.418-.173,5.422,5.422,0,0,0-.676,2.368,12.117,12.117,0,0,0,.057,1.526c.015.345-.021,2.065-.77,2.159a22.992,22.992,0,0,0-3.8-2.145C320.882,143.118,321.544,137.447,325.38,137.706Z" fill="#ebd7be"/>
      <path id="Path_30" data-name="Path 30" d="M321.832,138.944c0,.014.014.021.022.036a10.683,10.683,0,0,0-1.08,6.1,1.661,1.661,0,0,1-.511.54,4.544,4.544,0,0,0-1.814-.043.224.224,0,0,0-.3-.137c-.259.094-.511.2-.77.281-.575-2.972-1.914-7.96,2.008-8.6.007,0,.007.007.015.007a2.265,2.265,0,0,1,1.6.432A2.316,2.316,0,0,1,321.832,138.944Z" fill="#ebd7be"/>
      <path id="Path_31" data-name="Path 31" d="M316.37,138.62c.021.022.043.036.064.057-.719,2.1-.057,5.3.6,7.161a12.884,12.884,0,0,1-2.1.54c-.165.029-.323.036-.489.051-1.331-.641-1.713-2.714-2.145-3.966-.525-1.533-1.079-3.973.821-4.635C314.282,137.692,315.6,137.591,316.37,138.62Z" fill="#ebd7be"/>
      <path id="Path_32" data-name="Path 32" d="M314.981,147l.108-.021c-.058.273,0,.525-.072.784-.238.928-.929.784-1.627.756a12.1,12.1,0,0,1-2.951-.54.115.115,0,0,0-.144.072l-.057-.015a.4.4,0,0,1,.021-.086C311.209,146.609,313.527,147.2,314.981,147Z" fill="#ebd7be"/>
      <path id="Path_33" data-name="Path 33" d="M311.4,141.383c.345,1.4.892,4.1,2.295,5.082a15.43,15.43,0,0,0-1.921.079,3.239,3.239,0,0,0-.936.28h-.014c-1.36.432-2.037-2.209-2.505-3.087a.174.174,0,0,0-.316.021l-.555-.158c.619-2.231,1.785-3.663,3.757-3.505a.112.112,0,0,0,.051-.021A5.133,5.133,0,0,0,311.4,141.383Z" fill="#ebd7be"/>
    </g>
  </g>
</svg>
