<svg xmlns="http://www.w3.org/2000/svg" width="33.552" height="57.966" viewBox="0 0 33.552 57.966">
  <g id="F" transform="translate(-364.216 -125.023)">
    <g id="Group_13" data-name="Group 13">
      <path id="Path_34" data-name="Path 34" d="M373.169,147.632a1.354,1.354,0,0,1-.277,1.072,1.153,1.153,0,0,1-.213.212,69.237,69.237,0,0,1-4.526-6.974c-1.339-2.383-3.279-5.3-3.39-8.12.083-3.833,3.852.786,4.092,1.109.49.637.933,1.284,1.358,1.967.721,1.146,1.358,2.356,2.032,3.529.407.711.822,1.414,1.266,2.088a1.252,1.252,0,0,1-.471-.194A22.21,22.21,0,0,0,373.169,147.632Z" fill="#ebd7be"/>
      <path id="Path_35" data-name="Path 35" d="M381.778,144.482c-1.274-5.588-1.644-11.223-2.429-16.867a1.913,1.913,0,0,1,.166-.12,1.333,1.333,0,0,1,2.014,1.09c.194,4.9,1.847,9.616,1.616,14.549a1.345,1.345,0,0,1-.969,1.274.564.564,0,0,0-.121.019l-.267.055Z" fill="#ebd7be"/>
      <path id="Path_36" data-name="Path 36" d="M374.555,138.136c-.222-.674-3.474-10.6-.776-11.316,2.374.952,3.575,7.27,4.175,9.1q1.344,4.1,2.7,8.212a.292.292,0,0,0,.453.139c.028.12.046.231.083.342-1.293.286-2.568.628-3.852.979l-.175.055h-.01C376.328,143.134,375.377,140.649,374.555,138.136Z" fill="#ebd7be"/>
      <path id="Path_37" data-name="Path 37" d="M391.644,142.025a2.208,2.208,0,0,1-2.088-2.078,2.044,2.044,0,0,1,2.2-1.848h.018c.952.869,1.654,2.023,1.118,3.2a2.25,2.25,0,0,1-1.182.775C391.69,142.044,391.672,142.025,391.644,142.025Z" fill="#ebd7be"/>
      <path id="Path_38" data-name="Path 38" d="M381.815,144.63a.309.309,0,0,1-.5.3.662.662,0,0,1,.121-.028,3.255,3.255,0,0,1-.019-.351c.12-.018.24-.046.36-.074h.01C381.8,144.529,381.806,144.584,381.815,144.63Z"/>
      <path id="Path_39" data-name="Path 39" d="M381.418,144.556a3.255,3.255,0,0,0,.019.351.662.662,0,0,0-.121.028.221.221,0,0,1-.092-.148,1,1,0,0,1-.037-.175C381.261,144.593,381.344,144.575,381.418,144.556Z"/>
      <path id="Path_40" data-name="Path 40" d="M383.145,143.134c.231-4.933-1.422-9.644-1.616-14.549a1.333,1.333,0,0,0-2.014-1.09,2.059,2.059,0,0,1,.351-1.072,2.474,2.474,0,0,1,2.7-.646c1.228,1.219,1.348,4.471,1.551,5.773a70.26,70.26,0,0,1,.675,7.1.031.031,0,0,0-.01.018.254.254,0,0,0,.074.333,9.582,9.582,0,0,0,.379,5.847,13.206,13.206,0,0,0-3.141-.028c-.009-.129-.027-.259-.037-.4a.564.564,0,0,1,.121-.019A1.345,1.345,0,0,0,383.145,143.134Z" fill="#ebd7be"/>
      <path id="Path_41" data-name="Path 41" d="M379.072,126.737c0-.083.138-.111.148-.018.046.295.083.6.129.9a1.006,1.006,0,0,0-.333.4c-.009-.018-.009-.028-.018-.037C379.016,127.559,379.044,127.144,379.072,126.737Z"/>
      <path id="Path_42" data-name="Path 42" d="M381.316,144.935a16.539,16.539,0,0,0-3.944,1.173c-.009-.129-.028-.305-.037-.517,1.284-.351,2.559-.693,3.852-.979a1,1,0,0,0,.037.175A.221.221,0,0,0,381.316,144.935Z" fill="#ebd7be"/>
      <path id="Path_43" data-name="Path 43" d="M377.381,146.33a.182.182,0,0,1-.332.138l-.111-.249a.178.178,0,0,1-.074.037.132.132,0,0,1-.018-.056c-.028-.147-.037-.3-.065-.452.12-.028.249-.065.369-.1h.01C377.234,145.877,377.307,146.1,377.381,146.33Z"/>
      <path id="Path_44" data-name="Path 44" d="M376.781,145.748c.028.148.037.3.065.452a.132.132,0,0,0,.018.056.225.225,0,0,1-.2-.046c-.139-.12-.277-.24-.416-.379a1.135,1.135,0,0,0,.388-.037C376.679,145.776,376.735,145.766,376.781,145.748Z"/>
      <path id="Path_45" data-name="Path 45" d="M374.961,144.4v.093a.375.375,0,0,1-.074-.093Z"/>
      <path id="Path_46" data-name="Path 46" d="M373.169,147.632a22.21,22.21,0,0,1-.129-5.311,1.252,1.252,0,0,0,.471.194,1.389,1.389,0,0,0,.083.12c0,.166-.009.332-.019.5a1.229,1.229,0,0,0,1.3,1.265h.009a.375.375,0,0,0,.074.093v.027a1.35,1.35,0,0,0,1.284,1.312c.139.139.277.259.416.379a.225.225,0,0,0,.2.046c.009.018.018.028.028.046-.4.194-.8.4-1.2.61-.213.111-.019.425.185.314,4.064-1.995,8.692-2.587,12.886-.628.406.194.757-.407.351-.6a13.017,13.017,0,0,0-3.326-1.062.274.274,0,0,0,.019-.194,14.516,14.516,0,0,1-.591-3.39,17.537,17.537,0,0,1,.138-2.309.334.334,0,0,0,.083-.231c0-.047-.009-.093-.009-.139,1.044-1.358,3.159-2.466,4.748-1.681a7.459,7.459,0,0,1,1.109.693,2.43,2.43,0,0,0-2.153,2.383,2.365,2.365,0,0,0,1.4,2,7.177,7.177,0,0,1-3.085-1.875.176.176,0,0,0-.277.213,4.541,4.541,0,0,0,3.224,2.217c0,.009-.019.018-.019.027a2.7,2.7,0,0,0,.379,1.534.155.155,0,0,0,.056.074,4.772,4.772,0,0,0,2.059,4.554,5.1,5.1,0,0,0-1.69,3.556c-.018.48.684.453.73,0a5.99,5.99,0,0,1,2-3.852c.139-.138-.037-.351-.212-.268a3.273,3.273,0,0,0-.434.259A4.825,4.825,0,0,1,392,142.579a2.1,2.1,0,0,0,1.284-.9c1.58.416,2.457,3.206,2.919,4.554a15.17,15.17,0,0,1,.693,6.522c-.416,4.988-2.005,8.969-5.81,12.258-4.176,3.63-2.91,9.939-2.06,14.863a.54.54,0,0,0-.148.074c-4.314,3.409-9.57,2.3-14.272.508a11.317,11.317,0,0,0,2.217-7.288c-.083-3.7-2.716-6.716-3.27-10.4-.665-4.443-.517-9.062-.647-13.551l-.018-.508A1.354,1.354,0,0,0,373.169,147.632Z" fill="#ebd7be"/>
      <path id="Path_47" data-name="Path 47" d="M373.594,142.533v.1a1.389,1.389,0,0,1-.083-.12A.275.275,0,0,0,373.594,142.533Z"/>
      <path id="Path_48" data-name="Path 48" d="M390.96,143.466a5.615,5.615,0,0,1,.3-.776c-.166,0-.342,0-.508-.009-.019,0-.028,0-.037-.009C390.785,142.949,390.868,143.208,390.96,143.466Zm-1.4-3.519a2.208,2.208,0,0,0,2.088,2.078c.028,0,.046.019.065.046a2.25,2.25,0,0,0,1.182-.775c.536-1.174-.166-2.328-1.118-3.2h-.018A2.044,2.044,0,0,0,389.556,139.947Zm-16,22.816c.554,3.686,3.187,6.7,3.27,10.4a11.317,11.317,0,0,1-2.217,7.288c4.7,1.792,9.958,2.9,14.272-.508a.54.54,0,0,1,.148-.074c-.85-4.924-2.116-11.233,2.06-14.863,3.8-3.289,5.394-7.27,5.81-12.258a15.17,15.17,0,0,0-.693-6.522c-.462-1.348-1.339-4.138-2.919-4.554a2.1,2.1,0,0,1-1.284.9,4.825,4.825,0,0,0,1.266,5.931,3.273,3.273,0,0,1,.434-.259c.175-.083.351.13.212.268a5.99,5.99,0,0,0-2,3.852c-.046.453-.748.48-.73,0a5.1,5.1,0,0,1,1.69-3.556,4.772,4.772,0,0,1-2.059-4.554.155.155,0,0,1-.056-.074,2.7,2.7,0,0,1-.379-1.534c0-.009.019-.018.019-.027a4.541,4.541,0,0,1-3.224-2.217.176.176,0,0,1,.277-.213,7.177,7.177,0,0,0,3.085,1.875,2.365,2.365,0,0,1-1.4-2,2.43,2.43,0,0,1,2.153-2.383,7.459,7.459,0,0,0-1.109-.693c-1.589-.785-3.7.323-4.748,1.681,0,.046.009.092.009.139a.334.334,0,0,1-.083.231,17.537,17.537,0,0,0-.138,2.309,14.516,14.516,0,0,0,.591,3.39.274.274,0,0,1-.019.194A13.017,13.017,0,0,1,389.113,146c.406.194.055.8-.351.6-4.194-1.959-8.822-1.367-12.886.628-.2.111-.4-.2-.185-.314.4-.213.8-.416,1.2-.61-.01-.018-.019-.028-.028-.046a.178.178,0,0,0,.074-.037l.111.249a.182.182,0,0,0,.332-.138c-.074-.231-.147-.453-.221-.684l.175-.055c.009.212.028.388.037.517a16.539,16.539,0,0,1,3.944-1.173.309.309,0,0,0,.5-.3c-.009-.046-.018-.1-.027-.148l.267-.055c.01.138.028.268.037.4a13.206,13.206,0,0,1,3.141.028,9.582,9.582,0,0,1-.379-5.847.254.254,0,0,1-.074-.333.031.031,0,0,1,.01-.018,70.26,70.26,0,0,0-.675-7.1c-.2-1.3-.323-4.554-1.551-5.773a2.474,2.474,0,0,0-2.7.646,2.059,2.059,0,0,0-.351,1.072,1.913,1.913,0,0,0-.166.12c-.046-.3-.083-.6-.129-.9-.01-.093-.148-.065-.148.018-.028.407-.056.822-.074,1.238-.009-.028-.028-.055-.037-.083a2.5,2.5,0,0,1,.72-2.226,2.741,2.741,0,0,1,2.966-.333c1.395.656,1.478,2.67,1.764,4.111a57.343,57.343,0,0,1,.97,8.332c1.312-1.533,3.612-2.383,5.385-1.293,1.478.9,3.742,2.854,2.7,4.665.009.037.027.064.009.11,0,.01-.009.019-.009.038,2.438.12,2.771,3.02,3.556,5.025,1.136,2.891.776,6.152.24,9.2a15.764,15.764,0,0,1-4.535,9.034c-2.273,2.125-3.7,4.1-3.7,7.464a46.1,46.1,0,0,0,.72,7.88.331.331,0,0,1-.148.36.337.337,0,0,1-.147.268c-4.416,3.482-10.531,2.965-15.279.351a.279.279,0,0,1-.028-.444.139.139,0,0,1,.019-.11,11.435,11.435,0,0,0,1.625-8.693c-.443-1.94-1.551-3.5-2.18-5.376-1.145-3.4-1.108-7.1-1.21-10.632-.064-2.079-.129-4.166-.175-6.245.286.157.683-.138.462-.443,0-.009-.01-.009-.01-.019a1.153,1.153,0,0,0,.213-.212l.018.508C373.04,153.7,372.892,158.32,373.557,162.763Z"/>
      <path id="Path_49" data-name="Path 49" d="M372.218,149.184a1.362,1.362,0,0,0,.461-.268c0,.01.01.01.01.019.221.305-.176.6-.462.443A1.393,1.393,0,0,1,372.218,149.184Z"/>
      <path id="Path_50" data-name="Path 50" d="M371.6,130.1c-.222-2.171.96-4.915,3.482-3.492a.194.194,0,0,1,0,.314c.813.637,1.127,1.912,1.552,3.159,1.367,4.055,2.688,8.129,4.009,12.2A58.458,58.458,0,0,1,379,127.975c.009.009.009.019.018.037a1.006,1.006,0,0,1,.333-.4c.785,5.644,1.155,11.279,2.429,16.867-.12.028-.24.056-.36.074-.074.019-.157.037-.231.056-.037-.111-.055-.222-.083-.342a.292.292,0,0,1-.453-.139q-1.344-4.1-2.7-8.212c-.6-1.829-1.8-8.147-4.175-9.1-2.7.721.554,10.642.776,11.316.822,2.513,1.773,5,2.6,7.51-.12.037-.249.074-.369.1-.046.018-.1.028-.148.046a1.135,1.135,0,0,1-.388.037,13.515,13.515,0,0,1-1.284-1.339V144.4h-.083a19.8,19.8,0,0,1-1.284-1.764v-.1a.275.275,0,0,1-.083-.018c-.444-.674-.859-1.377-1.266-2.088-.674-1.173-1.311-2.383-2.032-3.529-.425-.683-.868-1.33-1.358-1.967-.24-.323-4.009-4.942-4.092-1.109.111,2.818,2.051,5.737,3.39,8.12a69.237,69.237,0,0,0,4.526,6.974,1.362,1.362,0,0,1-.461.268,1.393,1.393,0,0,0,.009.194.306.306,0,0,1-.12-.1,65.35,65.35,0,0,1-5.838-9.459c-1.053-2.116-2.531-4.462-1.9-6.873a.207.207,0,0,1,.12-.13,1.474,1.474,0,0,1,1.081-.766c1.33-.314,2.485.923,3.279,1.829,3.076,3.5,4.582,8.009,7.7,11.5C374.4,140.751,372.1,135.033,371.6,130.1Z"/>
    </g>
  </g>
</svg>
