<svg xmlns="http://www.w3.org/2000/svg" width="55.874" height="38.116" viewBox="0 0 55.874 38.116">
  <g id="G" transform="translate(-410.406 -144.873)">
    <g id="Group_15" data-name="Group 15">
      <path id="Path_51" data-name="Path 51" d="M466.246,180.447a.38.38,0,0,1-.208.5.4.4,0,0,1-.274.46c-5.261,1.735-11.191,2.253-16.509.461a.427.427,0,0,1-.713-.267,17.528,17.528,0,0,0-2.756-8.585c-3.527.554-6.621-1.663-8.716-4.347a2.025,2.025,0,0,1-.539.345c-1.339.6-4.772.23-5.29-1.5-2.037-.568-4.3-2.367-3.937-4.685a.007.007,0,0,0,.007-.007,4.168,4.168,0,0,1-.5-.281c-1.994-1.374-3.491-4.742-1.015-6.333-.684-.5-1.339-1.022-1.979-1.562a.334.334,0,0,1-.094.029,23.424,23.424,0,0,1-7.65-.425.181.181,0,0,1-.137.1c-1.828.2-4.591.209-5.383-1.893-.677-1.792,1.173-2.936,2.692-3.289.87-1.173,2.957-1.36,4.505-1.4.5-.014,1.007,0,1.5.015a.131.131,0,0,1,.108-.13c6.016-1.022,12.256-2.469,18.359-2.771,4.736-.23,6.931,2.426,9.8,5.851A129.938,129.938,0,0,1,466.246,180.447Zm-.712.172a141.061,141.061,0,0,0-16.546-26.865,66.222,66.222,0,0,0-4.714-5.621c-2.612-2.67-5.7-2.735-9.168-2.274-4.916.655-9.817,1.374-14.74,2,4.4.352,8.773,1.705,13.163,2.2A.265.265,0,0,1,433.7,150c.842-.036,1.85-.079,2.058-1.08a.143.143,0,0,1,.274,0c.18.943-.633,1.389-1.454,1.577a.252.252,0,0,1-.151.071c-.086.008-.187,0-.288,0-.151.022-.3.029-.439.036a.257.257,0,0,1-.187-.072c-3.023-.273-10.227-1.928-15.157-1.928a3.285,3.285,0,0,1-1.043,3.166c-1.181.792-2.634.324-3.793-.295,1.259,3.361,7.3,2.749,10.2,2.649a.235.235,0,0,1,.252.172c2.49,1.692,4.858,3.4,7.9,3.894.266.043.266.4.1.54a28,28,0,0,0,4.059,4.858c1.777,1.461,5.289,3.468,7.664,2.59.418-.151.583.5.188.663-2.044.806-4.988-.555-6.737-1.62a12.931,12.931,0,0,1-3.317-2.951,1.511,1.511,0,0,1-.231,1.073,4.935,4.935,0,0,1,1.972,1.1.88.88,0,0,1,.238.662,2.151,2.151,0,0,1,.065.453,1.735,1.735,0,0,1,1.489,2.807c2.462,2.418,5.052,4.347,8.694,3.915.36-.043.453.5.166.648,2.087,2.31,2.835,5.391,3.1,8.456C454.955,182.261,460.036,182.39,465.534,180.619Zm-29.608-12.011c1.468-.41,1.655-2.4-.065-2.526a.21.21,0,0,1-.064-.014.632.632,0,0,1-.036.093.16.16,0,0,1-.058.23.264.264,0,0,1-.065.036,2.067,2.067,0,0,1-.82.749,1.04,1.04,0,0,0-.094.374,1.293,1.293,0,0,0,.619,1.152A2.6,2.6,0,0,0,435.926,168.608Zm-.561-3.555a.157.157,0,0,1,.036-.087,1.618,1.618,0,0,0-.518-.475c-.922-.079-2.03-.115-2.491.871-.489,1.022.324,1.526,1.159,1.735a2.442,2.442,0,0,0,1.058-.432,1.74,1.74,0,0,1,.367-.36,2.047,2.047,0,0,0,.36-.95.1.1,0,0,1,.007-.158.007.007,0,0,0,.007-.007A.927.927,0,0,0,435.365,165.053Zm-1.253,3.584a4.977,4.977,0,0,0,.67.072,1.471,1.471,0,0,1-.5-1.037,1.6,1.6,0,0,1,.022-.266,5.8,5.8,0,0,1-2.649.209A4.586,4.586,0,0,0,434.112,168.637Zm-.575-6.621a.1.1,0,0,1,.036-.072c-.252-.317-.475-.662-.706-1a2.982,2.982,0,0,0-2.317.2c-.993.6-.2,1.705.417,2.317C432.241,163.621,433.357,163.347,433.537,162.016Zm.316,1.943c-.23-.087-.46-.166-.7-.23-1.266.705-4.016-.065-5.527-.749a4.4,4.4,0,0,0,2.469,3.491,6.424,6.424,0,0,0,2.339.654,1.4,1.4,0,0,1-.641-1.482A2.139,2.139,0,0,1,433.853,163.959Zm-1.338-3.519c-.029-.036-.058-.08-.087-.116a.228.228,0,0,1-.215.015,8.189,8.189,0,0,0-4.031-.979c-.18.007-.223-.288-.043-.324a5.548,5.548,0,0,1,3.879.626q-.281-.464-.54-.928a12.591,12.591,0,0,1-5.325-2.267c-2.051,1.655-.885,4.26.964,5.549a10.887,10.887,0,0,0,3.469,1.382,1.969,1.969,0,0,1-.792-.879,1.414,1.414,0,0,1,.108-1.381A2.7,2.7,0,0,1,432.515,160.44Zm-15.488-9.083c.885-.619.878-1.756.806-2.756-2.5.065-4.325.619-4.512,2.1a3.832,3.832,0,0,0,.1.41C414.566,151.551,415.9,152.134,417.027,151.357Zm-5.29,1.742c.95.813,2.2.734,3.39.82a3.257,3.257,0,0,1-2.274-3.145,2.467,2.467,0,0,1,.086-.971,3.46,3.46,0,0,0-1.36.726A1.649,1.649,0,0,0,411.737,153.1Z"/>
      <path id="Path_52" data-name="Path 52" d="M448.988,153.754a141.061,141.061,0,0,1,16.546,26.865c-5.5,1.771-10.579,1.642-16.215.763-.266-3.065-1.014-6.146-3.1-8.456.287-.144.194-.691-.166-.648-3.642.432-6.232-1.5-8.694-3.915a1.735,1.735,0,0,0-1.489-2.807,2.151,2.151,0,0,0-.065-.453.88.88,0,0,0-.238-.662,4.935,4.935,0,0,0-1.972-1.1,1.511,1.511,0,0,0,.231-1.073,12.931,12.931,0,0,0,3.317,2.951c1.749,1.065,4.693,2.426,6.737,1.62.395-.159.23-.814-.188-.663-2.375.878-5.887-1.129-7.664-2.59a28,28,0,0,1-4.059-4.858c.165-.137.165-.5-.1-.54-3.037-.5-5.4-2.2-7.9-3.894a.235.235,0,0,0-.252-.172c-2.9.1-8.946.712-10.2-2.649,1.159.619,2.612,1.087,3.793.295a3.285,3.285,0,0,0,1.043-3.166c4.93,0,12.134,1.655,15.157,1.928a.257.257,0,0,0,.187.072c.137-.007.288-.014.439-.036.1,0,.2.008.288,0a.252.252,0,0,0,.151-.071c.821-.188,1.634-.634,1.454-1.577a.143.143,0,0,0-.274,0c-.208,1-1.216,1.044-2.058,1.08a.265.265,0,0,0-.166.065c-4.39-.5-8.758-1.85-13.163-2.2,4.923-.627,9.824-1.346,14.74-2,3.469-.461,6.556-.4,9.168,2.274A66.222,66.222,0,0,1,448.988,153.754Z" fill="#ebd7be"/>
      <path id="Path_53" data-name="Path 53" d="M435.861,166.082c1.72.122,1.533,2.116.065,2.526a2.6,2.6,0,0,1-.583.094,1.293,1.293,0,0,1-.619-1.152,1.04,1.04,0,0,1,.094-.374,2.067,2.067,0,0,0,.82-.749.264.264,0,0,0,.065-.036.16.16,0,0,0,.058-.23.632.632,0,0,0,.036-.093A.21.21,0,0,0,435.861,166.082Z" fill="#ebd7be"/>
      <path id="Path_54" data-name="Path 54" d="M435.4,164.966a.157.157,0,0,0-.036.087.927.927,0,0,1-.015.137.007.007,0,0,1-.007.007.1.1,0,0,0-.007.158,2.047,2.047,0,0,1-.36.95,1.74,1.74,0,0,0-.367.36,2.442,2.442,0,0,1-1.058.432c-.835-.209-1.648-.713-1.159-1.735.461-.986,1.569-.95,2.491-.871A1.618,1.618,0,0,1,435.4,164.966Z" fill="#ebd7be"/>
      <path id="Path_55" data-name="Path 55" d="M434.782,168.709a4.977,4.977,0,0,1-.67-.072,4.586,4.586,0,0,1-2.454-1.022,5.8,5.8,0,0,0,2.649-.209,1.6,1.6,0,0,0-.022.266A1.471,1.471,0,0,0,434.782,168.709Z" fill="#ebd7be"/>
      <path id="Path_56" data-name="Path 56" d="M433.573,161.944a.1.1,0,0,0-.036.072c-.18,1.331-1.3,1.6-2.57,1.439-.619-.612-1.41-1.72-.417-2.317a2.982,2.982,0,0,1,2.317-.2C433.1,161.282,433.321,161.627,433.573,161.944Z" fill="#ebd7be"/>
      <path id="Path_57" data-name="Path 57" d="M433.155,163.729c.238.064.468.143.7.23a2.139,2.139,0,0,0-2.058,1.684,1.4,1.4,0,0,0,.641,1.482,6.424,6.424,0,0,1-2.339-.654,4.4,4.4,0,0,1-2.469-3.491C429.139,163.664,431.889,164.434,433.155,163.729Z" fill="#ebd7be"/>
      <path id="Path_58" data-name="Path 58" d="M432.428,160.324c.029.036.058.08.087.116a2.7,2.7,0,0,0-2.613.7,1.414,1.414,0,0,0-.108,1.381,1.969,1.969,0,0,0,.792.879,10.887,10.887,0,0,1-3.469-1.382c-1.849-1.289-3.015-3.894-.964-5.549a12.591,12.591,0,0,0,5.325,2.267q.26.464.54.928a5.548,5.548,0,0,0-3.879-.626c-.18.036-.137.331.043.324a8.189,8.189,0,0,1,4.031.979A.228.228,0,0,0,432.428,160.324Z" fill="#ebd7be"/>
      <path id="Path_59" data-name="Path 59" d="M417.833,148.6c.072,1,.079,2.137-.806,2.756-1.123.777-2.461.194-3.606-.245a3.832,3.832,0,0,1-.1-.41C413.508,149.22,415.329,148.666,417.833,148.6Z" fill="#ebd7be"/>
      <path id="Path_60" data-name="Path 60" d="M415.127,153.919c-1.2-.086-2.44-.007-3.39-.82a1.649,1.649,0,0,1-.158-2.57,3.46,3.46,0,0,1,1.36-.726,2.467,2.467,0,0,0-.086.971A3.257,3.257,0,0,0,415.127,153.919Z" fill="#ebd7be"/>
    </g>
  </g>
</svg>
