<svg xmlns="http://www.w3.org/2000/svg" width="58.847" height="40.935" viewBox="0 0 58.847 40.935">
  <g id="H" transform="translate(-10.364 -215.353)">
    <g id="Group_17" data-name="Group 17">
      <path id="Path_61" data-name="Path 61" d="M51.469,222.966c10.824,6.47,18.783,18.208,17.632,31.176a.357.357,0,0,1-.18.3.411.411,0,0,1-.281.374c-4.634,1.662-10.068,2.13-14.724.3a.125.125,0,0,1-.051-.036.336.336,0,0,1-.345-.288c-.878-4.116-1.346-8.075-4.822-10.881-.007,0-.007-.008-.007-.008-3.98.087-9.068.663-12.616-1.461-2.4-1.439-3.671-4.109-2.354-6.714a7.115,7.115,0,0,1-.885-.223.213.213,0,0,1-.223.108c-3.7-.526-1.735-6.168.943-7.183a64.236,64.236,0,0,1-13.019-2.037c-2.951-.676-7.658-1.029-9.853-3.31a.191.191,0,0,1-.057-.209,2.408,2.408,0,0,1,2.015-3.483.125.125,0,0,1,.129-.087c.662.051,1.332.116,1.994.188a1.806,1.806,0,0,1-.785-1.173,1.9,1.9,0,0,1,1.36-2.016.338.338,0,0,1,.08-.007c1.813-1.259,4.224-.907,6.434-.863a77.349,77.349,0,0,1,10.637.914A53.3,53.3,0,0,1,51.469,222.966Zm16.876,31.09c.634-12.616-6.247-23.541-16.812-30.083a50.628,50.628,0,0,0-16-6.29,70.94,70.94,0,0,0-10.378-1.4c-2.792-.18-6.923-.936-9.529.446a.225.225,0,0,1-.072.072c-.568.4-1.151.936-.878,1.7a2.564,2.564,0,0,0,1.173,1.115,142.528,142.528,0,0,1,15.085,2.879.212.212,0,0,1,.072.036c.022-.043.036-.087.058-.13a.216.216,0,0,1-.008-.309,2.4,2.4,0,0,1,.281-.209c0-.007.007-.014.014-.022a.122.122,0,0,1,.13-.057c.792-.4,1.626.05,2.555.36,2.814.942,5.484,1.5,8.233.029.173-.094.389.151.223.287a6.185,6.185,0,0,1-4.188,1.267,10.761,10.761,0,0,1-1.353-.158,2.224,2.224,0,0,1-2.267,1.763,4.018,4.018,0,0,1-2.181-.777,3.452,3.452,0,0,1-1.238-1.051c-.576,6.2,11.134,6.024,14.883,4.728.374-.129.526.446.166.583a17.03,17.03,0,0,1-3.023.8c1.288.561,2.577,1.461,2.706,2.728a1.486,1.486,0,0,1,.094.511.2.2,0,0,1,.064.23,2.63,2.63,0,0,1-.921,1.209c1.512.633,1.332,2.85.274,3.958-1.951,2.051-5.607,1.555-8.082,1.037a.155.155,0,0,1,.043-.3,31.03,31.03,0,0,0,4.181.108,6.655,6.655,0,0,0,2.354-.511,2.165,2.165,0,0,1-.936-3.505c-.619.108-1.252.166-1.835.245-2.094.274-4.858.806-7.183.446,0,.015.015.029.007.044-2.77,8.463,10.292,7.268,14.927,7.448a.306.306,0,0,1,.244.475c3.75,1.972,4.4,7.075,5.081,10.817a.7.7,0,0,1,0,.13C59.205,255.546,63.552,255.69,68.345,254.056ZM45.574,233.084a2.8,2.8,0,0,0-.28-1.021c-.022-.022-.036-.044-.058-.065a.152.152,0,0,1-.043-.166,3.655,3.655,0,0,0-1.389-1.274c-1.144.324-2.742,1.073-2.375,2.584.338,1.4,2.778.59,3.764.36A2.582,2.582,0,0,0,45.574,233.084Zm-1.007,5.182c1.137-.885,2.159-2.871.115-3.634a5.238,5.238,0,0,1-.986.331.183.183,0,0,1-.058.2A1.736,1.736,0,0,0,44.567,238.266Zm-1-3.886c-1.152.216-2.368.065-2.642-1.1-.36-1.562,1.022-2.641,2.39-2.973a13.393,13.393,0,0,0-1.281-.51,15.238,15.238,0,0,1-3.383-.065,9.43,9.43,0,0,0-4,.928.169.169,0,0,1-.166-.295,7.665,7.665,0,0,1,2.339-1,13.611,13.611,0,0,1-2.468-.914c-.137-.072-.281-.144-.418-.223a.133.133,0,0,1,.029.086c.158.007.266.23.093.317a4.834,4.834,0,0,0-2.36,2.3c-.6,1.295-.792,3.281.59,4.066.007,0,.014-.007.029-.007,1.936.511,4.289.158,6.268-.008A22.768,22.768,0,0,0,43.567,234.38Zm-7.032-10.889c-.352-.072-.712-.165-1.058-.259-1-.281-2.871-1.353-3.98-.878a5.526,5.526,0,0,0-.165.705.15.15,0,0,1,.151.1c.288.77,1.9,1.5,2.641,1.663A1.964,1.964,0,0,0,36.535,223.491Zm-5.721-.324c-.022-.007-.043,0-.065-.007-5.786-1.375-11.623-2.3-17.452-3.433a.218.218,0,0,1-.195.159,2.147,2.147,0,0,0-2.08,1.137,2.064,2.064,0,0,0,.159,1.878c2.893,2.094,8.089,2.62,11.479,3.332,3.713.777,7.5,1.13,11.191,1.951C31.951,227.09,30.375,225.24,30.814,223.167Z"/>
      <path id="Path_62" data-name="Path 62" d="M51.533,223.973c10.565,6.542,17.446,17.467,16.812,30.083-4.793,1.634-9.14,1.49-14.034.641a.7.7,0,0,0,0-.13c-.676-3.742-1.331-8.845-5.081-10.817a.306.306,0,0,0-.244-.475c-4.635-.18-17.7,1.015-14.927-7.448.008-.015-.007-.029-.007-.044,2.325.36,5.089-.172,7.183-.446.583-.079,1.216-.137,1.835-.245a2.165,2.165,0,0,0,.936,3.505,6.655,6.655,0,0,1-2.354.511A31.03,31.03,0,0,1,37.471,239a.155.155,0,0,0-.043.3c2.475.518,6.131,1.014,8.082-1.037,1.058-1.108,1.238-3.325-.274-3.958a2.63,2.63,0,0,0,.921-1.209.2.2,0,0,0-.064-.23,1.486,1.486,0,0,0-.094-.511c-.129-1.267-1.418-2.167-2.706-2.728a17.03,17.03,0,0,0,3.023-.8c.36-.137.208-.712-.166-.583-3.749,1.3-15.459,1.476-14.883-4.728a3.452,3.452,0,0,0,1.238,1.051,4.018,4.018,0,0,0,2.181.777,2.224,2.224,0,0,0,2.267-1.763,10.761,10.761,0,0,0,1.353.158,6.185,6.185,0,0,0,4.188-1.267c.166-.136-.05-.381-.223-.287-2.749,1.468-5.419.913-8.233-.029-.929-.31-1.763-.756-2.555-.36a.122.122,0,0,0-.13.057c-.007.008-.014.015-.014.022a2.4,2.4,0,0,0-.281.209.216.216,0,0,0,.008.309c-.022.043-.036.087-.058.13a.212.212,0,0,0-.072-.036,142.528,142.528,0,0,0-15.085-2.879,2.564,2.564,0,0,1-1.173-1.115c-.273-.763.31-1.3.878-1.7a.225.225,0,0,0,.072-.072c2.606-1.382,6.737-.626,9.529-.446a70.94,70.94,0,0,1,10.378,1.4A50.628,50.628,0,0,1,51.533,223.973Z" fill="#ebd7be"/>
      <path id="Path_63" data-name="Path 63" d="M45.294,232.063a2.8,2.8,0,0,1,.28,1.021,2.582,2.582,0,0,1-.381.418c-.986.23-3.426,1.036-3.764-.36-.367-1.511,1.231-2.26,2.375-2.584a3.655,3.655,0,0,1,1.389,1.274.152.152,0,0,0,.043.166C45.258,232.019,45.272,232.041,45.294,232.063Z" fill="#ebd7be"/>
      <path id="Path_64" data-name="Path 64" d="M44.682,234.632c2.044.763,1.022,2.749-.115,3.634a1.736,1.736,0,0,1-.929-3.1.183.183,0,0,0,.058-.2A5.238,5.238,0,0,0,44.682,234.632Z" fill="#ebd7be"/>
      <path id="Path_65" data-name="Path 65" d="M40.925,233.279c.274,1.166,1.49,1.317,2.642,1.1a22.768,22.768,0,0,1-4.981.6c-1.979.166-4.332.519-6.268.008-.015,0-.022.007-.029.007-1.382-.785-1.2-2.771-.59-4.066a4.834,4.834,0,0,1,2.36-2.3c.173-.087.065-.31-.093-.317a.133.133,0,0,0-.029-.086c.137.079.281.151.418.223a13.611,13.611,0,0,0,2.468.914,7.665,7.665,0,0,0-2.339,1,.169.169,0,0,0,.166.295,9.43,9.43,0,0,1,4-.928,15.238,15.238,0,0,0,3.383.065,13.393,13.393,0,0,1,1.281.51C41.947,230.638,40.565,231.717,40.925,233.279Z" fill="#ebd7be"/>
      <path id="Path_66" data-name="Path 66" d="M35.477,223.232c.346.094.706.187,1.058.259a1.964,1.964,0,0,1-2.411,1.332c-.741-.166-2.353-.893-2.641-1.663a.15.15,0,0,0-.151-.1,5.526,5.526,0,0,1,.165-.705C32.606,221.879,34.477,222.951,35.477,223.232Z" fill="#ebd7be"/>
      <path id="Path_67" data-name="Path 67" d="M30.749,223.16c.022.007.043,0,.065.007-.439,2.073,1.137,3.923,3.037,5.017-3.692-.821-7.478-1.174-11.191-1.951-3.39-.712-8.586-1.238-11.479-3.332a2.064,2.064,0,0,1-.159-1.878,2.147,2.147,0,0,1,2.08-1.137.218.218,0,0,0,.195-.159C19.126,220.864,24.963,221.785,30.749,223.16Z" fill="#ebd7be"/>
    </g>
  </g>
</svg>
