<svg xmlns="http://www.w3.org/2000/svg" width="42.552" height="44.39" viewBox="0 0 42.552 44.39">
  <g id="J" transform="translate(-165.917 -211.898)">
    <g id="Group_21" data-name="Group 21">
      <path id="Path_78" data-name="Path 78" d="M208.451,254.057a.344.344,0,0,1-.389.439.35.35,0,0,1-.23.389,20.846,20.846,0,0,1-14.8.086.269.269,0,0,1-.122-.115.263.263,0,0,1-.094-.281c.5-1.986,2.022-5.844,1.447-7.837-.511-1.771-2.894-2.605-4.2-3.75-2.454-2.144-4.117-4.98-5.822-7.708-2.5-4.008-5.254-7.52-9.313-10.054-2.533-1.583-5.815-2.216-7.866-4.462a.269.269,0,0,1,.036-.41c-1.26-1.238,1.417-2.4,2.634-2.44,4.462-.136,8.29,2.584,11.551,5.348-.648-3.368.46-7.449,4.692-6.283A2.623,2.623,0,0,1,188,214.071a3.75,3.75,0,0,1,1.871.007,2.59,2.59,0,0,1,2.814-2.18c1.994-.022,3.678,1.266,5.168,2.44a2.687,2.687,0,0,1,1.691.079.241.241,0,0,1,.151.281,25.481,25.481,0,0,1,7.1,6.728c1.368,1.994,1.217,4.549,1.382,6.888.288,4.16-.828,7.693-1.231,11.8A35.859,35.859,0,0,0,208.451,254.057Zm-.806.151c.036-.007.072-.007.1-.014A37.491,37.491,0,0,1,207,235.626c.691-3.332,1.044-7.837.137-11.234-.957-3.541-4.923-7.312-7.924-9.572-1.346-.23-2.519.676-3.764,1.151a.124.124,0,0,1,0,.051c-.108.834.849,1.569.274,2.4a2.046,2.046,0,0,1-1.613.691,4,4,0,0,1-2.547-.511,1.783,1.783,0,0,1-.216-2.065c.007-.022.021-.029.036-.043a2.556,2.556,0,0,0-.526.23c-.813,1.173.742,2.836,1.62,3.368a6.275,6.275,0,0,0,1.857.641,5.914,5.914,0,0,0,4.1-.1.147.147,0,0,1,.216.172.2.2,0,0,1,.1.123c.735,2.123,2.512,3.152,4.513,3.915.367.137.209.72-.158.583a12.668,12.668,0,0,1-1.936-.864,2.62,2.62,0,0,1,.3,2.375c-.734,1.828-2.721,1.3-4.117.5a1.534,1.534,0,0,1-.5,1.648,2.152,2.152,0,0,1-1.447.475.152.152,0,0,1-.137.087c-4.411-.3-8.384-4.923-11.212-7.888a.161.161,0,0,1,.223-.231c2.936,2.562,6.225,6.406,10.126,7.528-1.116-.583-2.548-1.849-2.059-3.109a2.221,2.221,0,0,1,2.656-1.144,41.729,41.729,0,0,0-4.3-4.1c-1.3-1.144-2.843-2.785-4.57-3.188-5.556-1.3-4.686,3.929-4.355,6.462.022.151-.151.195-.259.13a.335.335,0,0,1-.367-.051,31.66,31.66,0,0,0-5.484-3.979c-.856-.446-9.356-3.275-8.06.431,2.814,2.555,7.067,3.462,10.1,5.9,3.332,2.677,5.491,6.088,7.737,9.665a29.711,29.711,0,0,0,4.635,6.074c1.209,1.116,3.843,1.958,4.678,3.477,1.086,1.993-.655,6.909-1.353,8.952A23.138,23.138,0,0,0,207.645,254.208Zm-8.442-26.47a1.735,1.735,0,0,0,1.6-2.619,6.585,6.585,0,0,0-1.417-1.879c-.648-.64-1.368-1.231-1.944-1.785-.007-.007-.007-.014-.014-.021a7.2,7.2,0,0,1-5.211-.878c-1.216-.756-3.058-2.965-1.46-4.2a.161.161,0,0,1,.208,0,2.378,2.378,0,0,1,.979-.446,4.907,4.907,0,0,0-2.706-1.36,2.42,2.42,0,0,0-2.85,2.482c0,.022-.014.036-.022.058,2.224.748,4.218,2.735,5.9,4.275,1.785,1.626,3.843,3.354,4.836,5.606a5.717,5.717,0,0,0,1.583.691c-1.209-.475-2.511-1.95-2.274-3.253a1.858,1.858,0,0,1,2.9-1.187.072.072,0,0,1,.043.036.208.208,0,0,1-.252.324,1.432,1.432,0,0,0-2.145,1.705,4.106,4.106,0,0,0,2.1,2.2.143.143,0,0,1,.05.231C199.138,227.724,199.167,227.738,199.2,227.738Zm-.662-6a4.078,4.078,0,0,1-.188-.676,2.977,2.977,0,0,1-.374.172C198.152,221.391,198.339,221.563,198.541,221.736Zm-1.649,5.793a.2.2,0,0,1-.072-.079,12.252,12.252,0,0,0-1.381-2.123.108.108,0,0,1-.13,0c-1-.748-2.871.2-2.5,1.511.266.943,1.417,1.67,2.166,2.2a.148.148,0,0,1,.043.172c.022.008.036.015.058.022a2.141,2.141,0,0,0,1.4-.453A1.464,1.464,0,0,0,196.892,227.529Zm-2.223-8.9c1-.295.719-1.051.446-1.778a1.781,1.781,0,0,1-.144-.719c-.065.014-.122.036-.187.05-1.073.237-2.246-.014-3.282.288a.119.119,0,0,1,.072.129c-.086.569-.31,1.353.3,1.792a2.213,2.213,0,0,0,.857.252A4.391,4.391,0,0,0,194.669,218.627Zm.223-3.066a20.57,20.57,0,0,0,2.231-.971,12.381,12.381,0,0,0-2.469-1.613c-1.331-.6-3.994-1.014-4.318,1.26a5.8,5.8,0,0,1,2.238,1.547c.008.007.008.015.015.022A12.659,12.659,0,0,0,194.892,215.561Z"/>
      <path id="Path_79" data-name="Path 79" d="M207.745,254.194c-.028.007-.064.007-.1.014a23.138,23.138,0,0,1-14.221.374c.7-2.043,2.439-6.959,1.353-8.952-.835-1.519-3.469-2.361-4.678-3.477a29.711,29.711,0,0,1-4.635-6.074c-2.246-3.577-4.4-6.988-7.737-9.665-3.037-2.44-7.29-3.347-10.1-5.9-1.3-3.706,7.2-.877,8.06-.431a31.66,31.66,0,0,1,5.484,3.979.335.335,0,0,0,.367.051c.108.065.281.021.259-.13-.331-2.533-1.2-7.765,4.355-6.462,1.727.4,3.267,2.044,4.57,3.188a41.729,41.729,0,0,1,4.3,4.1,2.221,2.221,0,0,0-2.656,1.144c-.489,1.26.943,2.526,2.059,3.109-3.9-1.122-7.19-4.966-10.126-7.528a.161.161,0,0,0-.223.231c2.828,2.965,6.8,7.592,11.212,7.888a.152.152,0,0,0,.137-.087,2.152,2.152,0,0,0,1.447-.475,1.534,1.534,0,0,0,.5-1.648c1.4.8,3.383,1.324,4.117-.5a2.62,2.62,0,0,0-.3-2.375,12.668,12.668,0,0,0,1.936.864c.367.137.525-.446.158-.583-2-.763-3.778-1.792-4.513-3.915a.2.2,0,0,0-.1-.123.147.147,0,0,0-.216-.172,5.914,5.914,0,0,1-4.1.1,6.275,6.275,0,0,1-1.857-.641c-.878-.532-2.433-2.2-1.62-3.368a2.556,2.556,0,0,1,.526-.23c-.015.014-.029.021-.036.043a1.783,1.783,0,0,0,.216,2.065,4,4,0,0,0,2.547.511,2.046,2.046,0,0,0,1.613-.691c.575-.834-.382-1.569-.274-2.4a.124.124,0,0,0,0-.051c1.245-.475,2.418-1.381,3.764-1.151,3,2.26,6.967,6.031,7.924,9.572.907,3.4.554,7.9-.137,11.234A37.491,37.491,0,0,0,207.745,254.194Z" fill="#ebd7be"/>
      <path id="Path_80" data-name="Path 80" d="M200.8,225.119a1.735,1.735,0,0,1-1.6,2.619c-.036,0-.065-.014-.094-.014a.143.143,0,0,0-.05-.231,4.106,4.106,0,0,1-2.1-2.2,1.432,1.432,0,0,1,2.145-1.705.208.208,0,0,0,.252-.324l.029-.022A6.585,6.585,0,0,1,200.8,225.119Z" fill="#ebd7be"/>
      <path id="Path_81" data-name="Path 81" d="M199.383,223.24l-.029.022a.072.072,0,0,0-.043-.036,1.858,1.858,0,0,0-2.9,1.187c-.237,1.3,1.065,2.778,2.274,3.253a5.717,5.717,0,0,1-1.583-.691c-.993-2.252-3.051-3.98-4.836-5.606-1.684-1.54-3.678-3.527-5.9-4.275.008-.022.022-.036.022-.058a2.42,2.42,0,0,1,2.85-2.482,4.907,4.907,0,0,1,2.706,1.36,2.378,2.378,0,0,0-.979.446.161.161,0,0,0-.208,0c-1.6,1.231.244,3.44,1.46,4.2a7.2,7.2,0,0,0,5.211.878c.007.007.007.014.014.021C198.015,222.009,198.735,222.6,199.383,223.24Z" fill="#ebd7be"/>
      <path id="Path_82" data-name="Path 82" d="M198.353,221.06a4.078,4.078,0,0,0,.188.676c-.2-.173-.389-.345-.562-.5A2.977,2.977,0,0,0,198.353,221.06Z" fill="#ebd7be"/>
      <path id="Path_83" data-name="Path 83" d="M196.82,227.45a.2.2,0,0,0,.072.079,1.464,1.464,0,0,1-.424,1.253,2.141,2.141,0,0,1-1.4.453c-.022-.007-.036-.014-.058-.022a.148.148,0,0,0-.043-.172c-.749-.533-1.9-1.26-2.166-2.2-.367-1.309,1.5-2.259,2.5-1.511a.108.108,0,0,0,.13,0A12.252,12.252,0,0,1,196.82,227.45Z" fill="#ebd7be"/>
      <path id="Path_84" data-name="Path 84" d="M195.115,216.849c.273.727.554,1.483-.446,1.778a4.391,4.391,0,0,1-1.936.014,2.213,2.213,0,0,1-.857-.252c-.612-.439-.388-1.223-.3-1.792a.119.119,0,0,0-.072-.129c1.036-.3,2.209-.051,3.282-.288.065-.014.122-.036.187-.05A1.781,1.781,0,0,0,195.115,216.849Z" fill="#ebd7be"/>
      <path id="Path_85" data-name="Path 85" d="M197.123,214.59a20.57,20.57,0,0,1-2.231.971,12.659,12.659,0,0,1-2.3.245c-.007-.007-.007-.015-.015-.022a5.8,5.8,0,0,0-2.238-1.547c.324-2.274,2.987-1.857,4.318-1.26A12.381,12.381,0,0,1,197.123,214.59Z" fill="#ebd7be"/>
    </g>
    <path id="Path_86" data-name="Path 86" d="M183,245.714a.583.583,0,0,0-.867-.5l-2.523,1.208c-.638.3-.147,1.144.444,1.053.348-.053.581-.083.759-.109a17.534,17.534,0,0,1-3.171,5c-2.793,2.839-8.251,4.084-10.016-.99-1.785-5.133,1.627-12.482,4.014-16.854a.421.421,0,0,0-.727-.424c-3.045,4.554-8.091,16.213-2.453,20.7,5.715,4.545,10.955-2.325,13.434-7.115l.05,2.121a.576.576,0,0,0,1.151,0Z"/>
  </g>
</svg>
