<svg xmlns="http://www.w3.org/2000/svg" width="29.193" height="50.3" viewBox="0 0 29.193 50.3">
  <g id="K" transform="translate(-242.517 -205.987)">
    <g id="Group_23" data-name="Group 23">
      <path id="Path_87" data-name="Path 87" d="M271.678,254.472a.329.329,0,0,1-.007.3.354.354,0,0,1-.231.431,19.021,19.021,0,0,1-14.178-.59.255.255,0,0,1-.151-.2.359.359,0,0,1-.208-.41c1.072-4.592-4.937-9.155-7.327-12.667-1.288-1.9-3.181-4.2-3.051-6.6a.185.185,0,0,1-.036-.152,3.039,3.039,0,0,1,.18-.7c.014-.057.021-.115.036-.172.007-.022.029-.036.043-.051a3.032,3.032,0,0,1,3.44-1.633,3.283,3.283,0,0,1-.065-4.131,2.927,2.927,0,0,1,3.21-.8,93.87,93.87,0,0,1-8.816-11.911c-1.188-1.85-3.455-4.872-.669-6.326a.185.185,0,0,1,.151-.014c3.3-1.641,10.536,8.9,11.875,10.636.331-1.23,1.165-2.965,2.267-3.569a27.36,27.36,0,0,1-.274-7.384c.23-1.432,1.094-2.642,2.656-2.534a.25.25,0,0,1,.216.245c2,.267,2.216,3.116,2.518,5.052a64.772,64.772,0,0,0,3.714,13.617c1.5,3.908,2.843,7.837,2.85,12.069C269.843,243.224,269.022,248.521,271.678,254.472Zm-2.951-10.334c.051-4.426.77-8.557-.353-12.947-.122-.468-.251-.936-.388-1.4-1-3.288-2.447-6.419-3.548-9.672a35.928,35.928,0,0,1-1.468-5.894c-.274-1.735-.231-7.427-2.987-7.593-2.411,1.166-1.432,6.671-1.468,9.118a1.737,1.737,0,0,1,1.641.432.123.123,0,0,1-.008.187,2.519,2.519,0,0,1,.648,1.735c.087.921-.187,1.864-.086,2.778a7.2,7.2,0,0,0,2.31,4.555c1.439,1.576,2.929,2.865,3.555,4.758a6.151,6.151,0,0,1,.288,1.425c.029.3-.475.367-.518.071-.5-3.325-3.3-4.807-5.067-7.362-1.784-2.576-.18-5.527-1.619-8.082-.007-.014,0-.029-.007-.043-2.008-.878-3.116,3.3-3.26,4.188a8.995,8.995,0,0,0,.144,3.563,20.188,20.188,0,0,0,2.922,6.081.153.153,0,0,1-.08.216.124.124,0,0,1-.151-.036c-2.31-2.8-4.123-6.362-3.49-10.075a.259.259,0,0,1-.274-.1c-1.561-1.951-3.116-3.915-4.757-5.794-.863-.993-1.756-1.972-2.677-2.914-.36-.36-.713-.763-1.1-1.087-.806-.648-2.21-1.238-3.2-.59-1.828,3.5,8.6,15.315,10.22,17.546a.166.166,0,0,1-.051.237,2.586,2.586,0,0,1,.295.267.2.2,0,0,1,.022.208,15.95,15.95,0,0,1,3.311,4,5.187,5.187,0,0,1,1.892-1.584,4.172,4.172,0,0,1,.619-.23c.281-.072.483.367.2.489a7.319,7.319,0,0,0-2.533,1.677,11.193,11.193,0,0,1,.554,1.181c.381.971,1.374,3.54.266,4.354a.362.362,0,0,1-.094.043,2.164,2.164,0,0,1-2.468.583,2.259,2.259,0,0,1-.166,1.317.181.181,0,0,1,.058.266c-2.044,2.965-5.088-1.994-6.664-2.792-.2-.1-.022-.375.172-.295,1.13.482,2.347,2.223,3.62,3.03a1.823,1.823,0,0,1-.028-2.059,1.4,1.4,0,0,1,2.166-.187,16.825,16.825,0,0,0-2.613-3.145,7.052,7.052,0,0,0-1.806-1.742c-1.691-.892-3.123.108-3.735,1.562.137,4.5,5.268,9.45,7.967,12.515,1.893,2.159,3.317,4.232,2.706,7.161a20.234,20.234,0,0,0,13.364.526A24.476,24.476,0,0,1,268.727,244.138Zm-10.3-7a3.422,3.422,0,0,0-.187-2.317,16.954,16.954,0,0,0-1.684-3.339,43.62,43.62,0,0,0-2.943-3.685,2.452,2.452,0,0,0-2.98.46c-1.058,1.188-.468,2.613.065,3.851.014.021.007.043.007.072a3.584,3.584,0,0,1,1.2.727,21.905,21.905,0,0,1,3.512,4.174,4.527,4.527,0,0,1,.425.914c.021,0,.036-.007.05,0a1.626,1.626,0,0,0,.756.18,2.508,2.508,0,0,1-1.058-3.34,1.523,1.523,0,0,1,2.634-.007.171.171,0,0,1-.295.173c-.7-1.087-2.08-.389-2.188.734a2.971,2.971,0,0,0,1.31,2.382,1.982,1.982,0,0,0,1.137-.863A.226.226,0,0,1,258.428,237.135Zm-3.087,2.771a2.642,2.642,0,0,0-.115-1.95.131.131,0,0,1-.209.043,1.088,1.088,0,0,0-1.864.381,1.837,1.837,0,0,0,.5,1.886A1.664,1.664,0,0,0,255.341,239.906Z"/>
      <path id="Path_88" data-name="Path 88" d="M268.374,231.191c1.123,4.39.4,8.521.353,12.947A24.476,24.476,0,0,0,271,254.588a20.234,20.234,0,0,1-13.364-.526c.611-2.929-.813-5-2.706-7.161-2.7-3.065-7.83-8.017-7.967-12.515.612-1.454,2.044-2.454,3.735-1.562a7.052,7.052,0,0,1,1.806,1.742,16.825,16.825,0,0,1,2.613,3.145,1.4,1.4,0,0,0-2.166.187,1.823,1.823,0,0,0,.028,2.059c-1.273-.807-2.49-2.548-3.62-3.03-.194-.08-.374.194-.172.295,1.576.8,4.62,5.757,6.664,2.792a.181.181,0,0,0-.058-.266,2.259,2.259,0,0,0,.166-1.317,2.164,2.164,0,0,0,2.468-.583.362.362,0,0,0,.094-.043c1.108-.814.115-3.383-.266-4.354a11.193,11.193,0,0,0-.554-1.181,7.319,7.319,0,0,1,2.533-1.677c.281-.122.079-.561-.2-.489a4.172,4.172,0,0,0-.619.23l-.036-.079a.153.153,0,0,0,.08-.216,20.188,20.188,0,0,1-2.922-6.081,8.995,8.995,0,0,1-.144-3.563c.144-.885,1.252-5.066,3.26-4.188.007.014,0,.029.007.043,1.439,2.555-.165,5.506,1.619,8.082,1.764,2.555,4.563,4.037,5.067,7.362.043.3.547.231.518-.071a6.151,6.151,0,0,0-.288-1.425l1.411-.4C268.123,230.255,268.252,230.723,268.374,231.191Z" fill="#ebd7be"/>
      <path id="Path_89" data-name="Path 89" d="M267.986,229.794l-1.411.4c-.626-1.893-2.116-3.182-3.555-4.758a7.2,7.2,0,0,1-2.31-4.555c-.1-.914.173-1.857.086-2.778a2.519,2.519,0,0,0-.648-1.735.123.123,0,0,0,.008-.187,1.737,1.737,0,0,0-1.641-.432c.036-2.447-.943-7.952,1.468-9.118,2.756.166,2.713,5.858,2.987,7.593a35.928,35.928,0,0,0,1.468,5.894C265.539,223.375,266.986,226.506,267.986,229.794Z" fill="#ebd7be"/>
      <path id="Path_90" data-name="Path 90" d="M259.378,230.255l.036.079a5.187,5.187,0,0,0-1.892,1.584,15.95,15.95,0,0,0-3.311-4,.2.2,0,0,0-.022-.208,2.586,2.586,0,0,0-.295-.267.166.166,0,0,0,.051-.237c-1.62-2.231-12.048-14.049-10.22-17.546.993-.648,2.4-.058,3.2.59.388.324.741.727,1.1,1.087.921.942,1.814,1.921,2.677,2.914,1.641,1.879,3.2,3.843,4.757,5.794a.259.259,0,0,0,.274.1c-.633,3.713,1.18,7.275,3.49,10.075A.124.124,0,0,0,259.378,230.255Z" fill="#ebd7be"/>
      <path id="Path_91" data-name="Path 91" d="M258.241,234.818a3.422,3.422,0,0,1,.187,2.317.226.226,0,0,0-.237.116,1.982,1.982,0,0,1-1.137.863,2.971,2.971,0,0,1-1.31-2.382c.108-1.123,1.49-1.821,2.188-.734a.171.171,0,0,0,.295-.173Z" fill="#ebd7be"/>
      <path id="Path_92" data-name="Path 92" d="M258.241,234.818l-.014.007a1.523,1.523,0,0,0-2.634.007,2.508,2.508,0,0,0,1.058,3.34,1.626,1.626,0,0,1-.756-.18c-.014-.007-.029,0-.05,0a4.527,4.527,0,0,0-.425-.914,21.905,21.905,0,0,0-3.512-4.174,3.584,3.584,0,0,0-1.2-.727c0-.029.007-.051-.007-.072-.533-1.238-1.123-2.663-.065-3.851a2.452,2.452,0,0,1,2.98-.46,43.62,43.62,0,0,1,2.943,3.685A16.954,16.954,0,0,1,258.241,234.818Z" fill="#ebd7be"/>
      <path id="Path_93" data-name="Path 93" d="M255.226,237.956a2.642,2.642,0,0,1,.115,1.95,1.664,1.664,0,0,1-1.691.36,1.837,1.837,0,0,1-.5-1.886,1.088,1.088,0,0,1,1.864-.381A.131.131,0,0,0,255.226,237.956Z" fill="#ebd7be"/>
    </g>
  </g>
</svg>
