<svg xmlns="http://www.w3.org/2000/svg" width="37.754" height="53.159" viewBox="0 0 37.754 53.159">
  <g id="L" transform="translate(-302.482 -203.129)">
    <g id="Group_25" data-name="Group 25">
      <path id="Path_94" data-name="Path 94" d="M310.042,230.219h-.007a2.482,2.482,0,0,1-3.282-.576c-1.231-1.339-1.353-3.289-2.238-4.815-.116-.2.18-.36.3-.18.827,1.188,1.418,3.851,2.706,4.966a2.924,2.924,0,0,1,.353-3.188,1.491,1.491,0,0,1,2.087.014,11.73,11.73,0,0,0-.375-2.317c-.518-1.792-2.36-5.052-4.512-4.318-2.735,2.612-1.619,7.773-1.3,11.141a46.607,46.607,0,0,0,1.7,10.507c.827,2.454,3.145,3.778,3.814,6.125.6,2.094,0,4.886-.317,7.074a26.972,26.972,0,0,0,13.142-.108c-.382-2.706-.986-6.067.086-8.658.742-1.785,2.368-2.814,3.872-3.893,3.613-2.584,5.024-5.4,7.3-9,1.785-2.806,5.189-4.066,6.333-7.319-.993-3.749-6.8.727-7.895,1.677-1.36,1.181-2.663,2.44-4.037,3.613a.248.248,0,0,1-.18.324,8.263,8.263,0,0,0-3.93,1.705.17.17,0,0,1-.237-.244,6.251,6.251,0,0,1,2.461-1.655c0-.015-.007-.022-.014-.036a98.9,98.9,0,0,1-2.541-13.523c-.4-2.757-1.043-13.789-5.239-13.8-1.792,1.094-.612,5.866-.475,7.363.216,2.346.439,4.692.511,7.052a.155.155,0,0,1-.1.144c1.548,3.793,4.326,15.409-.575,15.114a1.931,1.931,0,0,1-1.7-.281,2.664,2.664,0,0,1-.921-1.08,2.778,2.778,0,0,1-2.965.425A3.268,3.268,0,0,1,310.042,230.219Zm25.585-6.139c1.828-.655,4.7-.626,4.606,1.964a.225.225,0,0,1-.238.209,7.505,7.505,0,0,1-2.728,3.786c-2.605,2.274-3.656,4.577-5.455,7.4a19.421,19.421,0,0,1-4.966,4.916c-2.562,1.914-3.85,2.411-4.325,6.239a23.574,23.574,0,0,0,.36,5.866.394.394,0,0,1-.072.712,23.3,23.3,0,0,1-14.192.022.278.278,0,0,1-.137-.094.354.354,0,0,1-.2-.374c.453-3.253.9-6.088-1.03-8.938a19.6,19.6,0,0,1-1.842-2.642c-1.18-2.461-1.468-5.333-1.828-8-.461-3.461-2.037-9.744-.3-13.6v-.014a12.291,12.291,0,0,1,.734-1.4.162.162,0,0,1,.043-.173c.036-.036.079-.058.115-.094a.149.149,0,0,1,.022-.036.157.157,0,0,1,.115-.079,2.373,2.373,0,0,1,3.2.058c.179-1.245,1.648-1.965,2.828-2.181a.169.169,0,0,1,.129-.108,2.2,2.2,0,0,1,2.03.648c.7-1.972,4.052-2.6,5.182-.857-.5-3.425-.8-6.887-1.08-10.334-.129-1.612-.252-3.39,1.612-3.829a.211.211,0,0,1,.252.1c3.246-.389,3.973,5.4,4.448,7.65,1.389,6.643,1.835,13.422,3.577,20v.014a5.092,5.092,0,0,1,.878-.136.15.15,0,0,1,.036-.058C329.74,228.276,332.352,225.253,335.627,224.08Zm-18.1,8.9c1.339-.165,1.872-1.576,1.972-3.5a2.284,2.284,0,0,0-3.173-.2c-.943.95-.375,2.39.072,3.455A2.768,2.768,0,0,0,317.526,232.982Zm1.98-4.152a43.8,43.8,0,0,0-1.908-10.609c-1.2-2.014-3.62-1.583-4.843.224,1.087,1.432,1.31,4.088,1.612,5.513.317,1.525,1.569,5.246.785,7.24a.277.277,0,0,1,.107.1c.144.238.173.511.324.741a1.669,1.669,0,0,0,.267.332c-.526-1.253-.857-2.843.446-3.7A2.942,2.942,0,0,1,319.506,228.83Zm-5.24,3a4.372,4.372,0,0,0,.468-2.886.164.164,0,0,1-.187-.014c-.82-.67-2.267-1.31-2.958-.087-.561.986-.065,2.058.245,3.023,0,.007-.007.014-.007.021a.344.344,0,0,1,.064.036A2.389,2.389,0,0,0,314.266,231.831Zm.439-3.21a40.807,40.807,0,0,0-.942-4.5c-.332-1.526-.763-5.88-3.009-6.161a.186.186,0,0,1-.093.072c-1.188.483-2.311.778-2.8,2.066a8.208,8.208,0,0,1,1.691,2.332,10.8,10.8,0,0,1,.878,5.275,5.119,5.119,0,0,1-.194,1.742,4.322,4.322,0,0,0,1.094,2.065c-.461-1.087-.7-2.447.238-3.318S313.856,227.894,314.7,228.621Zm-5.369,1.425c.562-.583.7-1.9.648-3.2a.135.135,0,0,1-.165-.036,1.189,1.189,0,0,0-1.987.446,3.613,3.613,0,0,0,0,2.368.125.125,0,0,1-.079.158A1.878,1.878,0,0,0,309.336,230.046Z"/>
      <path id="Path_95" data-name="Path 95" d="M331.812,227.347c1.094-.95,6.9-5.426,7.895-1.677-1.144,3.253-4.548,4.513-6.333,7.319-2.281,3.6-3.692,6.42-7.3,9-1.5,1.079-3.13,2.108-3.872,3.893-1.072,2.591-.468,5.952-.086,8.658a26.972,26.972,0,0,1-13.142.108c.317-2.188.914-4.98.317-7.074-.669-2.347-2.987-3.671-3.814-6.125a46.607,46.607,0,0,1-1.7-10.507c-.316-3.368-1.432-8.529,1.3-11.141,2.152-.734,3.994,2.526,4.512,4.318a11.73,11.73,0,0,1,.375,2.317,1.491,1.491,0,0,0-2.087-.014,2.924,2.924,0,0,0-.353,3.188c-1.288-1.115-1.879-3.778-2.706-4.966-.122-.18-.418-.021-.3.18.885,1.526,1.007,3.476,2.238,4.815a2.482,2.482,0,0,0,3.282.576h.007a3.268,3.268,0,0,0,1.828,2.245,2.778,2.778,0,0,0,2.965-.425,2.664,2.664,0,0,0,.921,1.08,1.931,1.931,0,0,0,1.7.281c4.9.3,2.123-11.321.575-15.114a.155.155,0,0,0,.1-.144c-.072-2.36-.3-4.706-.511-7.052-.137-1.5-1.317-6.269.475-7.363,4.2.015,4.844,11.047,5.239,13.8a98.9,98.9,0,0,0,2.541,13.523c.007.014.014.021.014.036a6.251,6.251,0,0,0-2.461,1.655.17.17,0,0,0,.237.244,8.263,8.263,0,0,1,3.93-1.705.248.248,0,0,0,.18-.324C329.149,229.787,330.452,228.528,331.812,227.347Z" fill="#ebd7be"/>
      <path id="Path_96" data-name="Path 96" d="M319.5,229.485c-.1,1.921-.633,3.332-1.972,3.5a2.768,2.768,0,0,1-1.129-.237c-.447-1.065-1.015-2.5-.072-3.455A2.284,2.284,0,0,1,319.5,229.485Z" fill="#ebd7be"/>
      <path id="Path_97" data-name="Path 97" d="M317.6,218.221a43.8,43.8,0,0,1,1.908,10.609,2.942,2.942,0,0,0-3.21-.159c-1.3.857-.972,2.447-.446,3.7a1.669,1.669,0,0,1-.267-.332c-.151-.23-.18-.5-.324-.741a.277.277,0,0,0-.107-.1c.784-1.994-.468-5.715-.785-7.24-.3-1.425-.525-4.081-1.612-5.513C313.978,216.638,316.4,216.207,317.6,218.221Z" fill="#ebd7be"/>
      <path id="Path_98" data-name="Path 98" d="M314.734,228.945a4.372,4.372,0,0,1-.468,2.886,2.389,2.389,0,0,1-2.375.093.344.344,0,0,0-.064-.036c0-.007.007-.014.007-.021-.31-.965-.806-2.037-.245-3.023.691-1.223,2.138-.583,2.958.087A.164.164,0,0,0,314.734,228.945Z" fill="#ebd7be"/>
      <path id="Path_99" data-name="Path 99" d="M313.763,224.123a40.807,40.807,0,0,1,.942,4.5c-.849-.727-2.188-1.295-3.137-.425s-.7,2.231-.238,3.318a4.322,4.322,0,0,1-1.094-2.065,5.119,5.119,0,0,0,.194-1.742,10.8,10.8,0,0,0-.878-5.275,8.208,8.208,0,0,0-1.691-2.332c.489-1.288,1.612-1.583,2.8-2.066a.186.186,0,0,0,.093-.072C313,218.243,313.431,222.6,313.763,224.123Z" fill="#ebd7be"/>
      <path id="Path_100" data-name="Path 100" d="M309.984,226.851c.051,1.295-.086,2.612-.648,3.2a1.878,1.878,0,0,1-1.583-.259.125.125,0,0,0,.079-.158,3.613,3.613,0,0,1,0-2.368,1.189,1.189,0,0,1,1.987-.446A.135.135,0,0,0,309.984,226.851Z" fill="#ebd7be"/>
    </g>
  </g>
</svg>
