<?xml version="1.0" standalone="no"?>
<!DOCTYPE svg PUBLIC "-//W3C//DTD SVG 20010904//EN"
 "http://www.w3.org/TR/2001/REC-SVG-20010904/DTD/svg10.dtd">
<svg version="1.0" xmlns="http://www.w3.org/2000/svg"
 width="1103.000000pt" height="1201.000000pt" viewBox="0 0 1103.000000 1201.000000"
 preserveAspectRatio="xMidYMid meet">
<metadata>
Created by potrace 1.16, written by Peter Selinger 2001-2019
</metadata>
<g transform="translate(0.000000,1201.000000) scale(0.100000,-0.100000)"
fill="#000000" stroke="none">
<path d="M1495 11990 c-96 -13 -254 -55 -341 -90 -190 -75 -345 -179 -494
-329 -253 -255 -383 -535 -420 -904 -31 -300 56 -645 227 -907 53 -80 146
-197 173 -217 28 -20 88 -115 104 -163 28 -84 37 -135 50 -298 16 -186 28
-220 95 -267 38 -27 51 -30 116 -30 65 0 78 3 116 30 65 47 79 82 79 202 0
104 -21 282 -45 385 -36 155 -104 284 -214 406 -91 100 -140 170 -189 268 -78
155 -114 303 -114 474 0 175 36 322 119 482 58 113 122 197 221 289 419 389
1081 367 1474 -49 186 -197 290 -457 290 -722 0 -272 -97 -509 -307 -745 -113
-128 -170 -236 -209 -395 -47 -197 -61 -467 -27 -530 59 -112 246 -134 327
-37 38 46 42 62 59 245 15 169 39 281 76 354 11 21 55 77 98 123 359 386 477
943 309 1450 -122 366 -407 685 -759 848 -202 94 -351 128 -584 132 -93 2
-197 0 -230 -5z"/>
<path d="M5360 10494 c-14 -2 -56 -9 -95 -15 -156 -24 -295 -69 -455 -145
-747 -357 -1132 -1201 -914 -2004 169 -621 682 -1098 1324 -1231 102 -21 141
-24 340 -24 196 0 238 3 328 23 534 117 955 436 1196 905 47 92 104 231 120
297 4 14 13 50 21 80 45 165 61 445 36 625 -106 750 -643 1320 -1388 1471 -75
15 -452 29 -513 18z"/>
<path d="M1000 8718 c-50 -34 -72 -71 -78 -127 -6 -63 25 -131 72 -161 33 -20
47 -20 673 -20 l640 0 33 23 c45 30 70 81 70 143 0 59 -26 105 -79 141 l-34
23 -632 0 -632 0 -33 -22z"/>
<path d="M1144 8256 c-17 -8 -45 -31 -62 -52 -29 -35 -32 -45 -32 -106 0 -62
3 -70 32 -104 57 -65 46 -64 586 -64 486 0 488 0 532 23 59 29 83 73 83 147 0
74 -24 118 -83 148 -44 22 -46 22 -535 22 -387 -1 -496 -4 -521 -14z"/>
<path d="M1240 7769 c0 -28 86 -172 122 -205 92 -83 247 -127 373 -106 80 13
175 56 231 105 37 33 124 177 124 206 0 8 -123 11 -425 11 -302 0 -425 -3
-425 -11z"/>
<path d="M3840 6660 c-362 -33 -682 -180 -939 -432 -118 -116 -199 -216 -408
-503 -100 -137 -322 -441 -492 -675 -171 -234 -451 -618 -623 -854 -172 -236
-417 -571 -543 -745 -127 -174 -334 -458 -461 -631 -261 -358 -289 -409 -340
-600 -21 -82 -24 -327 -5 -415 43 -197 121 -341 260 -488 141 -147 317 -243
529 -286 126 -26 361 -9 482 34 41 15 945 269 1474 414 44 12 83 24 88 27 4 3
8 -335 8 -750 l0 -756 2650 0 2650 0 0 750 c0 454 4 750 9 750 5 0 229 -61
498 -136 526 -147 638 -178 723 -200 68 -18 130 -36 290 -85 69 -20 149 -42
178 -48 76 -16 288 -14 369 4 316 67 583 284 708 574 44 105 61 170 76 301 20
179 -21 387 -109 550 -19 36 -110 168 -201 293 -91 125 -183 251 -203 280 -21
29 -61 84 -90 124 -87 118 -490 670 -528 723 -19 27 -159 218 -310 425 -151
206 -291 398 -310 425 -19 27 -116 159 -215 295 -99 136 -238 327 -310 425
-240 329 -259 355 -329 450 -296 403 -577 613 -943 709 -227 59 -96 56 -1898
57 -907 1 -1688 -2 -1735 -6z m-740 -1254 c107 -35 391 -128 630 -206 239 -78
467 -152 505 -165 539 -178 1272 -415 1285 -415 11 0 430 135 930 300 63 21
311 102 550 180 239 78 523 170 630 205 366 120 505 165 513 165 4 0 7 -450 7
-999 l0 -999 -67 24 c-468 171 -889 104 -1173 -186 -149 -151 -234 -328 -260
-544 -16 -125 -1 -262 41 -391 95 -285 353 -525 683 -635 78 -26 78 -27 50
-38 -16 -6 -297 -100 -624 -208 -327 -108 -749 -248 -938 -310 l-343 -114
-542 180 c-298 98 -726 240 -952 315 -225 74 -417 138 -425 141 -9 3 22 19 75
38 380 137 629 399 701 739 18 88 18 276 -1 364 -107 507 -572 811 -1110 729
-105 -16 -178 -35 -295 -74 l-85 -29 3 998 c1 550 5 999 9 999 4 0 95 -29 203
-64z"/>
</g>
</svg>
