<svg xmlns="http://www.w3.org/2000/svg" width="27.304" height="47.54" viewBox="0 0 27.304 47.54">
  <g id="M" transform="translate(-364.836 -208.748)">
    <g id="Group_27" data-name="Group 27">
      <path id="Path_101" data-name="Path 101" d="M389.886,212.7c2.36,1.461,2.36,4.527,2.188,7.06a19.538,19.538,0,0,1-1.065,5.88,17.184,17.184,0,0,1-2.419,11.471c-1.525,2.419-3.584,3.692-3.857,6.758a45.468,45.468,0,0,0,.576,10.371.224.224,0,0,1-.044.18.319.319,0,0,1-.194.338c-4.822,2.332-12.58,1.814-17.38-.36a.21.21,0,0,1-.087-.309.287.287,0,0,1,0-.2,24.11,24.11,0,0,0,1.785-8.672c-.05-3.073-1.274-5.6-2.475-8.341a24.11,24.11,0,0,1-2.008-11.572c.208-2.771.489-6.492,3.411-7.672a10.809,10.809,0,0,1,4.181-.612c-.741-1.454-1.151-3.347.331-4.491a3.785,3.785,0,0,1,2.138-.756c.777-2.648,5.074-4.527,6.542-1.389a.188.188,0,0,1,.007.152,10.727,10.727,0,0,1,.936,1.353c1.158-1.937,4.7-1.749,5.073.7a3.153,3.153,0,0,1,2.2-.058A.262.262,0,0,1,389.886,212.7Zm.756,12.472c1.6-3.987,1.511-10.371-1.253-12.141-.014-.015-.021-.029-.036-.043a3.874,3.874,0,0,0-1.677.043c2.411,4.109,1.037,8.557-1.432,12.594a2.6,2.6,0,0,1,4.124-.194A.286.286,0,0,1,390.642,225.176Zm-1.613,9.68a16.634,16.634,0,0,0,1.447-8.14,5.4,5.4,0,0,1-.6.785.121.121,0,0,1,0,.086,2.327,2.327,0,0,1-4.419-1.08,2.475,2.475,0,0,1-2.764.7,2.441,2.441,0,0,1-1.439-2.562,2.222,2.222,0,0,1-1.418.411c-.137.942-.3,1.813-.41,2.49-.216,1.446-1.123,4.541-3,3.792a2.256,2.256,0,0,1-2.059-2.1,26.461,26.461,0,0,1,.2-6.427,5.824,5.824,0,0,1-5.038-1.662c-.158-.159.072-.367.238-.238a6.051,6.051,0,0,0,4.7,1.317.3.3,0,0,1,.2.036.208.208,0,0,1,.381.115c.043,1.382.007,2.764-.022,4.153-.021,1.159-.244,2.62.4,3.541a2.677,2.677,0,0,1,.619-2.886,1.978,1.978,0,0,1,2.7.007.151.151,0,0,1,.036.108c0,.115-.115.238-.238.151a1.723,1.723,0,0,0-2.3.158,2.854,2.854,0,0,0-.411,2.764.124.124,0,0,1-.021.1,2.338,2.338,0,0,0,1.065.424.152.152,0,0,1,.079.051c1.058-.187,1.583-1.979,1.857-3.642a24.144,24.144,0,0,0,.259-2.461.314.314,0,0,1,.029-.4c.137-1.814.547-4.354-.741-5.765a.232.232,0,0,1-.13-.129c-.022-.022-.036-.051-.058-.065a44.575,44.575,0,0,0-5.181-.54c-2.555-.05-5.189-.007-6.7,3.2a11.964,11.964,0,0,0-.662,3.547,23.673,23.673,0,0,0,1.9,11.89c1.188,2.7,2.368,5.009,2.512,8.01a24.337,24.337,0,0,1-1.778,9.478c4.815,1.332,11.825,2.245,16.409.022a.378.378,0,0,1,.166-.044,34.386,34.386,0,0,1-.835-8.2c0-1.655-.3-3.584.518-5.074C385.7,238.641,387.936,237.216,389.029,234.856Zm-.115-7.046a5.8,5.8,0,0,0,1.353-1.821,2.279,2.279,0,0,0-4.181.943,1.761,1.761,0,0,0,.856,1.108A1.8,1.8,0,0,0,388.914,227.81Zm-.669-8c.569-2.864-.4-5.433-1.756-7.895a2.173,2.173,0,0,0-1.216-.719,2.6,2.6,0,0,0-2.548,1.129.015.015,0,0,1-.014.015,11.043,11.043,0,0,1,1.115,6.866c-.223,1.41-.864,3.8-2.094,5.038a.281.281,0,0,1,.021.115,2.462,2.462,0,0,0-.007.691,4.85,4.85,0,0,1,1.85-1.728,2.028,2.028,0,0,1,2.735.922.141.141,0,0,1,0,.093A14.834,14.834,0,0,0,388.245,219.814Zm-2.749,5.923c.259-.431.525-.871.784-1.317a.186.186,0,0,1-.3-.021,1.723,1.723,0,0,0-2.3-.626c-.388.179-1.914,1.338-1.669,1.914a.122.122,0,0,1-.036.137,1.872,1.872,0,0,0,.928.878,2.065,2.065,0,0,0,2.447-.864A.243.243,0,0,1,385.5,225.737Zm-3.887-2.152c1.476-1.828,1.757-5.973,1.62-7.24a13.006,13.006,0,0,0-2.742-6.391,2.893,2.893,0,0,0-2.569-.489,4.7,4.7,0,0,0-2.577,2.332,1.845,1.845,0,0,1,.856.3.144.144,0,0,1,.13.058c.029.043.058.086.086.122a1.72,1.72,0,0,1,.339.5,13.636,13.636,0,0,1,1.957,5.333c.015.007.022.021.036.029.065.021.144.043.209.064a.207.207,0,0,1,.115.252,4.24,4.24,0,0,1,.892,2.109c.555-.187,1.1.4,1.332.878A3.758,3.758,0,0,1,381.609,223.585Zm-.525.5a4.187,4.187,0,0,0,.05-1.72c-.1-.475-.431-1.555-1.122-1.483a14.605,14.605,0,0,1-.087,3.584A1.876,1.876,0,0,0,381.084,224.082Zm-3-6.146a.056.056,0,0,1,.029-.014,14.4,14.4,0,0,0-.41-1.677c-.008.007-.015.021-.029.036-.605.259-1.008-.2-1.2-.742a9.138,9.138,0,0,0-1.669-3.13.15.15,0,0,1-.029-.072,2.684,2.684,0,0,0-2.073,1.259c-.59,1.072-.13,2.353.2,3.44A22.329,22.329,0,0,1,378.083,217.936Zm-.547-1.979a.191.191,0,0,1,.086.021,19.04,19.04,0,0,0-1.237-3.058,1.758,1.758,0,0,0-1.289-.6,6.294,6.294,0,0,1,1.159,1.555C376.507,214.359,376.867,216.072,377.536,215.957Z"/>
      <path id="Path_102" data-name="Path 102" d="M389.389,213.035c2.764,1.77,2.857,8.154,1.253,12.141a.286.286,0,0,0-.274.259,2.6,2.6,0,0,0-4.124.194c2.469-4.037,3.843-8.485,1.432-12.594a3.874,3.874,0,0,1,1.677-.043C389.368,213.006,389.375,213.02,389.389,213.035Z" fill="#ebd7be"/>
      <path id="Path_103" data-name="Path 103" d="M390.476,226.716a16.634,16.634,0,0,1-1.447,8.14c-1.093,2.36-3.332,3.785-4.512,5.915-.82,1.49-.518,3.419-.518,5.074a34.386,34.386,0,0,0,.835,8.2.378.378,0,0,0-.166.044c-4.584,2.223-11.594,1.31-16.409-.022a24.337,24.337,0,0,0,1.778-9.478c-.144-3-1.324-5.311-2.512-8.01a23.673,23.673,0,0,1-1.9-11.89,11.964,11.964,0,0,1,.662-3.547c1.512-3.2,4.146-3.246,6.7-3.2a44.575,44.575,0,0,1,5.181.54c.022.014.036.043.058.065a.232.232,0,0,0,.13.129c1.288,1.411.878,3.951.741,5.765a.314.314,0,0,0-.029.4,24.144,24.144,0,0,1-.259,2.461l-.036-.007a.151.151,0,0,0-.036-.108,1.978,1.978,0,0,0-2.7-.007,2.677,2.677,0,0,0-.619,2.886c-.64-.921-.417-2.382-.4-3.541.029-1.389.065-2.771.022-4.153a.208.208,0,0,0-.381-.115.3.3,0,0,0-.2-.036,6.051,6.051,0,0,1-4.7-1.317c-.166-.129-.4.079-.238.238a5.824,5.824,0,0,0,5.038,1.662,26.461,26.461,0,0,0-.2,6.427,2.256,2.256,0,0,0,2.059,2.1c1.878.749,2.785-2.346,3-3.792.108-.677.273-1.548.41-2.49a2.222,2.222,0,0,0,1.418-.411,2.441,2.441,0,0,0,1.439,2.562,2.475,2.475,0,0,0,2.764-.7,2.327,2.327,0,0,0,4.419,1.08.121.121,0,0,0,0-.086A5.4,5.4,0,0,0,390.476,226.716Zm-16.322-1.734a.289.289,0,0,0-.029-.411.213.213,0,0,0-.238-.129,10.21,10.21,0,0,1-4.706.316.153.153,0,0,0-.08.3,8.481,8.481,0,0,0,4.074.057,7.774,7.774,0,0,0-1.879,3.347c-.057.194.231.266.3.079A9.554,9.554,0,0,1,374.154,224.982Z" fill="#ebd7be"/>
      <path id="Path_104" data-name="Path 104" d="M390.267,225.989a5.8,5.8,0,0,1-1.353,1.821,1.8,1.8,0,0,1-1.972.23,1.761,1.761,0,0,1-.856-1.108A2.279,2.279,0,0,1,390.267,225.989Z" fill="#ebd7be"/>
      <path id="Path_105" data-name="Path 105" d="M386.489,211.919c1.353,2.462,2.325,5.031,1.756,7.895a14.834,14.834,0,0,1-1.914,4.527.141.141,0,0,0,0-.093,2.028,2.028,0,0,0-2.735-.922,4.85,4.85,0,0,0-1.85,1.728,2.462,2.462,0,0,1,.007-.691.281.281,0,0,0-.021-.115c1.23-1.238,1.871-3.628,2.094-5.038a11.043,11.043,0,0,0-1.115-6.866.015.015,0,0,0,.014-.015,2.6,2.6,0,0,1,2.548-1.129A2.173,2.173,0,0,1,386.489,211.919Z" fill="#ebd7be"/>
      <path id="Path_106" data-name="Path 106" d="M386.28,224.42c-.259.446-.525.886-.784,1.317a.243.243,0,0,0-.144.1,2.065,2.065,0,0,1-2.447.864,1.872,1.872,0,0,1-.928-.878.122.122,0,0,0,.036-.137c-.245-.576,1.281-1.735,1.669-1.914a1.723,1.723,0,0,1,2.3.626A.186.186,0,0,0,386.28,224.42Z" fill="#ebd7be"/>
      <path id="Path_107" data-name="Path 107" d="M383.229,216.345c.137,1.267-.144,5.412-1.62,7.24a3.758,3.758,0,0,0-.316-2.137c-.23-.475-.777-1.065-1.332-.878a4.24,4.24,0,0,0-.892-2.109.207.207,0,0,0-.115-.252c-.065-.021-.144-.043-.209-.064-.014-.008-.021-.022-.036-.029a13.636,13.636,0,0,0-1.957-5.333,1.72,1.72,0,0,0-.339-.5c-.028-.036-.057-.079-.086-.122a.144.144,0,0,0-.13-.058,1.845,1.845,0,0,0-.856-.3,4.7,4.7,0,0,1,2.577-2.332,2.893,2.893,0,0,1,2.569.489A13.006,13.006,0,0,1,383.229,216.345Z" fill="#ebd7be"/>
      <path id="Path_108" data-name="Path 108" d="M381.134,222.362a4.187,4.187,0,0,1-.05,1.72,1.876,1.876,0,0,1-1.159.381,14.605,14.605,0,0,0,.087-3.584C380.7,220.807,381.034,221.887,381.134,222.362Z" fill="#ebd7be"/>
      <path id="Path_109" data-name="Path 109" d="M378.774,227.3l.036.007c-.274,1.663-.8,3.455-1.857,3.642a.152.152,0,0,0-.079-.051,2.338,2.338,0,0,1-1.065-.424.124.124,0,0,0,.021-.1,2.854,2.854,0,0,1,.411-2.764,1.723,1.723,0,0,1,2.3-.158C378.659,227.537,378.774,227.414,378.774,227.3Z" fill="#ebd7be"/>
      <path id="Path_110" data-name="Path 110" d="M378.112,217.922a.056.056,0,0,0-.029.014,22.329,22.329,0,0,0-5.175-.9c-.331-1.087-.791-2.368-.2-3.44a2.684,2.684,0,0,1,2.073-1.259.15.15,0,0,0,.029.072,9.138,9.138,0,0,1,1.669,3.13c.187.547.59,1,1.2.742.014-.015.021-.029.029-.036A14.4,14.4,0,0,1,378.112,217.922Z" fill="#ebd7be"/>
      <path id="Path_111" data-name="Path 111" d="M377.622,215.978a.191.191,0,0,0-.086-.021c-.669.115-1.029-1.6-1.281-2.08a6.294,6.294,0,0,0-1.159-1.555,1.758,1.758,0,0,1,1.289.6A19.04,19.04,0,0,1,377.622,215.978Z" fill="#ebd7be"/>
      <path id="Path_112" data-name="Path 112" d="M374.125,224.571a.289.289,0,0,1,.029.411,9.554,9.554,0,0,0-2.555,3.555c-.072.187-.36.115-.3-.079a7.774,7.774,0,0,1,1.879-3.347,8.481,8.481,0,0,1-4.074-.057.153.153,0,0,1,.08-.3,10.21,10.21,0,0,0,4.706-.316A.213.213,0,0,1,374.125,224.571Z"/>
    </g>
  </g>
</svg>
