<svg xmlns="http://www.w3.org/2000/svg" width="29.849" height="47.124" viewBox="0 0 29.849 47.124">
  <g id="N" transform="translate(-425.655 -209.164)">
    <g id="Group_29" data-name="Group 29">
      <path id="Path_113" data-name="Path 113" d="M452.092,212.573c2.807,1.468,1.843,4.815,1.447,7.413-.1.633-.187,1.36-.3,2.13.007,0,.007,0,.007.007,4,3.462,1.8,9.27.057,13.358-.957,2.245-3.209,3.994-3.785,6.153-1.108,4.153.079,9.183,1.173,13.228a.337.337,0,0,1-.223.424.42.42,0,0,1-.367.461,59.042,59.042,0,0,1-17.582-.237c-.007,0-.007-.008-.007-.008a.414.414,0,0,1-.389-.482,54.483,54.483,0,0,0,.648-12.71.225.225,0,0,1,.029-.107c0-.008-.008-.008-.015-.008-4.4-3.814-7.333-9.169-7.125-15.106.115-3.1,1.3-9.147,5.29-8.938a1.491,1.491,0,0,1,1-.022c-.77-2.022.986-4,3.117-4.189a3.71,3.71,0,0,1,1.216.1c-.6-.856.446-1.72,1.3-1.928a3.46,3.46,0,0,1,1.562.007h.007c1.605-2.318,5.628-4.707,7.392-1.13a5.473,5.473,0,0,1,.489,1.72,4.192,4.192,0,0,1,4.937-.159A.335.335,0,0,1,452.092,212.573Zm1.288,20.7c1.31-3.562,2.3-7.333-.223-10.572-.345,2.231-.957,4.635-2.677,5.765a.259.259,0,0,1-.115.223c-1.26.806-3.174.943-4.138-.41a6.848,6.848,0,0,1-.756-4.362c-.158.281-.324.562-.5.85a.262.262,0,0,1-.331.115c-.993.827-2.922,1.259-3.5-.022a3.968,3.968,0,0,1-1.036,1.727,2.771,2.771,0,0,1-4.4-.777c-.468,1.475-1.576,2.6-3.318,2.152a5.681,5.681,0,0,1-3.721-4.584.176.176,0,0,1,.338-.094,7.055,7.055,0,0,0,2.505,3.642,2.338,2.338,0,0,0,2.994.014,3.652,3.652,0,0,0,.777-1.533c.014-.266.022-.54.014-.806a18.675,18.675,0,0,0-1.079-2.792c-.605-1.166-1.742-3.34-3.3-3.153-.036.008-.058-.014-.087-.021-5.39,1.094-4.9,10.262-3.764,13.976a20.438,20.438,0,0,0,6.2,9.126.286.286,0,0,1-.022.46.11.11,0,0,1,.015.051,39.141,39.141,0,0,1-.339,12.889,90.735,90.735,0,0,0,17.071-.144,41.625,41.625,0,0,1-1.418-8.715c-.079-1.7-.489-4.3.346-5.894.331-.634,1.159-1.094,1.619-1.605A16.264,16.264,0,0,0,453.38,233.271Zm-.77-11.7c.439-2.418,1.785-6.5-.532-8.435a.246.246,0,0,1-.3,0,4.177,4.177,0,0,0-4.642.022c-.014.007-.028,0-.043.007.137,1.49-.021,3.116-.021,4.39a12.327,12.327,0,0,1-1.094,5.347,14.069,14.069,0,0,0,.295,3.858,3.326,3.326,0,0,0,.482,1.051c-.1-1.454.259-3.412,1.979-3.635,1.62-.216,2.461,1.361,2.4,2.75A17.255,17.255,0,0,0,452.61,221.569Zm-1.892,5.621c.158-1.317-.713-3.21-2.339-2.5-1.26.546-1.325,2.13-1.461,3.324.734.8,1.842.727,3.08.274a4.52,4.52,0,0,0,.842-.936A.161.161,0,0,1,450.718,227.19ZM446.4,215.423a11.662,11.662,0,0,0-.165-3.512c-1.612-4.541-5.139-1.3-6.758.3a3.714,3.714,0,0,1,1.454.893.164.164,0,0,1,.3.014,8.932,8.932,0,0,1-.158,7,.2.2,0,0,1-.1.1,9.126,9.126,0,0,1,.367,1.742,2.118,2.118,0,0,1,2.4-.756,2.237,2.237,0,0,1,1.4,1.936A17.571,17.571,0,0,0,446.4,215.423Zm-1.727,8.449a1.878,1.878,0,0,0-1.043-2.325,1.927,1.927,0,0,0-2.246.85,7.378,7.378,0,0,1-.093,1.871,1.551,1.551,0,0,0,1.511.835,3.539,3.539,0,0,0,1.742-.936.213.213,0,0,1,.136-.05.288.288,0,0,1,.036-.079A.169.169,0,0,1,444.672,223.872Zm-3.965-4.376a10.916,10.916,0,0,0,.324-5.786.241.241,0,0,1-.331-.043,3.178,3.178,0,0,0-2.016-1.036c-.8-.072-2.439.251-1.979,1.425a.129.129,0,0,1-.014.115c1.777.7,2.749,2.843,3.627,4.606a.193.193,0,0,1,.115.1C440.527,219.072,440.62,219.28,440.707,219.5Zm-.058,4.7a7.451,7.451,0,0,0-.453-4.592.25.25,0,0,1-.115-.1c-.85-1.332-1.5-3.3-2.721-4.333-2.26-1.914-5.707.554-4.822,3.268a7.078,7.078,0,0,1,1.468,1.712,9.516,9.516,0,0,1,1.756,4.686.23.23,0,0,1,.108.251,1.5,1.5,0,0,1-.036.187.086.086,0,0,1,.058.044c.72,1.166,1.965,1.986,3.332,1.223A3.4,3.4,0,0,0,440.649,224.2Z"/>
      <path id="Path_114" data-name="Path 114" d="M453.157,222.7c2.519,3.239,1.533,7.01.223,10.572a16.264,16.264,0,0,1-2.857,5.506c-.46.511-1.288.971-1.619,1.605-.835,1.59-.425,4.195-.346,5.894a41.625,41.625,0,0,0,1.418,8.715,90.735,90.735,0,0,1-17.071.144,39.141,39.141,0,0,0,.339-12.889.11.11,0,0,0-.015-.051.286.286,0,0,0,.022-.46,20.438,20.438,0,0,1-6.2-9.126c-1.137-3.714-1.626-12.882,3.764-13.976.029.007.051.029.087.021,1.561-.187,2.7,1.987,3.3,3.153a18.675,18.675,0,0,1,1.079,2.792c.008.266,0,.54-.014.806a3.652,3.652,0,0,1-.777,1.533,2.338,2.338,0,0,1-2.994-.014A7.055,7.055,0,0,1,429,223.282a.176.176,0,0,0-.338.094,5.681,5.681,0,0,0,3.721,4.584c1.742.446,2.85-.677,3.318-2.152a2.771,2.771,0,0,0,4.4.777,3.968,3.968,0,0,0,1.036-1.727c.583,1.281,2.512.849,3.5.022a.262.262,0,0,0,.331-.115c.18-.288.346-.569.5-.85a6.848,6.848,0,0,0,.756,4.362c.964,1.353,2.878,1.216,4.138.41a.259.259,0,0,0,.115-.223C452.2,227.334,452.812,224.93,453.157,222.7Z" fill="#ebd7be"/>
      <path id="Path_115" data-name="Path 115" d="M452.078,213.134c2.317,1.936.971,6.017.532,8.435a17.255,17.255,0,0,1-1.482,5.355c.064-1.389-.777-2.966-2.4-2.75-1.72.223-2.08,2.181-1.979,3.635a3.326,3.326,0,0,1-.482-1.051,14.069,14.069,0,0,1-.295-3.858,12.327,12.327,0,0,0,1.094-5.347c0-1.274.158-2.9.021-4.39.015-.007.029,0,.043-.007a4.177,4.177,0,0,1,4.642-.022A.246.246,0,0,0,452.078,213.134Z" fill="#ebd7be"/>
      <path id="Path_116" data-name="Path 116" d="M448.379,224.693c1.626-.713,2.5,1.18,2.339,2.5a.161.161,0,0,0,.122.165,4.52,4.52,0,0,1-.842.936c-1.238.453-2.346.525-3.08-.274C447.054,226.823,447.119,225.239,448.379,224.693Z" fill="#ebd7be"/>
      <path id="Path_117" data-name="Path 117" d="M446.234,211.911a11.662,11.662,0,0,1,.165,3.512,17.571,17.571,0,0,1-1.252,7.722,2.237,2.237,0,0,0-1.4-1.936,2.118,2.118,0,0,0-2.4.756,9.126,9.126,0,0,0-.367-1.742.2.2,0,0,0,.1-.1,8.932,8.932,0,0,0,.158-7,.164.164,0,0,0-.3-.014,3.714,3.714,0,0,0-1.454-.893C441.1,210.608,444.622,207.37,446.234,211.911Z" fill="#ebd7be"/>
      <path id="Path_118" data-name="Path 118" d="M443.629,221.547a1.878,1.878,0,0,1,1.043,2.325.169.169,0,0,0,.043.166.288.288,0,0,0-.036.079.213.213,0,0,0-.136.05,3.539,3.539,0,0,1-1.742.936,1.551,1.551,0,0,1-1.511-.835,7.378,7.378,0,0,0,.093-1.871A1.927,1.927,0,0,1,443.629,221.547Z" fill="#ebd7be"/>
      <path id="Path_119" data-name="Path 119" d="M441.031,213.71a10.916,10.916,0,0,1-.324,5.786c-.087-.216-.18-.424-.274-.619a.193.193,0,0,0-.115-.1c-.878-1.763-1.85-3.908-3.627-4.606a.129.129,0,0,0,.014-.115c-.46-1.174,1.181-1.5,1.979-1.425a3.178,3.178,0,0,1,2.016,1.036A.241.241,0,0,0,441.031,213.71Z" fill="#ebd7be"/>
      <path id="Path_120" data-name="Path 120" d="M440.2,219.6a7.451,7.451,0,0,1,.453,4.592,3.4,3.4,0,0,1-1.425,2.346c-1.367.763-2.612-.057-3.332-1.223a.086.086,0,0,0-.058-.044,1.5,1.5,0,0,0,.036-.187.23.23,0,0,0-.108-.251,9.516,9.516,0,0,0-1.756-4.686,7.078,7.078,0,0,0-1.468-1.712c-.885-2.714,2.562-5.182,4.822-3.268,1.224,1.036,1.871,3,2.721,4.333A.25.25,0,0,0,440.2,219.6Z" fill="#ebd7be"/>
    </g>
  </g>
</svg>
