<svg xmlns="http://www.w3.org/2000/svg" width="58.706" height="40.831" viewBox="0 0 58.706 40.831">
  <g id="P" transform="translate(-82.781 -290.315)">
    <g id="Group_33" data-name="Group 33">
      <path id="Path_131" data-name="Path 131" d="M138.211,312.9c2.238,5.067,4.081,11.285,2.915,16.819a.273.273,0,0,1-.194.223.3.3,0,0,1-.252.274,30.948,30.948,0,0,1-16.265-.331.227.227,0,0,1-.18-.245.324.324,0,0,1-.374-.345c.05-3.764,1.022-7.377.712-11.163a20.844,20.844,0,0,1-8.564-2.274,1.038,1.038,0,0,1-1.159.691,2.2,2.2,0,0,1-.043,1.375.2.2,0,0,1-.237.122c-1.577,2.209-5.592.36-7.341-.77-2.519-1.627-4.182-4.455-2.872-7.262-3.627,1.843-18.942,8.3-21.194,2.821a.125.125,0,0,1-.2-.057c-.54-1.95.986-3.044,2.663-3.67a31.154,31.154,0,0,1,10-1.893c-1.432-.907-2.094-2.1-1.036-3.62a.11.11,0,0,1,.079-.058c1.087-1.475,3.03-1.151,4.764-.921.4.05.8.108,1.2.165,2.793.4,5.527.958,8.291,1.231a2.911,2.911,0,0,1-.266-2.476.217.217,0,0,1,.417.116,2.555,2.555,0,0,0,.705,2.432,26.6,26.6,0,0,0,5.5-.093c.194-.022.23.295.05.331a21.359,21.359,0,0,1-5.21.439.289.289,0,0,1-.4.093c-.051-.036-.094-.079-.144-.115-.763-.043-1.526-.115-2.3-.216-2.195-.281-7.283-2.094-10.364-1.54a3.255,3.255,0,0,1,1.871.806c.425.489.058,1.3-.179,1.814a2.014,2.014,0,0,1-3,.727c1.936,1.813,6.622,2.518,9.162,2.871,0-.093.072-.194.18-.158.223.086.446.187.669.273a1.1,1.1,0,0,0,.159.029.151.151,0,0,1,.129.094c6.4,2.713,11.443,7.657,18.77,8.118a.3.3,0,0,1,.23.136.212.212,0,0,1,.1.13c.87,3.764-.065,7.693-.411,11.472-.007.036-.021.065-.028.093a42.963,42.963,0,0,0,15.9.144c1.288-6.434-1.5-15.113-5.261-20.4-3.843-5.39-10.04-8.507-16.092-10.752-6.427-2.382-12.429-1.742-19.108-2.065a20.947,20.947,0,0,1-10.342-3.254c-.7,1.368-2.6.987-3.656.2a1.85,1.85,0,0,1-.878-1.727,1.213,1.213,0,0,1,.295-.627,3.107,3.107,0,0,0-.957.065,1.72,1.72,0,0,0-1.288,1.324c.827,3.145,5.066,5.261,7.722,6.809A23,23,0,0,0,101,302.244a.075.075,0,0,1,.05.028,8.43,8.43,0,0,0,3.742-.827c.18-.1.389.144.223.288a5.624,5.624,0,0,1-4.383,1.007.215.215,0,0,1-.2-.187c-4.131.086-7.931-1.72-11.364-3.922-2.382-1.533-5.981-3.26-6.29-6.412a.169.169,0,0,1,.043-.123,1.756,1.756,0,0,1,.77-1.267,3.172,3.172,0,0,1,2.548-.28.3.3,0,0,1,.079-.007c-.029-.137.123-.295.259-.2,3.843,2.7,7.514,4.872,12.307,5.312,3.476.316,6.966.021,10.45.1,5.937.13,11.587,2.188,16.8,4.93C131.36,303.482,135.743,307.332,138.211,312.9Zm-23.526,3.239a.618.618,0,0,0,.82-.526c-2.2-1.093-4.325-2.411-6.419-3.72a1.188,1.188,0,0,0-.238.712c0,.015-.007.022-.007.029a10.363,10.363,0,0,1,4.52,2.008A4.131,4.131,0,0,1,114.685,316.141Zm-7.125.568c1.813,1.181,5.009,2.721,6.851.929-.057-2.634-3.886-4.311-6.146-4.635-.237-.029-.18-.425.058-.417.072.007.144.021.216.021a.835.835,0,0,1,.18-.935c-1.044-.655-2.073-1.3-3.1-1.893-.13-.007-.295-.022-.475-.036C103.853,312.614,104.983,315.025,107.56,316.709Zm-3.872-7.132a26.473,26.473,0,0,1-7.269-1.914c-2.735.374-12.04.777-13.1,4.289,1.389,3.887,9.01,1.648,11.666.979A40.965,40.965,0,0,0,103.688,309.577Zm-5.3-4.807a.8.8,0,0,0-.583-.986,5.953,5.953,0,0,0-1.641-.453.163.163,0,0,1-.137-.1,2.555,2.555,0,0,0-1.158.863.2.2,0,0,1-.123.094,2.2,2.2,0,0,0,.274,1.432c.979.648,2.483,1.18,3.123-.166A2.841,2.841,0,0,0,98.391,304.77ZM86.667,293.161c.893.475,2.037.59,2.606-.352a31.58,31.58,0,0,1-2.62-1.864.136.136,0,0,1-.13.072l-.554-.065a.986.986,0,0,0-.28,1.367A2.446,2.446,0,0,0,86.667,293.161Z"/>
      <path id="Path_132" data-name="Path 132" d="M135.2,309.131c3.764,5.29,6.549,13.969,5.261,20.4a42.963,42.963,0,0,1-15.9-.144c.007-.028.021-.057.028-.093.346-3.779,1.281-7.708.411-11.472a.212.212,0,0,0-.1-.13.3.3,0,0,0-.23-.136c-7.327-.461-12.365-5.4-18.77-8.118a.151.151,0,0,0-.129-.094,1.1,1.1,0,0,1-.159-.029c-.223-.086-.446-.187-.669-.273-.108-.036-.18.065-.18.158-2.54-.353-7.226-1.058-9.162-2.871a2.014,2.014,0,0,0,3-.727c.237-.511.6-1.325.179-1.814a3.255,3.255,0,0,0-1.871-.806c3.081-.554,8.169,1.259,10.364,1.54.777.1,1.54.173,2.3.216.05.036.093.079.144.115a.289.289,0,0,0,.4-.093,21.359,21.359,0,0,0,5.21-.439c.18-.036.144-.353-.05-.331a26.6,26.6,0,0,1-5.5.093,2.555,2.555,0,0,1-.705-2.432.217.217,0,0,0-.417-.116,2.911,2.911,0,0,0,.266,2.476c-2.764-.273-5.5-.828-8.291-1.231l.007-.043a5.624,5.624,0,0,0,4.383-1.007c.166-.144-.043-.389-.223-.288a8.43,8.43,0,0,1-3.742.827.075.075,0,0,0-.05-.028A23,23,0,0,1,90.892,299.1c-2.656-1.548-6.895-3.664-7.722-6.809a1.72,1.72,0,0,1,1.288-1.324,3.107,3.107,0,0,1,.957-.065,1.213,1.213,0,0,0-.295.627A1.85,1.85,0,0,0,86,293.255c1.058.792,2.958,1.173,3.656-.2A20.947,20.947,0,0,0,100,296.314c6.679.323,12.681-.317,19.108,2.065C125.156,300.624,131.353,303.741,135.2,309.131Z" fill="#ebd7be"/>
      <path id="Path_133" data-name="Path 133" d="M115.5,315.615a.618.618,0,0,1-.82.526,4.131,4.131,0,0,0-1.324-1.5,10.363,10.363,0,0,0-4.52-2.008c0-.007.007-.014.007-.029a1.188,1.188,0,0,1,.238-.712C111.18,313.2,113.3,314.522,115.5,315.615Z" fill="#ebd7be"/>
      <path id="Path_134" data-name="Path 134" d="M114.411,317.638c-1.842,1.792-5.038.252-6.851-.929-2.577-1.684-3.707-4.1-2.418-6.966.18.014.345.029.475.036,1.029.6,2.058,1.238,3.1,1.893a.835.835,0,0,0-.18.935c-.072,0-.144-.014-.216-.021-.238-.008-.295.388-.058.417C110.525,313.327,114.354,315,114.411,317.638Z" fill="#ebd7be"/>
      <path id="Path_135" data-name="Path 135" d="M96.419,307.663a26.473,26.473,0,0,0,7.269,1.914,40.965,40.965,0,0,1-8.708,3.354c-2.656.669-10.277,2.908-11.666-.979C84.379,308.44,93.684,308.037,96.419,307.663Z" fill="#ebd7be"/>
      <path id="Path_136" data-name="Path 136" d="M97.808,303.784a.8.8,0,0,1,.583.986,2.841,2.841,0,0,1-.245.683c-.64,1.346-2.144.814-3.123.166a2.2,2.2,0,0,1-.274-1.432.2.2,0,0,0,.123-.094,2.555,2.555,0,0,1,1.158-.863.163.163,0,0,0,.137.1A5.953,5.953,0,0,1,97.808,303.784Z" fill="#ebd7be"/>
      <path id="Path_137" data-name="Path 137" d="M89.273,292.809c-.569.942-1.713.827-2.606.352a2.446,2.446,0,0,1-.978-.842.986.986,0,0,1,.28-1.367l.554.065a.136.136,0,0,0,.13-.072A31.58,31.58,0,0,0,89.273,292.809Z" fill="#ebd7be"/>
    </g>
  </g>
</svg>
