<svg xmlns="http://www.w3.org/2000/svg" width="51.407" height="36.437" viewBox="0 0 51.407 36.437">
  <g id="Q" transform="translate(-161.187 -294.709)">
    <g id="Group_35" data-name="Group 35">
      <path id="Path_138" data-name="Path 138" d="M212.543,328.8a.391.391,0,0,1-.137.525.4.4,0,0,1-.273.238,30.94,30.94,0,0,1-18.525.3.3.3,0,0,1,.137-.576.291.291,0,0,1,.115-.2c.791-.619.352-4.786.367-5.758.014-1.353.029-2.706.029-4.066.014-3.145-.051-6.283.093-9.428a5,5,0,0,1-.648.245c-.007,0-.014.007-.028.014-6.629,1.828-11.846,4.606-15.294,10.673-.511,1.231-.295,2.678-1.079,3.807a1.974,1.974,0,0,1-1.67.886.2.2,0,0,1-.245.107c-5.21-1.979-2.591-7.736.5-12.414a6.535,6.535,0,0,1-4.4-1.051c-.67.785-1.346,1.562-2.023,2.318-1.669,1.871-4.411,6.549-7.47,5.016a.177.177,0,0,1-.057-.252c-1.339-.756-.634-2.785.208-4.117a83.157,83.157,0,0,1,5.031-6.65c-1.72-1.633.093-3.893,1.353-5.368,1.741-2.03,2.317-3.779,3.346-6.161.461-1.058.921-1.583,1.915-1.778a.241.241,0,0,1,.23-.179,128.279,128.279,0,0,1,18.669.251c3.418.3,7.146.95,9.5,3.692,2.792,3.261,3.778,8.471,4.778,12.494C208.448,317.336,209.635,323.317,212.543,328.8Zm-.907-.007c-4.109-8.032-4.62-17.165-7.96-25.47-2.6-6.463-7.794-7.233-14.048-7.586-5.124-.3-10.234-.287-15.358-.3a.17.17,0,0,1-.072.051c-1.958.467-2.411,4.174-3.39,5.692-1.1,1.713-4.822,4.47-3.3,6.8a27.917,27.917,0,0,0,3.3-5.246c.166-.36.691-.043.533.309a28.316,28.316,0,0,1-3.9,6.2c-.345.439-2.1,2.418-3.519,4.491a2.008,2.008,0,0,1,.914,2.648,3.568,3.568,0,0,1-2.591,2.253,1.261,1.261,0,0,0,.756.46.137.137,0,0,1,.086.065c2.771-.511,6.815-6.2,8.14-7.794a102.11,102.11,0,0,0,6.131-8.651,14.029,14.029,0,0,1-.583-2.641c-.021-.209.317-.252.367-.05a19.033,19.033,0,0,0,3.412,7.168.265.265,0,0,1-.072.374c-.029.058-.072.115-.1.173a.276.276,0,0,1-.166.273c-2.2,3.577-9.586,11.839-6.347,15.869a4.1,4.1,0,0,1,.777-3.267c.979-1.166,2.03-.669,3.138-.065a2.739,2.739,0,0,1,.4-.576c2.526-5.973,9.262-9.3,15.358-10.363a.328.328,0,0,1,.086.007,4.552,4.552,0,0,0,2.44-2.612.248.248,0,0,1,.461.122,3.476,3.476,0,0,1-1.836,2.548.212.212,0,0,1,.051.1,125.182,125.182,0,0,1,.309,13.559c-.014,1.281.691,4.98-.424,6.118A36.021,36.021,0,0,0,211.636,328.794Zm-36.862-20.9c1.619-.59,3.67-1.288,5.16-.54a13.085,13.085,0,0,1-2.454-4.239A27.575,27.575,0,0,1,174.774,307.894Zm4.915.014c-1.691-.546-3.627.216-5.347.591-.8,1.115-1.655,2.187-2.541,3.238a7.021,7.021,0,0,0,4.419.763.4.4,0,0,1,.094.007C177.58,310.65,178.869,309.01,179.689,307.908Zm-2.36,14.164a5.607,5.607,0,0,1,.287-1.173,3.351,3.351,0,0,0-1.511-.612,1.825,1.825,0,0,0-1.389,1.044,4.655,4.655,0,0,0-.453,2.972,5.011,5.011,0,0,0,.993.691C176.882,325.2,177.141,323.3,177.329,322.072Zm-15.215-3.685c1.6-.389,3.815-3.239,1.569-4.275a.024.024,0,0,0-.014-.007C162.575,315.775,161.755,317.444,162.114,318.387Z"/>
      <path id="Path_139" data-name="Path 139" d="M203.676,303.324c3.34,8.3,3.851,17.438,7.96,25.47a36.021,36.021,0,0,1-17.013.655c1.115-1.138.41-4.837.424-6.118a125.182,125.182,0,0,0-.309-13.559.212.212,0,0,0-.051-.1,3.476,3.476,0,0,0,1.836-2.548.248.248,0,0,0-.461-.122,4.552,4.552,0,0,1-2.44,2.612.328.328,0,0,0-.086-.007c-6.1,1.058-12.832,4.39-15.358,10.363a2.739,2.739,0,0,0-.4.576c-1.108-.6-2.159-1.1-3.138.065a4.1,4.1,0,0,0-.777,3.267c-3.239-4.03,4.152-12.292,6.347-15.869a.276.276,0,0,0,.166-.273c.029-.058.072-.115.1-.173a.265.265,0,0,0,.072-.374,19.033,19.033,0,0,1-3.412-7.168c-.05-.2-.388-.159-.367.05a14.029,14.029,0,0,0,.583,2.641,102.11,102.11,0,0,1-6.131,8.651c-1.325,1.6-5.369,7.283-8.14,7.794a.137.137,0,0,0-.086-.065,1.261,1.261,0,0,1-.756-.46,3.568,3.568,0,0,0,2.591-2.253,2.008,2.008,0,0,0-.914-2.648c1.418-2.073,3.174-4.052,3.519-4.491a28.316,28.316,0,0,0,3.9-6.2c.158-.352-.367-.669-.533-.309a27.917,27.917,0,0,1-3.3,5.246c-1.519-2.331,2.2-5.088,3.3-6.8.979-1.518,1.432-5.225,3.39-5.692a.17.17,0,0,0,.072-.051c5.124.015,10.234.007,15.358.3C195.882,296.091,201.078,296.861,203.676,303.324Z" fill="#ebd7be"/>
      <path id="Path_140" data-name="Path 140" d="M179.934,307.354c-1.49-.748-3.541-.05-5.16.54a27.575,27.575,0,0,0,2.706-4.779A13.085,13.085,0,0,0,179.934,307.354Z" fill="#ebd7be"/>
      <path id="Path_141" data-name="Path 141" d="M174.342,308.5c1.72-.375,3.656-1.137,5.347-.591-.82,1.1-2.109,2.742-3.375,4.6a.4.4,0,0,0-.094-.007,7.021,7.021,0,0,1-4.419-.763C172.687,310.686,173.543,309.614,174.342,308.5Z" fill="#ebd7be"/>
      <path id="Path_142" data-name="Path 142" d="M177.616,320.9a5.607,5.607,0,0,0-.287,1.173c-.188,1.223-.447,3.123-2.073,2.922a5.011,5.011,0,0,1-.993-.691,4.655,4.655,0,0,1,.453-2.972,1.825,1.825,0,0,1,1.389-1.044A3.351,3.351,0,0,1,177.616,320.9Z" fill="#ebd7be"/>
      <path id="Path_143" data-name="Path 143" d="M163.683,314.112c2.246,1.036.029,3.886-1.569,4.275-.359-.943.461-2.612,1.555-4.282A.024.024,0,0,1,163.683,314.112Z" fill="#ebd7be"/>
    </g>
  </g>
</svg>
