<svg xmlns="http://www.w3.org/2000/svg" width="21.908" height="51.24" viewBox="0 0 21.908 51.24">
  <g id="R" transform="translate(-247.317 -279.907)">
    <g id="Group_37" data-name="Group 37">
      <path id="Path_144" data-name="Path 144" d="M267.644,307.465c1.813,2.6,1.7,6.131,1.425,9.154a15.224,15.224,0,0,1-.993,4.188,13.224,13.224,0,0,0-.454,9.083.312.312,0,0,1-.273.4.26.26,0,0,1-.209.209,26.21,26.21,0,0,1-7.413.59c-1.245-.079-4.138-.051-5.045-1.029a.2.2,0,0,1-.043-.159.346.346,0,0,1-.266-.41c1.18-5.707-4.052-11.479-5.837-16.74a18.971,18.971,0,0,1-.417-12.09.244.244,0,0,1,.014-.188c.029-.072.072-.136.108-.208.007-.015.014-.036.022-.051s.021-.028.028-.043a2.516,2.516,0,0,1,3.21-.842c-1.108-2.3,1.526-4.736,3.7-3.814a.156.156,0,0,1,.1.036c.007.007.007.014.015.014a2.931,2.931,0,0,1,.467.288c-.036-1.655.087-3.325.144-4.98a.156.156,0,0,0,.015-.058c-.367-.5-.742-.993-1.152-1.475-1.173-1.389-2.3-2.57-2.173-4.3a1.514,1.514,0,0,1,1.108-1.626,2.756,2.756,0,0,1,2.332.475.135.135,0,0,1,.173.021c.115.108.223.216.338.324a4.135,4.135,0,0,1,.6-3.591,1.917,1.917,0,0,1,2.49-.446c2.75,1.065,1.555,7.268,1.706,9.363a.271.271,0,0,1-.036.158,35.131,35.131,0,0,1,6.5,17.272.28.28,0,0,1-.324.3C267.55,307.349,267.6,307.4,267.644,307.465Zm.446,11.435a20.5,20.5,0,0,0,.432-5.678c-.151-4.62-2.339-6.981-6.182-9.068-.921-.5-1.929-1.2-2.973-1.886A.287.287,0,0,1,259,302.1c-.014-.029-.028-.058-.043-.094-.122-.072-.245-.151-.367-.223a.164.164,0,0,1,.051.144,1.9,1.9,0,0,1-2.5,1.591,5.749,5.749,0,0,1-3.159-1.728,4.83,4.83,0,0,0,1.777,2.973,16.858,16.858,0,0,0,4.52,2.079.189.189,0,0,1,.079.065.29.29,0,0,1,.317.267c.115,1.194,1.065,1.936,1.857,2.734.036-.021.072-.043.115-.064a.292.292,0,0,1,.3.5c-2.677,1.828-2.814,4.794-2.605,7.766.014.216-.346.266-.382.05-.453-2.771-.367-6.355,2.217-8.039a4.067,4.067,0,0,1-2.051-2.943,13.177,13.177,0,0,1-1.843-.454,1.98,1.98,0,0,1-2.857,1.785c-1.986-.727-3.418-3.267-4.3-5.037a.148.148,0,0,1,.259-.144,23.2,23.2,0,0,0,2.209,3.008,9.35,9.35,0,0,0,.871.9,4.049,4.049,0,0,0,.885.634,1.813,1.813,0,0,0,.871.244,3.527,3.527,0,0,1-1.648-1.741c-.151-.374-.324-.893-.036-1.245a.489.489,0,0,1,.381-.2,4.2,4.2,0,0,1-1.079-1.425,3.458,3.458,0,0,1-.187-3.065c-1.317-.821-3.088-1.246-4.081.287-.007.015-.022.022-.029.029-1.065,6.556.187,11.8,3.253,17.74,1.864,3.613,4.1,6.967,3.232,11.17a.365.365,0,0,1-.043.1.062.062,0,0,1-.022.1c.64-.2,1.95.273,2.648.374a27.582,27.582,0,0,0,2.987.259,29.708,29.708,0,0,0,6.333-.583c-.619-2.3-1.36-5.347-.46-7.636C266.974,320.995,267.68,320.426,268.09,318.9Zm-7.2-16.157c2.181,1.209,4.628,2.21,6.276,4.131-.763-8.866-5.383-15.545-10.767-22.252a.226.226,0,0,1-.129-.036,3.64,3.64,0,0,0-1.85-.8,1.564,1.564,0,0,0-1.238.554c-.28,3.008,2.814,5.275,4.369,7.643a21.479,21.479,0,0,1,2.828,6.045c.043.159-.209.274-.281.116a44.978,44.978,0,0,0-3.67-6.65c-.05,1.633-.079,3.281-.288,4.894a15.808,15.808,0,0,1,3.34,5.469C259.95,302.175,260.418,302.477,260.893,302.743Zm-.137-13.81c.015-2.3.756-6.837-1.022-8.277a.148.148,0,0,1-.108-.014,1.754,1.754,0,0,0-2.482,1.086,7.191,7.191,0,0,0-.152,2.8.151.151,0,0,1-.036.079A36.777,36.777,0,0,1,260.756,288.933Zm-2.511,13a.206.206,0,0,1,.331-.151,8.355,8.355,0,0,0-4.8-1.6,1.385,1.385,0,0,0-.777,1c.007.008.007.008.007.015.087.755,1.648,1.374,2.275,1.641C256.258,303.233,258.115,303.585,258.245,301.93Zm-1.533,4.793a.275.275,0,0,1,.05-.173,9.2,9.2,0,0,1-2.483-1.324.178.178,0,0,1-.158.115c-.576-.028-.065,1.044,0,1.166a4.49,4.49,0,0,0,.374.59,3.755,3.755,0,0,0,1.087.965A2.055,2.055,0,0,0,256.712,306.723Zm1.921-5.426a23.7,23.7,0,0,0-3.188-5.132,2.631,2.631,0,0,0-2.893.346,2.825,2.825,0,0,0-.626,2.929.1.1,0,0,1-.007.065,5.12,5.12,0,0,1,1,.619,2.056,2.056,0,0,1,1.3-.483.131.131,0,0,1,.144.094A7.072,7.072,0,0,1,258.633,301.3Z"/>
      <path id="Path_145" data-name="Path 145" d="M268.522,313.222a20.5,20.5,0,0,1-.432,5.678c-.41,1.526-1.116,2.1-1.619,3.39-.9,2.289-.159,5.34.46,7.636a29.708,29.708,0,0,1-6.333.583,27.582,27.582,0,0,1-2.987-.259c-.7-.1-2.008-.576-2.648-.374a.062.062,0,0,0,.022-.1.365.365,0,0,0,.043-.1c.871-4.2-1.368-7.557-3.232-11.17-3.066-5.944-4.318-11.184-3.253-17.74.007-.007.022-.014.029-.029.993-1.533,2.764-1.108,4.081-.287a3.458,3.458,0,0,0,.187,3.065,4.2,4.2,0,0,0,1.079,1.425.489.489,0,0,0-.381.2c-.288.352-.115.871.036,1.245a3.527,3.527,0,0,0,1.648,1.741,1.813,1.813,0,0,1-.871-.244,4.049,4.049,0,0,1-.885-.634,9.35,9.35,0,0,1-.871-.9,23.2,23.2,0,0,1-2.209-3.008.148.148,0,0,0-.259.144c.878,1.77,2.31,4.31,4.3,5.037a1.98,1.98,0,0,0,2.857-1.785,13.177,13.177,0,0,0,1.843.454,4.067,4.067,0,0,0,2.051,2.943c-2.584,1.684-2.67,5.268-2.217,8.039.036.216.4.166.382-.05-.209-2.972-.072-5.938,2.605-7.766a.292.292,0,0,0-.3-.5c-.043.021-.079.043-.115.064-.792-.8-1.742-1.54-1.857-2.734a.29.29,0,0,0-.317-.267.189.189,0,0,0-.079-.065,16.858,16.858,0,0,1-4.52-2.079,4.83,4.83,0,0,1-1.777-2.973,5.749,5.749,0,0,0,3.159,1.728,1.9,1.9,0,0,0,2.5-1.591.164.164,0,0,0-.051-.144c.122.072.245.151.367.223.015.036.029.065.043.094a.287.287,0,0,0,.367.165c1.044.684,2.052,1.382,2.973,1.886C266.183,306.241,268.371,308.6,268.522,313.222Z" fill="#ebd7be"/>
      <path id="Path_146" data-name="Path 146" d="M267.169,306.874c-1.648-1.921-4.1-2.922-6.276-4.131-.475-.266-.943-.568-1.41-.885a15.808,15.808,0,0,0-3.34-5.469c.209-1.613.238-3.261.288-4.894a44.978,44.978,0,0,1,3.67,6.65c.072.158.324.043.281-.116a21.479,21.479,0,0,0-2.828-6.045c-1.555-2.368-4.649-4.635-4.369-7.643a1.564,1.564,0,0,1,1.238-.554,3.64,3.64,0,0,1,1.85.8.226.226,0,0,0,.129.036C261.786,291.329,266.406,298.008,267.169,306.874Z" fill="#ebd7be"/>
      <path id="Path_147" data-name="Path 147" d="M259.734,280.656c1.778,1.44,1.037,5.981,1.022,8.277a36.777,36.777,0,0,0-3.8-4.326.151.151,0,0,0,.036-.079,7.191,7.191,0,0,1,.152-2.8,1.754,1.754,0,0,1,2.482-1.086A.148.148,0,0,0,259.734,280.656Z" fill="#ebd7be"/>
      <path id="Path_148" data-name="Path 148" d="M258.576,301.779a.206.206,0,0,0-.331.151c-.13,1.655-1.987,1.3-2.965.9-.627-.267-2.188-.886-2.275-1.641,0-.007,0-.007-.007-.015a1.385,1.385,0,0,1,.777-1A8.355,8.355,0,0,1,258.576,301.779Z" fill="#ebd7be"/>
      <path id="Path_149" data-name="Path 149" d="M256.762,306.55a.275.275,0,0,0-.05.173,2.055,2.055,0,0,1-1.13,1.339,3.755,3.755,0,0,1-1.087-.965,4.49,4.49,0,0,1-.374-.59c-.065-.122-.576-1.194,0-1.166a.178.178,0,0,0,.158-.115A9.2,9.2,0,0,0,256.762,306.55Z" fill="#ebd7be"/>
      <path id="Path_150" data-name="Path 150" d="M255.445,296.165a23.7,23.7,0,0,1,3.188,5.132,7.072,7.072,0,0,0-4.267-1.562.131.131,0,0,0-.144-.094,2.056,2.056,0,0,0-1.3.483,5.12,5.12,0,0,0-1-.619.1.1,0,0,0,.007-.065,2.825,2.825,0,0,1,.626-2.929A2.631,2.631,0,0,1,255.445,296.165Z" fill="#ebd7be"/>
    </g>
  </g>
</svg>
