<svg xmlns="http://www.w3.org/2000/svg" width="27.685" height="37.06" viewBox="0 0 27.685 37.06">
  <g id="S" transform="translate(-305.281 -294.087)">
    <g id="Group_39" data-name="Group 39">
      <path id="Path_151" data-name="Path 151" d="M332.843,305.7a.167.167,0,0,1,.115.2c-.065.187-.137.374-.2.561,0,.015-.008.036-.008.051s-.014.007-.014.021a28.725,28.725,0,0,1-4.2,7.542c-1.9,2.548-3.246,4.635-2.979,7.989a42.234,42.234,0,0,0,1.173,6.9.313.313,0,0,1-.13.36.365.365,0,0,1-.237.424,24.522,24.522,0,0,1-15.308.331.254.254,0,0,1-.187-.23.3.3,0,0,1-.079-.23c.172-2.275,1.05-5.657.59-7.895-.288-1.389-1.735-2.793-2.361-4.1-1.432-2.973-3.224-6.636-3.677-9.954-.576-4.239,2.828-10.521,7.736-7.528.166-1.4.871-2.339,2.382-2.029a3.18,3.18,0,0,1,2.325.828,2.84,2.84,0,0,1,.569-2.634,2.926,2.926,0,0,1,3.548-.54.164.164,0,0,1,.057.172.127.127,0,0,1-.158.072,3.343,3.343,0,0,0-3.1.792c-.72.821-.353,1.979-.115,2.929a11.091,11.091,0,0,0,2.814-1.418c.18-.129.353-.273.525-.424,0-.007-.007-.007-.014-.015a2.642,2.642,0,0,1,.115-1.907,3.187,3.187,0,0,1,2.44-1.864,3.3,3.3,0,0,1,3.541,3.131.27.27,0,0,1-.044.158c.519.691.958,1.483,1.361,2.08C330.446,301.133,332.821,303.472,332.843,305.7Zm-.453.583c-.152-1.957-1.685-3.62-2.757-5.2-.856-1.267-2.152-4.037-3.836-4.678-1.9.122-2.943,1.662-4.39,2.677a1.849,1.849,0,0,1-.273,2.6,3.843,3.843,0,0,1-3.664.4,2.223,2.223,0,0,0,1.987,1.339.151.151,0,0,1,.115.007,12.673,12.673,0,0,0,5.98-1.569.179.179,0,0,1,.18.309,9.39,9.39,0,0,1-1.525.958,3.652,3.652,0,0,0,1.633,1.979.3.3,0,0,1-.3.511,3.447,3.447,0,0,1-1.065-.943c-.749,1.187-1.8,2.166-3.332,1.77a2.5,2.5,0,0,1-.936-.475,2.879,2.879,0,0,1-1.756,2.037,3,3,0,0,1-3.325-.727,2.3,2.3,0,0,1-2.843,1.094c-1.792-.561-2.957-2.677-3.85-4.181-.115-.2.166-.418.317-.245.705.806,1.281,1.713,1.993,2.519,1.094,1.245,3.253,2.274,4.031.122a11.006,11.006,0,0,1-1.728-5.966.2.2,0,0,1-.072-.022c-6.4-2.835-7.729,4.959-6.52,9.162a48.479,48.479,0,0,0,3.123,7.557c.706,1.432,2.073,2.555,2.433,4.066.54,2.253-.36,5.93-.525,8.233a30.981,30.981,0,0,0,14.566-.532c-.842-3.39-2.1-8.075-.748-11.451.87-2.151,2.734-3.9,4.015-5.8A49.022,49.022,0,0,0,332.39,306.279Zm-7.255-10.335a2.294,2.294,0,0,1,2.145.684,2.6,2.6,0,0,0-3.088-1.842,2.973,2.973,0,0,0-1.972,2.857A5.635,5.635,0,0,1,325.135,295.944Zm-1.015,8.169.007-.007a4.1,4.1,0,0,1-.309-.806,7.782,7.782,0,0,1-4.066.734,2.1,2.1,0,0,0,1.907,1.893C322.882,306.006,323.545,305.041,324.12,304.113Zm-4-2.382a1.531,1.531,0,0,0,.9-2.4,10.365,10.365,0,0,1-1.345.705,10.976,10.976,0,0,0-2.4.864,3.339,3.339,0,0,0,.1.849A4.277,4.277,0,0,0,320.119,301.731Zm-.209,3.944a2.323,2.323,0,0,1-.633-1.713c-1.526-.324-2.778-1.5-2.411-3.167a.173.173,0,0,1,.151-.129c.151-.31.3-.389.684-.562.079-.036.158-.064.23-.1a3.274,3.274,0,0,0-2.173-1.433.3.3,0,0,1-.144.029c-3.714-.547-1.224,6.758.208,8.557a2.66,2.66,0,0,0,2.649.216A3.558,3.558,0,0,0,319.91,305.675Z"/>
      <path id="Path_152" data-name="Path 152" d="M329.633,301.076c1.072,1.583,2.605,3.246,2.757,5.2a49.022,49.022,0,0,1-3.074,5.542c-1.281,1.9-3.145,3.649-4.015,5.8-1.353,3.376-.094,8.061.748,11.451a30.981,30.981,0,0,1-14.566.532c.165-2.3,1.065-5.98.525-8.233-.36-1.511-1.727-2.634-2.433-4.066a48.479,48.479,0,0,1-3.123-7.557c-1.209-4.2.115-12,6.52-9.162a.2.2,0,0,0,.072.022,11.006,11.006,0,0,0,1.728,5.966c-.778,2.152-2.937,1.123-4.031-.122-.712-.806-1.288-1.713-1.993-2.519-.151-.173-.432.05-.317.245.893,1.5,2.058,3.62,3.85,4.181a2.3,2.3,0,0,0,2.843-1.094,3,3,0,0,0,3.325.727,2.879,2.879,0,0,0,1.756-2.037,2.5,2.5,0,0,0,.936.475c1.533.4,2.583-.583,3.332-1.77a3.447,3.447,0,0,0,1.065.943.3.3,0,0,0,.3-.511,3.652,3.652,0,0,1-1.633-1.979,9.39,9.39,0,0,0,1.525-.958.179.179,0,0,0-.18-.309,12.673,12.673,0,0,1-5.98,1.569.151.151,0,0,0-.115-.007,2.223,2.223,0,0,1-1.987-1.339,3.843,3.843,0,0,0,3.664-.4,1.849,1.849,0,0,0,.273-2.6c1.447-1.015,2.49-2.555,4.39-2.677C327.481,297.039,328.777,299.809,329.633,301.076Z" fill="#ebd7be"/>
      <path id="Path_153" data-name="Path 153" d="M327.28,296.628a2.294,2.294,0,0,0-2.145-.684,5.635,5.635,0,0,0-2.915,1.7,2.973,2.973,0,0,1,1.972-2.857A2.6,2.6,0,0,1,327.28,296.628Z" fill="#ebd7be"/>
      <path id="Path_154" data-name="Path 154" d="M324.127,304.106l-.007.007c-.575.928-1.238,1.893-2.461,1.814a2.1,2.1,0,0,1-1.907-1.893,7.782,7.782,0,0,0,4.066-.734A4.1,4.1,0,0,0,324.127,304.106Z" fill="#ebd7be"/>
      <path id="Path_155" data-name="Path 155" d="M321.961,295.944l.065.029a2.642,2.642,0,0,0-.115,1.907c.007.008.014.008.014.015-.172.151-.345.3-.525.424a11.091,11.091,0,0,1-2.814,1.418c-.238-.95-.605-2.108.115-2.929a3.343,3.343,0,0,1,3.1-.792A.127.127,0,0,0,321.961,295.944Z" fill="#ebd7be"/>
      <path id="Path_156" data-name="Path 156" d="M321.018,299.327a1.531,1.531,0,0,1-.9,2.4,4.277,4.277,0,0,1-2.749.014,3.339,3.339,0,0,1-.1-.849,10.976,10.976,0,0,1,2.4-.864A10.365,10.365,0,0,0,321.018,299.327Z" fill="#ebd7be"/>
      <path id="Path_157" data-name="Path 157" d="M319.277,303.962a2.323,2.323,0,0,0,.633,1.713,3.558,3.558,0,0,1-1.439,1.7,2.66,2.66,0,0,1-2.649-.216c-1.432-1.8-3.922-9.1-.208-8.557a.3.3,0,0,0,.144-.029A3.274,3.274,0,0,1,317.931,300c-.072.036-.151.064-.23.1-.389.173-.533.252-.684.562a.173.173,0,0,0-.151.129C316.5,302.458,317.751,303.638,319.277,303.962Z" fill="#ebd7be"/>
    </g>
  </g>
</svg>
