<svg xmlns="http://www.w3.org/2000/svg" width="26.09" height="41.488" viewBox="0 0 26.09 41.488">
  <g id="T" transform="translate(-365.4 -289.658)">
    <g id="Group_41" data-name="Group 41">
      <path id="Path_158" data-name="Path 158" d="M389.257,300.863c1.907,4.059,3.159,6.3,1.367,10.759-1.3,3.231-3.03,6.412-6.232,8.053h-.007a35.927,35.927,0,0,0,.6,9.853.328.328,0,0,1-.151.374.349.349,0,0,1-.245.223,23.922,23.922,0,0,1-14.3-.144.2.2,0,0,1-.137-.244.315.315,0,0,1-.079-.281,25.173,25.173,0,0,0-1.209-13.307c-1.043-2.7-3.066-5.153-3.411-8.1a8.062,8.062,0,0,1,3.663-7.758,3.4,3.4,0,0,1,1.555-.986c.028-.014.057-.029.093-.043a3.471,3.471,0,0,1,1.008-.086,3.784,3.784,0,0,1,4.735-1.317,3.176,3.176,0,0,1,.849-3.764,3.141,3.141,0,0,1,3.059-.634.149.149,0,0,0,.13.058,2.092,2.092,0,0,1,.539.381.194.194,0,0,1,.058.144,4.982,4.982,0,0,1,.468.569,5.329,5.329,0,0,0,.381-1.828c-.036-.72-.626-.576-.993-.964a.222.222,0,0,1-.043-.116c-.022.058-.05.108-.072.166a6.227,6.227,0,0,0-.209,1.5.148.148,0,0,1-.129.144,1.06,1.06,0,0,0-.13-.058.158.158,0,0,1-.036-.086c-.151-1.2.2-3.1,1.792-2.987a2.439,2.439,0,0,1,1.706,1.087,4.239,4.239,0,0,1,4.642-1.619c1.583.575,1.893,2.389,1.842,3.872a.153.153,0,0,1-.057.122,15.693,15.693,0,0,1-.785,6.017c-.093.3-.187.626-.3.964C389.235,300.841,389.25,300.848,389.257,300.863Zm.986,9.989c1.339-3.8-.122-6.1-1.209-9.478-.389.971-.965,1.835-2.066,1.741a.186.186,0,0,1-.158-.108,2.7,2.7,0,0,1-1.886-.158,2.7,2.7,0,0,1-4.339,2.3,2.562,2.562,0,0,1-1.778,2.807.185.185,0,0,1-.165-.015,2.7,2.7,0,0,1-3.4-.827,2.719,2.719,0,0,1-3.289.856,4.255,4.255,0,0,1-2.339-4.282.144.144,0,0,1,.288,0c.18,1.389.576,2.965,1.929,3.671a2.373,2.373,0,0,0,3.5-2.138c.172-2.368-1.26-5.635-3.937-5.563-3.649,1.713-6.2,4.987-5.174,9.262.547,2.3,2.108,4.325,3.008,6.485a25.645,25.645,0,0,1,1.482,14.228v.007a27.976,27.976,0,0,0,13.538-.245,23.288,23.288,0,0,1-.267-9.917c0-.007.008-.007.015-.014a.257.257,0,0,1,.122-.274A15.678,15.678,0,0,0,390.243,310.852Zm-.331-17.668a3.515,3.515,0,0,0-1.281-2.577c-1.5-.907-3.426.187-4.541,1.173a3.719,3.719,0,0,1,.5,1.36.165.165,0,0,1,.094.1,10.266,10.266,0,0,1,.187,4.239c-.2,1.231-.972,3.433-.13,4.477a2.8,2.8,0,0,1,1.785-3.3A1.979,1.979,0,0,1,388.991,300c.223-.784.367-1.554.467-2.022A26.748,26.748,0,0,0,389.912,293.184Zm-1.2,7.65a.155.155,0,0,1-.065-.144,1.549,1.549,0,0,0-2.512-1.3,2.954,2.954,0,0,0-.957,2.922,2.82,2.82,0,0,0,1.6.2.2.2,0,0,1,.194.086,2.833,2.833,0,0,0,.864-.424.146.146,0,0,1,.151-.015A4.447,4.447,0,0,0,388.71,300.834Zm-4.642-2.411a13.88,13.88,0,0,0,.324-4.671c-.461-.957-.641-2.036-1.605-2.648a1.205,1.205,0,0,0-1.742.453.158.158,0,0,1,.216.007c.4.382,1.037.238,1.116.922a5.388,5.388,0,0,1-.569,2.461,17.218,17.218,0,0,1,.864,1.756c.41.9.806,1.814,1.137,2.749C383.888,299.107,383.982,298.761,384.068,298.423Zm.209,4.081a.243.243,0,0,1,.021-.13,2.338,2.338,0,0,1-.568-1.087,2.376,2.376,0,0,1-.065-.439c-.425-1.216-.871-2.418-1.4-3.6a14.9,14.9,0,0,0-1.461-2.965.007.007,0,0,1-.007-.008,2.537,2.537,0,0,0-3.2.425,3.308,3.308,0,0,0-.691,3.224.159.159,0,0,1-.021.13,4.5,4.5,0,0,1,1.7,1.67,15.019,15.019,0,0,1,1.936,4.865,2.436,2.436,0,0,0,2.692.338A2.356,2.356,0,0,0,384.277,302.5Zm-5.362,4.9c2.433-1.31.31-5.139-.547-6.845-1.324-2.648-3.965-3.288-6.16-1.345,2.914.532,4.62,4.922,3.288,7.5-.014.029-.035.05-.05.079a2.476,2.476,0,0,0,3.2.6A.223.223,0,0,1,378.915,307.4Z"/>
      <path id="Path_159" data-name="Path 159" d="M389.034,301.374c1.087,3.382,2.548,5.678,1.209,9.478a15.678,15.678,0,0,1-6.132,8.341.257.257,0,0,0-.122.274c-.007.007-.015.007-.015.014a23.288,23.288,0,0,0,.267,9.917,27.976,27.976,0,0,1-13.538.245v-.007a25.645,25.645,0,0,0-1.482-14.228c-.9-2.16-2.461-4.189-3.008-6.485-1.022-4.275,1.525-7.549,5.174-9.262,2.677-.072,4.109,3.195,3.937,5.563a2.373,2.373,0,0,1-3.5,2.138c-1.353-.706-1.749-2.282-1.929-3.671a.144.144,0,0,0-.288,0,4.255,4.255,0,0,0,2.339,4.282,2.719,2.719,0,0,0,3.289-.856,2.7,2.7,0,0,0,3.4.827.185.185,0,0,0,.165.015,2.562,2.562,0,0,0,1.778-2.807,2.7,2.7,0,0,0,4.339-2.3,2.7,2.7,0,0,0,1.886.158.186.186,0,0,0,.158.108C388.069,303.209,388.645,302.345,389.034,301.374Z" fill="#ebd7be"/>
      <path id="Path_160" data-name="Path 160" d="M388.631,290.607a3.515,3.515,0,0,1,1.281,2.577,26.748,26.748,0,0,1-.454,4.793c-.1.468-.244,1.238-.467,2.022a1.979,1.979,0,0,0-2.462-1.346,2.8,2.8,0,0,0-1.785,3.3c-.842-1.044-.072-3.246.13-4.477a10.266,10.266,0,0,0-.187-4.239.165.165,0,0,0-.094-.1,3.719,3.719,0,0,0-.5-1.36C385.2,290.794,387.134,289.7,388.631,290.607Z" fill="#ebd7be"/>
      <path id="Path_161" data-name="Path 161" d="M388.645,300.69a.155.155,0,0,0,.065.144,4.447,4.447,0,0,1-.727,1.324.146.146,0,0,0-.151.015,2.833,2.833,0,0,1-.864.424.2.2,0,0,0-.194-.086,2.82,2.82,0,0,1-1.6-.2,2.954,2.954,0,0,1,.957-2.922A1.549,1.549,0,0,1,388.645,300.69Z" fill="#ebd7be"/>
      <path id="Path_162" data-name="Path 162" d="M384.392,293.752a13.88,13.88,0,0,1-.324,4.671c-.086.338-.18.684-.259,1.029-.331-.935-.727-1.849-1.137-2.749a17.218,17.218,0,0,0-.864-1.756,5.388,5.388,0,0,0,.569-2.461c-.079-.684-.713-.54-1.116-.922a.158.158,0,0,0-.216-.007,1.205,1.205,0,0,1,1.742-.453C383.751,291.716,383.931,292.8,384.392,293.752Z" fill="#ebd7be"/>
      <path id="Path_163" data-name="Path 163" d="M384.3,302.374a.243.243,0,0,0-.021.13,2.356,2.356,0,0,1-1.051,2.418,2.436,2.436,0,0,1-2.692-.338,15.019,15.019,0,0,0-1.936-4.865,4.5,4.5,0,0,0-1.7-1.67.159.159,0,0,0,.021-.13,3.308,3.308,0,0,1,.691-3.224,2.537,2.537,0,0,1,3.2-.425.007.007,0,0,0,.007.008,14.9,14.9,0,0,1,1.461,2.965c.525,1.187.971,2.389,1.4,3.6a2.376,2.376,0,0,0,.065.439A2.338,2.338,0,0,0,384.3,302.374Z" fill="#ebd7be"/>
      <path id="Path_164" data-name="Path 164" d="M381.995,292.788a5.329,5.329,0,0,1-.381,1.828,4.982,4.982,0,0,0-.468-.569.194.194,0,0,0-.058-.144,2.092,2.092,0,0,0-.539-.381.148.148,0,0,0,.129-.144,6.227,6.227,0,0,1,.209-1.5c.022-.058.05-.108.072-.166a.222.222,0,0,0,.043.116C381.369,292.212,381.959,292.068,381.995,292.788Z" fill="#ebd7be"/>
      <path id="Path_165" data-name="Path 165" d="M380.549,293.522a.149.149,0,0,1-.13-.058A1.06,1.06,0,0,1,380.549,293.522Z"/>
      <path id="Path_166" data-name="Path 166" d="M378.368,300.56c.857,1.706,2.98,5.535.547,6.845a.223.223,0,0,0-.273-.015,2.476,2.476,0,0,1-3.2-.6c.015-.029.036-.05.05-.079,1.332-2.577-.374-6.967-3.288-7.5C374.4,297.272,377.044,297.912,378.368,300.56Z" fill="#ebd7be"/>
    </g>
  </g>
</svg>
