<svg xmlns="http://www.w3.org/2000/svg" width="20.547" height="47.832" viewBox="0 0 20.547 47.832">
  <g id="U" transform="translate(-427.775 -283.315)">
    <g id="Group_43" data-name="Group 43">
      <path id="Path_167" data-name="Path 167" d="M446.45,302.263a27.472,27.472,0,0,1,1.749,12.076c-.561,5.11-3.678,10.025-1.159,15.106a.332.332,0,0,1-.029.339.348.348,0,0,1-.194.5c-4.138,1.418-8.392.857-12.587.007a.2.2,0,0,1-.115-.064.277.277,0,0,1-.187-.31c.251-1.9.295-3.749.374-5.649-2.649-2.836-10.932-16.2-3.512-18.115a.183.183,0,0,1,.136.029,1.976,1.976,0,0,1,.36-.014c-.943-2.347,1.44-4.974,3.836-3.865a2.177,2.177,0,0,1,.425-1.36c-2.217-3.239-2.972-7.672-4.11-11.379-.5-1.626-1.338-3.49-.64-5.023a1.416,1.416,0,0,1,1.331-1.216,2.444,2.444,0,0,1,2.066,1.115.22.22,0,0,1,.036.13,6.3,6.3,0,0,1,.568.741,1.677,1.677,0,0,1,.792-.82,1.929,1.929,0,0,1,1.137-.238c.015,0,.029-.007.043,0a.109.109,0,0,0,.051.015.9.9,0,0,1,.23.093c2.519,1.022,3.39,4.556,4.476,6.815A109.706,109.706,0,0,1,446.45,302.263Zm-.59,19.079c1.051-4.549,2.209-8.543,1.4-13.3a49.044,49.044,0,0,0-4.455-12.616c-1.36-2.908-2.95-8.593-5.735-10.6-.008,0-.008.007-.015.007-.216.014-.424-.065-.648-.05a1.509,1.509,0,0,0-.6.187,1.828,1.828,0,0,0-.713.8A32.672,32.672,0,0,1,436.7,289.6c1.36,3.317,2.656,6.678,3.707,10.111.1.338-.411.468-.526.144-.914-2.483-1.77-4.987-2.72-7.463-.972-2.519-1.785-5.851-3.548-7.945a2.253,2.253,0,0,0-1.137-.641,1.243,1.243,0,0,0-.878.173c-1.324,2.274.763,6.491,1.432,8.658a50.929,50.929,0,0,0,2.764,7.995,2.1,2.1,0,0,1,2.813-.158,6.677,6.677,0,0,1,1.915,2.756,8.119,8.119,0,0,0,2.951,3.4.245.245,0,0,1-.245.425,7.3,7.3,0,0,1-2.685-2.634c-.323-.54-.547-1.137-.827-1.7a2.071,2.071,0,0,1-2.08.77,3.121,3.121,0,0,1-1.979-1.482c-.3,2.706,3.692,7.067,4.685,8.867.086.158-.137.352-.266.2s-.238-.3-.367-.446c-.425-.533-.871-1.087-1.3-1.663a.154.154,0,0,1-.194.087c-1.253-.475-1.728,1.014-1.4,1.95a6.19,6.19,0,0,0,1.065,1.583c.008-.007.015,0,.022-.007a1.448,1.448,0,0,0,.626-.4.149.149,0,0,1,.094-.022,8.141,8.141,0,0,1,.655-1.453.252.252,0,0,1,.41-.051.275.275,0,0,1,.057.324,9.013,9.013,0,0,0,.871,9.349c.108.158-.129.331-.259.2a8.292,8.292,0,0,1-1.965-7.585,1.414,1.414,0,0,1-.46.137,1.186,1.186,0,0,1-.857-.274,2.052,2.052,0,0,1-.108,1.49.159.159,0,0,1,.065.237,2.544,2.544,0,0,1-3.454.562,7.689,7.689,0,0,1-3.275-4.325c-.058-.159.194-.267.274-.116.647,1.281,1.971,3.4,3.5,4.124a2.2,2.2,0,0,1-.892-2.087c.216-1.252,1.519-1.439,2.577-1.4-.4-.612-.842-1.159-1.116-1.541-1.058-1.489-2.173-3.209-4.2-3.015-5.455,3.217,1.562,14.178,4.325,17.107a.3.3,0,0,1,.015.4,14.057,14.057,0,0,1-.13,5.642c3.973.54,7.895,1.066,11.789-.208A11.992,11.992,0,0,1,445.86,321.342Zm-6.42-19.014a.3.3,0,0,1,.043-.044c-.035-.057-.064-.122-.107-.187-.627-1.014-2.088-2.152-3.2-1.382a.183.183,0,0,1-.043.159,1.951,1.951,0,0,0-.381.684C436.605,302.651,438.4,304.012,439.44,302.328Zm-3.21,7.52a1.532,1.532,0,0,1,1.936-1.187,20.554,20.554,0,0,1-2.612-4.412,6.867,6.867,0,0,1-.389-1.324.327.327,0,0,1-.108-.036,2.322,2.322,0,0,0-2.806.468,3.33,3.33,0,0,0-.619,2.842c1.533.26,2.7,1.951,3.562,3.217a22.07,22.07,0,0,1,1.36,2.109,6.873,6.873,0,0,1,.382.849.117.117,0,0,1,.144.029.8.8,0,0,0,.453.194,3.78,3.78,0,0,1-.979-1.072A2.308,2.308,0,0,1,436.23,309.848Zm-.014,4.858c.842-.82.4-2.029-.259-3.109a.14.14,0,0,1-.094.043c-.993.015-2.238.123-2.3,1.382-.051.893.705,1.5,1.374,1.994A2.171,2.171,0,0,0,436.216,314.706Z"/>
      <path id="Path_168" data-name="Path 168" d="M447.263,308.042c.806,4.757-.352,8.751-1.4,13.3a11.992,11.992,0,0,0,.576,8.334c-3.894,1.274-7.816.748-11.789.208a14.057,14.057,0,0,0,.13-5.642.3.3,0,0,0-.015-.4c-2.763-2.929-9.78-13.89-4.325-17.107,2.03-.194,3.145,1.526,4.2,3.015.274.382.712.929,1.116,1.541-1.058-.036-2.361.151-2.577,1.4a2.2,2.2,0,0,0,.892,2.087c-1.533-.72-2.857-2.843-3.5-4.124-.08-.151-.332-.043-.274.116a7.689,7.689,0,0,0,3.275,4.325,2.544,2.544,0,0,0,3.454-.562.159.159,0,0,0-.065-.237,2.052,2.052,0,0,0,.108-1.49,1.186,1.186,0,0,0,.857.274,1.414,1.414,0,0,0,.46-.137,8.292,8.292,0,0,0,1.965,7.585c.13.13.367-.043.259-.2a9.013,9.013,0,0,1-.871-9.349.275.275,0,0,0-.057-.324l.029-.021c.129.151.244.3.367.446s.352-.043.266-.2c-.993-1.8-4.98-6.161-4.685-8.867a3.121,3.121,0,0,0,1.979,1.482,2.071,2.071,0,0,0,2.08-.77c.28.562.5,1.159.827,1.7a7.3,7.3,0,0,0,2.685,2.634.245.245,0,0,0,.245-.425,8.119,8.119,0,0,1-2.951-3.4,6.677,6.677,0,0,0-1.915-2.756,2.1,2.1,0,0,0-2.813.158,50.929,50.929,0,0,1-2.764-7.995c-.669-2.167-2.756-6.384-1.432-8.658a1.243,1.243,0,0,1,.878-.173,2.253,2.253,0,0,1,1.137.641c1.763,2.094,2.576,5.426,3.548,7.945.95,2.476,1.806,4.98,2.72,7.463.115.324.626.194.526-.144-1.051-3.433-2.347-6.794-3.707-10.111a32.672,32.672,0,0,0-1.605-3.836,1.828,1.828,0,0,1,.713-.8,1.509,1.509,0,0,1,.6-.187c.224-.015.432.064.648.05.007,0,.007-.007.015-.007,2.785,2.008,4.375,7.693,5.735,10.6A49.044,49.044,0,0,1,447.263,308.042Z" fill="#ebd7be"/>
      <path id="Path_169" data-name="Path 169" d="M439.707,310.633l-.029.021a.252.252,0,0,0-.41.051,8.141,8.141,0,0,0-.655,1.453.149.149,0,0,0-.094.022,1.448,1.448,0,0,1-.626.4c-.007.007-.014,0-.022.007a6.19,6.19,0,0,1-1.065-1.583c-.324-.936.151-2.425,1.4-1.95a.154.154,0,0,0,.194-.087C438.836,309.546,439.282,310.1,439.707,310.633Z" fill="#ebd7be"/>
      <path id="Path_170" data-name="Path 170" d="M439.483,302.284a.3.3,0,0,0-.043.044c-1.043,1.684-2.835.323-3.684-.77a1.951,1.951,0,0,1,.381-.684.183.183,0,0,0,.043-.159c1.108-.77,2.569.368,3.2,1.382C439.419,302.162,439.448,302.227,439.483,302.284Z" fill="#ebd7be"/>
      <path id="Path_171" data-name="Path 171" d="M438.166,308.661a1.532,1.532,0,0,0-1.936,1.187,2.308,2.308,0,0,0,.324,1.677,22.07,22.07,0,0,0-1.36-2.109c-.863-1.266-2.029-2.957-3.562-3.217a3.33,3.33,0,0,1,.619-2.842,2.322,2.322,0,0,1,2.806-.468.327.327,0,0,0,.108.036,6.867,6.867,0,0,0,.389,1.324A20.554,20.554,0,0,0,438.166,308.661Z" fill="#ebd7be"/>
      <path id="Path_172" data-name="Path 172" d="M435.957,311.6c.662,1.08,1.1,2.289.259,3.109a2.171,2.171,0,0,1-1.274.31c-.669-.49-1.425-1.1-1.374-1.994.057-1.259,1.3-1.367,2.3-1.382A.14.14,0,0,0,435.957,311.6Z" fill="#ebd7be"/>
    </g>
  </g>
</svg>
