<svg xmlns="http://www.w3.org/2000/svg" width="19.183" height="47.905" viewBox="0 0 19.183 47.905">
  <g id="V" transform="translate(-101.59 -363.287)">
    <g id="Group_45" data-name="Group 45">
      <path id="Path_173" data-name="Path 173" d="M120.758,368.327c.18,4.2-1.3,8.154-1.433,12.343-.151,4.6.2,9.154-.388,13.739-.67,5.253-1.749,10.277-.079,15.458a.3.3,0,0,1-.065.3.317.317,0,0,1-.166.532,23.9,23.9,0,0,1-12.306-.669.24.24,0,0,1-.173-.238.358.358,0,0,1-.058-.388,10.007,10.007,0,0,0,1.051-4.347c-.007-1.051-.18-2.073-.144-3.117a.281.281,0,0,1-.172-.086,18.739,18.739,0,0,1-4.945-10.09c-.36-2.375-.734-6.628,1.2-8.571a.257.257,0,0,1,.072-.31,1.6,1.6,0,0,1,2.253.317c-.418-1.871-.518-5.47,1.856-4.9a2.143,2.143,0,0,1,1.123-1.67,44.956,44.956,0,0,1-1.893-10c-.115-1.526.08-3.059,1.792-3.34a.138.138,0,0,1,.123.036c1.31-.093,1.864,1.656,2.209,2.886,1.216,4.318,1.814,8.579,3.4,12.8a55.584,55.584,0,0,1,2.1-10.838c.5-1.763,1.108-3.591,3.238-3.382a.243.243,0,0,1,.231.244C120.714,365.549,120.7,366.917,120.758,368.327Zm-.792,3.275a13.113,13.113,0,0,0,.158-3.275c-.086-.719-.381-2.5-1.122-3.022-3.527.791-4.247,11.788-4.743,14.472,0,.022-.022.036-.029.051a.353.353,0,0,1-.561.043.424.424,0,0,1-.058-.094,50.844,50.844,0,0,1-2.389-7.3c-.338-1.382-1.022-8.838-3.145-8.759-2.325,1.54.324,10.407.669,12.767a2.913,2.913,0,0,1,.54-.115.168.168,0,0,1,.151.065c.892-.065,1.6.676,2.159,1.49a21.652,21.652,0,0,0,1.756,2.245,13.87,13.87,0,0,0,3.4,2.771.286.286,0,0,1,.151.252.314.314,0,0,1-.468.281,14.5,14.5,0,0,1-3.389-2.627,13.961,13.961,0,0,1-1.3-1.6l-.043-.065a1.48,1.48,0,0,1-1.663.633,4.092,4.092,0,0,1-2.123-1.871c-.554,1.555,1.1,4.059,1.8,5.024a26.372,26.372,0,0,0,2.886,3.181.2.2,0,0,1,.015.259.244.244,0,0,1-.007.223,10.428,10.428,0,0,0-1.72,4.6.177.177,0,0,1-.353,0,7.661,7.661,0,0,1,.288-2.31,6.142,6.142,0,0,1,1.36-2.577,12.568,12.568,0,0,1-1.3-1.051,20.41,20.41,0,0,1,.029,2.965,3.2,3.2,0,0,1-.108.655,1.574,1.574,0,0,1-.6.893,2.087,2.087,0,0,1-2.4-.187,1.564,1.564,0,0,1-.7,1.317.212.212,0,0,1-.13.28c-2.18.691-3.332-2.058-3.663-3.684a.168.168,0,0,1,.324-.087,11.3,11.3,0,0,0,.936,1.972,3.9,3.9,0,0,1-.166-.756,2.059,2.059,0,0,1,.166-1.345,1.741,1.741,0,0,1,1.36-.432c.173,0,.345.014.482.021a2.317,2.317,0,0,1,.381-.014c-.59-1.972-1.806-3.893-3.137-3.692-4.081,5.081.086,14.164,3.612,18.2a.321.321,0,0,1,.029.05.225.225,0,0,1,.187.216c.245,2.814.634,5.333-.712,7.931a31.362,31.362,0,0,0,11.465.454c0-.008-.008-.008-.008-.015-2.295-7.153.439-14.465.483-21.749.007-1.7-.044-3.4-.058-5.1a41.471,41.471,0,0,1,.367-6.679C119.268,374.862,119.75,373.257,119.966,371.6Zm-8.485,7.254c-.094-.144-.187-.28-.274-.424a4.088,4.088,0,0,0-2.2-1.526,1.792,1.792,0,0,0-.964.763c.806.871,2.382,2.8,3.411,1.209C111.459,378.863,111.474,378.863,111.481,378.856Zm-1.116,9c0-.3-.007-.6-.014-.9a.181.181,0,0,1-.144-.115c-.5-1.31-2.735-.821-2.785.352a8.606,8.606,0,0,1,.381,1.879,1.637,1.637,0,0,0,1.843.331C110.293,389.119,110.358,388.536,110.365,387.86Zm-.036-3.088v-.007a12.6,12.6,0,0,1-2.8-4.318,4.684,4.684,0,0,1-.3-1.62c-2.224-.352-1.368,3.707-1.332,4.981a11.281,11.281,0,0,1,1.144,2.295c.058.152.123.324.188.519a2.008,2.008,0,0,1,3.1-.353C110.308,385.765,110.3,385.269,110.329,384.772Zm-3.742,5.995c.705-.432.705-2,.281-3.6-.151-.007-.295-.014-.439-.007-.008,0-.015.007-.022.007h-.043a3.55,3.55,0,0,0-.526.08.088.088,0,0,1-.1-.029,1.033,1.033,0,0,0-.943.727,2.641,2.641,0,0,0,.122,1.058,2.733,2.733,0,0,0,1.116,1.641A2.659,2.659,0,0,0,106.587,390.767Z"/>
      <path id="Path_174" data-name="Path 174" d="M120.124,368.327a13.113,13.113,0,0,1-.158,3.275c-.216,1.655-.7,3.26-.95,4.908a41.471,41.471,0,0,0-.367,6.679l-1.749.007a.286.286,0,0,0-.151-.252,13.87,13.87,0,0,1-3.4-2.771l.317-.3a.353.353,0,0,0,.561-.043c.007-.015.029-.029.029-.051.5-2.684,1.216-13.681,4.743-14.472C119.743,365.823,120.038,367.608,120.124,368.327Z" fill="#ebd7be"/>
      <path id="Path_175" data-name="Path 175" d="M118.649,383.189c.014,1.705.065,3.4.058,5.1-.044,7.284-2.778,14.6-.483,21.749,0,.007.008.007.008.015a31.362,31.362,0,0,1-11.465-.454c1.346-2.6.957-5.117.712-7.931a.225.225,0,0,0-.187-.216.321.321,0,0,0-.029-.05c-3.526-4.037-7.693-13.12-3.612-18.2,1.331-.2,2.547,1.72,3.137,3.692a2.317,2.317,0,0,0-.381.014c-.137-.007-.309-.021-.482-.021a1.741,1.741,0,0,0-1.36.432,2.059,2.059,0,0,0-.166,1.345,3.9,3.9,0,0,0,.166.756,11.3,11.3,0,0,1-.936-1.972.168.168,0,0,0-.324.087c.331,1.626,1.483,4.375,3.663,3.684a.212.212,0,0,0,.13-.28,1.564,1.564,0,0,0,.7-1.317,2.087,2.087,0,0,0,2.4.187,1.574,1.574,0,0,0,.6-.893l.022.008a7.661,7.661,0,0,0-.288,2.31.177.177,0,0,0,.353,0,10.428,10.428,0,0,1,1.72-4.6.244.244,0,0,0,.007-.223.2.2,0,0,0-.015-.259,26.372,26.372,0,0,1-2.886-3.181c-.7-.965-2.353-3.469-1.8-5.024a4.092,4.092,0,0,0,2.123,1.871,1.48,1.48,0,0,0,1.663-.633l.043.065a13.961,13.961,0,0,0,1.3,1.6,14.5,14.5,0,0,0,3.389,2.627.314.314,0,0,0,.468-.281Z" fill="#ebd7be"/>
      <path id="Path_176" data-name="Path 176" d="M113.611,379.777a.424.424,0,0,0,.058.094l-.317.3a21.652,21.652,0,0,1-1.756-2.245c-.561-.814-1.267-1.555-2.159-1.49a.168.168,0,0,0-.151-.065,2.913,2.913,0,0,0-.54.115c-.345-2.36-2.994-11.227-.669-12.767,2.123-.079,2.807,7.377,3.145,8.759A50.844,50.844,0,0,0,113.611,379.777Z" fill="#ebd7be"/>
      <path id="Path_177" data-name="Path 177" d="M111.207,378.432c.087.144.18.28.274.424-.007.007-.022.007-.029.022-1.029,1.59-2.605-.338-3.411-1.209a1.792,1.792,0,0,1,.964-.763A4.088,4.088,0,0,1,111.207,378.432Z" fill="#ebd7be"/>
      <path id="Path_178" data-name="Path 178" d="M110.876,385.3a12.568,12.568,0,0,0,1.3,1.051,6.142,6.142,0,0,0-1.36,2.577l-.022-.008a3.2,3.2,0,0,0,.108-.655A20.41,20.41,0,0,0,110.876,385.3Z" fill="#ebd7be"/>
      <path id="Path_179" data-name="Path 179" d="M110.351,386.96c.007.3.014.6.014.9-.007.676-.072,1.259-.719,1.547a1.637,1.637,0,0,1-1.843-.331,8.606,8.606,0,0,0-.381-1.879c.05-1.173,2.288-1.662,2.785-.352A.181.181,0,0,0,110.351,386.96Z" fill="#ebd7be"/>
      <path id="Path_180" data-name="Path 180" d="M110.329,384.765v.007c-.028.5-.021.993,0,1.5a2.008,2.008,0,0,0-3.1.353c-.065-.2-.13-.367-.188-.519a11.281,11.281,0,0,0-1.144-2.295c-.036-1.274-.892-5.333,1.332-4.981a4.684,4.684,0,0,0,.3,1.62A12.6,12.6,0,0,0,110.329,384.765Z" fill="#ebd7be"/>
      <path id="Path_181" data-name="Path 181" d="M106.868,387.168c.424,1.6.424,3.167-.281,3.6a2.659,2.659,0,0,1-.554-.122A2.733,2.733,0,0,1,104.917,389a2.641,2.641,0,0,1-.122-1.058,1.033,1.033,0,0,1,.943-.727.088.088,0,0,0,.1.029,3.55,3.55,0,0,1,.526-.08h.043c.007,0,.014-.007.022-.007C106.573,387.154,106.717,387.161,106.868,387.168Z" fill="#ebd7be"/>
    </g>
  </g>
</svg>
