<svg xmlns="http://www.w3.org/2000/svg" width="21.814" height="51.231" viewBox="0 0 21.814 51.231">
  <g id="W" transform="translate(-173.719 -359.961)">
    <g id="Group_47" data-name="Group 47">
      <path id="Path_182" data-name="Path 182" d="M194.324,362.943c1.626,1.13,1.223,3.462.978,5.312-.626,4.771-2.54,9.284-2.72,14.127-.165,4.383,1.447,8.643,1.159,13.041-.324,4.865-2.742,9.356-.979,14.235a.293.293,0,0,1-.173.4.352.352,0,0,1-.172.129,18.086,18.086,0,0,1-11.825.029.253.253,0,0,1-.165-.244c-.2.043-.432-.058-.4-.317a14,14,0,0,0-1.159-8.212c-.921-1.892-2.08-3.649-2.951-5.577a21.067,21.067,0,0,1-2.2-9.291c.065-1.958,1.317-6.938,3.671-7.406a59.426,59.426,0,0,1-2.181-10.759c-.216-1.627-.964-4.059.979-4.657,2.929-1.446,4.433,5.621,5.11,10.169.244,1.627.381,2.93.446,3.419.036.3-.482.367-.533.072-.353-2.152-.712-4.3-1.18-6.42-.23-1.036-1.144-7.125-3.5-6.966-.014.014-.022.036-.05.05-2.634,1.015.705,12.228,1.281,15.063a2.817,2.817,0,0,1,1.835.835.025.025,0,0,0,.007.015,1.867,1.867,0,0,1,.23-.152c.907-.871,2.275-.568,3.3.159,2.043,1.461,3.137,3.828,5.347,5.138a.287.287,0,0,1-.288.5,11.542,11.542,0,0,1-3.052-2.706c-.532-.619-1.036-1.267-1.619-1.843-.245-.237-.5-.5-.777-.712.885,1.238,1.957,3.145-.029,3.692-1.209.331-2.461-.576-3.145-1.684.943,2.663,5.024,6.376,5.477,8.291a.138.138,0,0,1-.05.129.3.3,0,0,1-.029.173,9.579,9.579,0,0,0-.526,7.974c.044.115-.144.187-.194.086a9.084,9.084,0,0,1,.2-8.355.272.272,0,0,1,.187-.144,32.643,32.643,0,0,0-2.555-3.39c-.123,1.31-1.857,1.5-2.843.842a6.976,6.976,0,0,1-2.49-4.815.17.17,0,0,1,.331-.043,9.582,9.582,0,0,0,1.367,3.023,4.251,4.251,0,0,0,1.03,1.231,1.929,1.929,0,0,0,.561.28,3.247,3.247,0,0,1-1.288-2.13,1.427,1.427,0,0,1,.748-1.511,4.72,4.72,0,0,1-.568-1.058,2.593,2.593,0,0,1,.381-2.721c-5.484-2.936-4.973,8.558-4.491,10.637a30.935,30.935,0,0,0,3.073,7.478c2.224,4.145,3.318,6.477,2.821,11.3a.349.349,0,0,1-.028.1h.028a23.182,23.182,0,0,0,11.256-.166c-1.072-3.2-.5-6.232.238-9.478,1.094-4.75.662-8.507.021-13.278a26.881,26.881,0,0,1,.375-9.507c.395-1.857.914-3.685,1.345-5.535.281-1.223.519-2.425.684-3.67.173-1.3.461-4.1-.871-5.045-2.814-.051-3.8,6.859-4.275,8.607a22.844,22.844,0,0,1-2.475,6.341c-.094.144-.353.05-.281-.115.029-.08.058-.152.086-.231h.008c1.547-4,2.374-8.168,3.821-12.2.6-1.67,1.483-3.448,3.527-2.821A.217.217,0,0,1,194.324,362.943ZM182.2,383.7c1.317-.022,1.353-1.324.806-2.2-.331-.54-.755-1.029-1.13-1.54a2.53,2.53,0,0,0-2.137.4h-.015a1.482,1.482,0,0,0-.338.82C179.808,382.31,180.973,383.721,182.2,383.7Zm-.561,2.908c-.13-.159-.259-.31-.389-.468-.453-.547-1.022-1.137-1.5-1.771-.907.267-.446,1.663-.086,2.253a4.3,4.3,0,0,0,1,1.1.91.91,0,0,0,.893-.935A.277.277,0,0,1,181.643,386.607Z"/>
      <path id="Path_183" data-name="Path 183" d="M193.762,363.073c1.332.95,1.044,3.749.871,5.045-.165,1.245-.4,2.447-.684,3.67-.431,1.85-.95,3.678-1.345,5.535a26.881,26.881,0,0,0-.375,9.507c.641,4.771,1.073,8.528-.021,13.278-.742,3.246-1.31,6.276-.238,9.478a23.182,23.182,0,0,1-11.256.166h-.028a.349.349,0,0,0,.028-.1c.5-4.822-.6-7.154-2.821-11.3a30.935,30.935,0,0,1-3.073-7.478c-.482-2.079-.993-13.573,4.491-10.637a2.593,2.593,0,0,0-.381,2.721,4.72,4.72,0,0,0,.568,1.058,1.427,1.427,0,0,0-.748,1.511,3.247,3.247,0,0,0,1.288,2.13,1.929,1.929,0,0,1-.561-.28,4.251,4.251,0,0,1-1.03-1.231,9.582,9.582,0,0,1-1.367-3.023.17.17,0,0,0-.331.043,6.976,6.976,0,0,0,2.49,4.815c.986.662,2.72.468,2.843-.842a32.643,32.643,0,0,1,2.555,3.39.272.272,0,0,0-.187.144,9.084,9.084,0,0,0-.2,8.355c.05.1.238.029.194-.086a9.579,9.579,0,0,1,.526-7.974A.3.3,0,0,0,185,390.8a.138.138,0,0,0,.05-.129c-.453-1.915-4.534-5.628-5.477-8.291.684,1.108,1.936,2.015,3.145,1.684,1.986-.547.914-2.454.029-3.692.273.216.532.475.777.712.583.576,1.087,1.224,1.619,1.843a11.542,11.542,0,0,0,3.052,2.706.287.287,0,0,0,.288-.5c-2.21-1.31-3.3-3.677-5.347-5.138-1.022-.727-2.39-1.03-3.3-.159a1.867,1.867,0,0,0-.23.152.025.025,0,0,1-.007-.015,2.817,2.817,0,0,0-1.835-.835c-.576-2.835-3.915-14.048-1.281-15.063.028-.014.036-.036.05-.05,2.361-.159,3.275,5.93,3.5,6.966.468,2.123.827,4.268,1.18,6.42.051.3.569.23.533-.072-.065-.489-.2-1.792-.446-3.419h.007c.165,1.167.367,2.3.583,3.4a.161.161,0,0,0,.316-.044c-.144-1.878-2.087-16.481,1.166-16.783,3.606,1.13,2.706,14.452,2.836,17.042a.319.319,0,0,0,.6.137l.007.007c-.028.079-.057.151-.086.231-.072.165.187.259.281.115a22.844,22.844,0,0,0,2.475-6.341C189.962,369.932,190.948,363.022,193.762,363.073Z" fill="#ebd7be"/>
      <path id="Path_184" data-name="Path 184" d="M186.839,377.531a.269.269,0,0,1-.029.137.319.319,0,0,1-.6-.137c-.13-2.59.77-15.912-2.836-17.042-3.253.3-1.31,14.9-1.166,16.783a.161.161,0,0,1-.316.044c-.216-1.1-.418-2.231-.583-3.4a40.559,40.559,0,0,1-.238-11.025c.231-1.641.6-3.289,2.6-2.864a.193.193,0,0,1,.123.086c1.684.4,2.144,2.62,2.382,4.3C186.781,368.7,186.652,373.206,186.839,377.531Z"/>
      <path id="Path_185" data-name="Path 185" d="M183.01,381.5c.547.878.511,2.18-.806,2.2-1.231.022-2.4-1.389-2.814-2.526a1.482,1.482,0,0,1,.338-.82h.015a2.53,2.53,0,0,1,2.137-.4C182.255,380.468,182.679,380.957,183.01,381.5Z" fill="#ebd7be"/>
      <path id="Path_186" data-name="Path 186" d="M181.254,386.139c.13.158.259.309.389.468a.277.277,0,0,0-.079.18.91.91,0,0,1-.893.935,4.3,4.3,0,0,1-1-1.1c-.36-.59-.821-1.986.086-2.253C180.232,385,180.8,385.592,181.254,386.139Z" fill="#ebd7be"/>
    </g>
  </g>
</svg>
