<svg xmlns="http://www.w3.org/2000/svg" width="23.01" height="44.16" viewBox="0 0 23.01 44.16">
  <g id="X" transform="translate(-246.58 -367.033)">
    <g id="Group_49" data-name="Group 49">
      <path id="Path_187" data-name="Path 187" d="M258.161,373.86a3.262,3.262,0,0,1,2.07,3.723,12.52,12.52,0,0,0-5.026-1.136A2.312,2.312,0,0,1,258.161,373.86Z" fill="#ebd7be"/>
      <path id="Path_188" data-name="Path 188" d="M254.162,393.721a4.647,4.647,0,0,1-.86-.665c-.434-.471-.517-1.321.241-1.524a2.4,2.4,0,0,1,2.18.794h.009a1.985,1.985,0,0,1-1.053,1.33,1.133,1.133,0,0,1-.517.074Z" fill="#ebd7be"/>
      <path id="Path_189" data-name="Path 189" d="M256.7,391.356c-.49-.452-1.21-1.644-.36-2.134.785-.452,1.764.361,2.041,1.053a.17.17,0,0,0,.129.12,1.75,1.75,0,0,1-.452.693,1.525,1.525,0,0,1-1.34.416A.115.115,0,0,0,256.7,391.356Z" fill="#ebd7be"/>
      <path id="Path_190" data-name="Path 190" d="M256.074,388.908c-.906.573-.416,1.894.277,2.485a2.054,2.054,0,0,1-.379-.194.119.119,0,0,0-.046-.139c-1.487-.9-6.374-11.232-3.806-11.472a2.3,2.3,0,0,0,.268.378,7.915,7.915,0,0,0,2.762,1.829c.268.12.536.25.794.37,0,.018-.009.028-.009.037.028,1.773.213,4.175,1.469,5.552a3.511,3.511,0,0,0,.859.563,6.111,6.111,0,0,1,.333,1.589C258.115,389.075,256.988,388.317,256.074,388.908Z" fill="#ebd7be"/>
      <path id="Path_191" data-name="Path 191" d="M259.371,385.832a8.036,8.036,0,0,0,.6,2.116.178.178,0,0,0-.231.11,1.128,1.128,0,0,1-1.275-.037.229.229,0,0,0-.009-.073,2.253,2.253,0,0,1-.342-1.469.735.735,0,0,1,1-.536A.176.176,0,0,0,259.371,385.832Z" fill="#ebd7be"/>
      <path id="Path_192" data-name="Path 192" d="M256.776,385.4c-.259-1.016-.407-2.069-.564-3.1,1.044.49,2.088.961,3.15,1.395a7.757,7.757,0,0,0-.009,2.014.155.155,0,0,0-.065-.074,1.037,1.037,0,0,0-1.395.4,1.609,1.609,0,0,0,.093,1.672,2.576,2.576,0,0,1-.564-.656A5.408,5.408,0,0,1,256.776,385.4Z" fill="#ebd7be"/>
      <path id="Path_193" data-name="Path 193" d="M261.08,389.73a1.692,1.692,0,0,0-.1.185c-.028.055.046.111.083.046a1.213,1.213,0,0,0,.083-.147.125.125,0,0,1,.028.036c.083.093.231-.027.175-.129a.741.741,0,0,1-.037-.065.034.034,0,0,0,.028.01.134.134,0,0,0,0-.268.112.112,0,0,0-.12.092,10.226,10.226,0,0,1-1.423-5.653.173.173,0,0,0,.047-.3.244.244,0,0,1-.074-.037.217.217,0,0,0-.194-.1c-1.358-.73-2.772-1.368-4.166-2.042a12.267,12.267,0,0,1-1.663-.878,4.517,4.517,0,0,1-1.728-2.207c.3,1.256-.79-.776.143-.859a2.46,2.46,0,0,1,2.83-.5c.5-.656,1.688,0,1.785.318a.149.149,0,0,0-.157-.129v-.019a10.264,10.264,0,0,1,4.9,1.866c2.1,1.561,3.38,4.194,4.8,6.346a.275.275,0,0,0,.5-.129l1.145-.037c.037.924.056,1.847.046,2.79-.083,7.343-6.17,14.142-3,21.532a.182.182,0,0,0,.046.065,15.2,15.2,0,0,1-11.565-.019.193.193,0,0,0,.046-.12c.259-2.087.527-4.3-.249-6.318-.674-1.755-2.125-2.818-3.344-4.166a12.3,12.3,0,0,1-2.725-7.686c-.166-2.6-.748-9.376,3.64-8.508a.183.183,0,0,0,.157-.055,20.675,20.675,0,0,0,4.1,8.12.167.167,0,0,0,0,.148,1.892,1.892,0,0,0,.647.7c.009.093.018.176.018.268-.757-.655-2.143-1.2-2.928-.378-.758.785-.028,1.644.72,2.124a3.529,3.529,0,0,1-.711-.3,7.547,7.547,0,0,1-2.023-2,19.753,19.753,0,0,1-2.069-3.778c-.065-.12-.24-.028-.213.092.453,2.273,2.31,5.432,4.573,6.319,1.58.619,3.381-.434,3.03-2.143a2.142,2.142,0,0,0,2.023-.24c1.1-.823.933-2.014.443-3.076.684.277,1.4.36,1.46-.305A7.458,7.458,0,0,0,261.08,389.73Z" fill="#ebd7be"/>
      <path id="Path_194" data-name="Path 194" d="M261.866,378.488a.161.161,0,0,0,.258-.037,20.81,20.81,0,0,0,1.857-7.26,4.915,4.915,0,0,0,1.33.175,2.809,2.809,0,0,0,2.6-1.247c.083-.148-.12-.258-.222-.129-1.339,1.792-6.336.961-5.357-1.848v-.009c2.032-1.5,5.856-.332,6.54,2.134.536,1.931-.37,4.138-.7,6.032a42.138,42.138,0,0,0-.213,8.822l-1.145.037a.209.209,0,0,0-.046-.139c-1.451-2.2-2.79-4.859-4.952-6.475Z" fill="#ebd7be"/>
      <path id="Path_195" data-name="Path 195" d="M253.3,393.056a4.647,4.647,0,0,0,.86.665v.009a1.133,1.133,0,0,0,.517-.074,1.985,1.985,0,0,0,1.053-1.33h-.009a2.4,2.4,0,0,0-2.18-.794C252.785,391.735,252.868,392.585,253.3,393.056Zm3.04-3.834c-.85.49-.13,1.682.36,2.134a.115.115,0,0,1,.018.148,1.525,1.525,0,0,0,1.34-.416,1.75,1.75,0,0,0,.452-.693.17.17,0,0,1-.129-.12C258.106,389.583,257.127,388.77,256.342,389.222Zm-.37,1.977a2.054,2.054,0,0,0,.379.194c-.693-.591-1.183-1.912-.277-2.485.914-.591,2.041.167,2.522,1a6.111,6.111,0,0,0-.333-1.589,3.511,3.511,0,0,1-.859-.563c-1.256-1.377-1.441-3.779-1.469-5.552,0-.009.009-.019.009-.037-.258-.12-.526-.25-.794-.37a7.915,7.915,0,0,1-2.762-1.829,2.3,2.3,0,0,1-.268-.378c-2.568.24,2.319,10.567,3.806,11.472A.119.119,0,0,1,255.972,391.2Zm.24-8.9c.157,1.035.3,2.088.564,3.1a5.408,5.408,0,0,0,.646,1.644,2.576,2.576,0,0,0,.564.656,1.609,1.609,0,0,1-.093-1.672,1.037,1.037,0,0,1,1.395-.4.155.155,0,0,1,.065.074,7.757,7.757,0,0,1,.009-2.014C258.3,383.255,257.256,382.784,256.212,382.294Zm3.76,5.654a8.036,8.036,0,0,1-.6-2.116.176.176,0,0,1-.258.111.735.735,0,0,0-1,.536,2.253,2.253,0,0,0,.342,1.469.229.229,0,0,1,.009.073,1.128,1.128,0,0,0,1.275.037A.178.178,0,0,1,259.972,387.948Zm.259-10.365a3.262,3.262,0,0,0-2.07-3.723,2.312,2.312,0,0,0-2.956,2.587A12.52,12.52,0,0,1,260.231,377.583Zm.748,12.332a1.692,1.692,0,0,1,.1-.185,7.458,7.458,0,0,1-1-1.542c-.056.665-.776.582-1.46.305.49,1.062.656,2.253-.443,3.076a2.142,2.142,0,0,1-2.023.24c.351,1.709-1.45,2.762-3.03,2.143-2.263-.887-4.12-4.046-4.573-6.319-.027-.12.148-.212.213-.092a19.753,19.753,0,0,0,2.069,3.778,7.547,7.547,0,0,0,2.023,2,3.529,3.529,0,0,0,.711.3c-.748-.48-1.478-1.339-.72-2.124.785-.822,2.171-.277,2.928.378,0-.092-.009-.175-.018-.268a1.892,1.892,0,0,1-.647-.7.167.167,0,0,1,0-.148,20.675,20.675,0,0,1-4.1-8.12.183.183,0,0,1-.157.055c-4.388-.868-3.806,5.912-3.64,8.508a12.3,12.3,0,0,0,2.725,7.686c1.219,1.348,2.67,2.411,3.344,4.166.776,2.014.508,4.231.249,6.318a.193.193,0,0,1-.046.12,15.2,15.2,0,0,0,11.565.019.182.182,0,0,1-.046-.065c-3.168-7.39,2.919-14.189,3-21.532.01-.943-.009-1.866-.046-2.79a42.138,42.138,0,0,1,.213-8.822c.332-1.894,1.238-4.1.7-6.032-.684-2.466-4.508-3.63-6.54-2.134v.009c-.979,2.809,4.018,3.64,5.357,1.848.1-.129.3-.019.222.129a2.809,2.809,0,0,1-2.6,1.247,4.915,4.915,0,0,1-1.33-.175,20.81,20.81,0,0,1-1.857,7.26.161.161,0,0,1-.258.037.144.144,0,0,1-.056-.175,29.075,29.075,0,0,0,1.663-7.122.278.278,0,0,1,.074-.148c-1.192-.462-2.051-1.386-1.644-2.605a.133.133,0,0,1-.111-.2c1.515-1.959,5.173-1.293,6.725.351,2.383,2.522.092,7.612-.167,10.484-.425,4.8.712,9.4-.683,14.134-1.525,5.173-4.527,10.558-2.2,15.971a.255.255,0,0,1,0,.2c.24.037.388.37.12.481a15.16,15.16,0,0,1-12.738-.139c-.222-.111-.065-.49.157-.416a14.792,14.792,0,0,0,.055-5.182c-.462-1.921-1.764-3.085-3.067-4.424a11.748,11.748,0,0,1-3.177-7.086c-.324-2.614-1.09-11.916,4.12-10.225.009,0,.009,0,.018.009-.36-1.728-.194-3.058.961-3.206a1.785,1.785,0,0,1,.693-2.521.126.126,0,0,1,.111-.111,15.589,15.589,0,0,1,2.189-.12,2.56,2.56,0,0,1,2.91-3.123c2.189.3,3.177,2.494,2.845,4.49a9.156,9.156,0,0,1,.877.536c.093.064.185.129.277.2,2.162,1.616,3.5,4.277,4.952,6.475a.209.209,0,0,1,.046.139.275.275,0,0,1-.5.129c-1.423-2.152-2.707-4.785-4.8-6.346a10.264,10.264,0,0,0-4.9-1.866,28.623,28.623,0,0,0-3.464-.249.189.189,0,0,1-.093.064,1.425,1.425,0,0,0-.988.758.126.126,0,0,1,.24.074c-.249,1.4,2.43,1.709,3.492,1.764a4.219,4.219,0,0,0,.609-2.217.2.2,0,0,1,.2-.175.149.149,0,0,1,.157.129,3.081,3.081,0,0,1-.684,2.318.183.183,0,0,1-.12.314c-.933.084-3.658-.332-3.954-1.588a4.517,4.517,0,0,0,1.728,2.207,12.267,12.267,0,0,0,1.663.878c1.394.674,2.808,1.312,4.166,2.042a.217.217,0,0,1,.194.1.244.244,0,0,0,.074.037.173.173,0,0,1-.047.3,10.226,10.226,0,0,0,1.423,5.653.112.112,0,0,1,.12-.092.134.134,0,0,1,0,.268.034.034,0,0,1-.028-.01.741.741,0,0,0,.037.065c.056.1-.092.222-.175.129a.125.125,0,0,0-.028-.036,1.213,1.213,0,0,1-.083.147C261.025,390.026,260.951,389.97,260.979,389.915Z"/>
    </g>
  </g>
</svg>
