<svg xmlns="http://www.w3.org/2000/svg" width="42.985" height="44.8" viewBox="0 0 42.985 44.8">
  <g id="Y" transform="translate(-298.481 -366.393)">
    <g id="Group_51" data-name="Group 51">
      <path id="Path_196" data-name="Path 196" d="M340.614,368.019c1.173.857.993,2.4.31,3.771-1.109,2.195-2.613,4.139-3.649,6.391a42.562,42.562,0,0,0-2.519,7.744.2.2,0,0,1-.151.158,15.8,15.8,0,0,1-3.577,7.435v.007c-.093,2.281-.245,4.555-.252,6.837-.007,2.533-.28,5.829.893,8.147a.355.355,0,0,1-.231.5.381.381,0,0,1-.172.324c-4.369,2.886-10.709,1.987-15.3.144a.3.3,0,0,1-.086-.511v-.007c1.871-7.967-6.535-12.141-9.133-18.7-1.367-3.448-1.511-7-3.2-10.393-1.627-3.274-3.354-6.513-4.873-9.845a.278.278,0,0,1,.022-.281,3.028,3.028,0,0,1,.209-2.727c.69-.864,1.964-.7,2.871-.31.022.008.029.029.043.044,1.2.561,1.807,1.784,2.505,3.029,1.36,2.44,2.871,4.75,4.419,7.075a3.148,3.148,0,0,1,3.627-1.332,1.74,1.74,0,0,1,.813-2.022,3.749,3.749,0,0,1,3.822-.914,3.024,3.024,0,0,1,.489-1.173.244.244,0,0,1,.3-.094,3.745,3.745,0,0,1,4.34-.64,6.473,6.473,0,0,1,2.634,2.591c1.087,1.77,1.526,4.721,4.131,4.865,1.317-1.259,1.691-2.994,2.4-4.635a11.9,11.9,0,0,1,2.389-3.577c1.792-1.821,4.282-3.26,6.8-2.144A.2.2,0,0,1,340.614,368.019Zm-3.893,9.881c.849-1.943,5.275-7.477,3.339-9.73-3.857-1.122-7.132,3.052-8.377,6.2-.633,1.6-1.087,3.116-2.533,4.073a.224.224,0,0,1-.209.187.31.31,0,0,1-.086,0c-.015.008-.029.022-.043.029a.152.152,0,0,1-.18-.029c-1.447-.007-2.361-.979-3.03-2.267a25.391,25.391,0,0,0-1.764-3.375c-1.54-2.145-4.008-2.7-6-1.151-1.209,2.533,1.317,5.483,2.512,7.484.389.648.705,1.346,1.029,2.03a1.982,1.982,0,0,1,2.03-.468,2.285,2.285,0,0,1,1.41,1.159,14.418,14.418,0,0,0-.871-4.031c-.381-1.4-.763-2.8-1.036-4.224a.149.149,0,0,1,.144-.18.136.136,0,0,1,.137.1c.547,1.489.957,3.015,1.382,4.541a12.9,12.9,0,0,1,.813,3.728,3.42,3.42,0,0,1-.274,1.216,2.278,2.278,0,0,1-1.828,1.425.106.106,0,0,1-.05.007,1.422,1.422,0,0,1-.194.036.225.225,0,0,1-.224-.194c-.028-.014-.043-.029-.071-.043a2.787,2.787,0,0,1-1.267,2.857,2.45,2.45,0,0,1-2.721-.144c-.093.086-.179.166-.28.245a.251.251,0,0,1-.022.3c-1.619,2.015-4.34,1.482-6.009-.18a14.924,14.924,0,0,1-2.793-4.923,13.339,13.339,0,0,1-1.446-4.52.144.144,0,0,1,.122-.151,2.662,2.662,0,0,1,.108-.4,46.945,46.945,0,0,1-3.094-4.6c-1.037-1.713-2.044-4.887-4-5.923-.871-.123-1.914-.252-2.253.77a5.173,5.173,0,0,0,.072,2.022c2.088,3.836,4.182,7.823,5.923,11.824,1.5,3.433,1.375,7.219,3.3,10.537,3.1,5.34,10.183,9.823,7.916,16.869,4.513,1.461,10.385,2.461,14.56-.345a.305.305,0,0,1,.108-.036c-.936-2.008-.821-4.362-.864-6.542a50.554,50.554,0,0,1,.461-8.421.252.252,0,0,1-.08-.367,29.077,29.077,0,0,0,3.851-7.362.29.29,0,0,1-.007-.115A33.873,33.873,0,0,1,336.721,377.9Zm-12.069,5.06a2.006,2.006,0,0,0-1.008-1.562c-.561-.3-1.727-.4-2.13.238a10.263,10.263,0,0,0,1.562,2.533A1.865,1.865,0,0,0,324.652,382.96Zm-2.318,1.6c.008-.137.015-.274.015-.411a4.448,4.448,0,0,1-.914-1.331c-.8-1.533-1.5-3.03-2.426-4.505-.885-1.425-2.144-3.383-2.072-5.189a3.43,3.43,0,0,0-2.836.3.22.22,0,0,1-.137.274c-2.634,1.086,2.059,8.866,4.47,12.148a2.07,2.07,0,0,1,.431-2.224A2.289,2.289,0,0,1,322.334,384.558Zm-.043.417a.173.173,0,0,1-.209-.072c-.561-.928-1.612-1.792-2.72-1.108-1.331.82-.389,2.562.59,3.217a1.793,1.793,0,0,0,1.526-.411A2.507,2.507,0,0,0,322.291,384.975Zm-3.821,1.857c-.022-.029-.051-.051-.072-.079a.221.221,0,0,1-.036-.159,7.676,7.676,0,0,1-1.166-1.5,2.661,2.661,0,0,0-2.519,1c-.734,1.2.712,1.972,1.576,2.433a.007.007,0,0,0,.007.007,3.318,3.318,0,0,0,1.591-.95.148.148,0,0,1,.036-.158C317.937,387.364,318.3,387.033,318.47,386.832Zm-1.512-2.123c-.137-.231-.273-.461-.417-.691-1.137-1.879-2.231-3.786-3.174-5.765a12.13,12.13,0,0,1-.914-2.324,3.068,3.068,0,0,0-2.771.654,3.221,3.221,0,0,0-.791,2.663c0,.029-.015.043-.029.072,1.022,3.26,3.749,9.255,6.83,9.284-.965-.453-1.987-1.295-1.5-2.447A2.8,2.8,0,0,1,316.958,384.709Z"/>
      <path id="Path_197" data-name="Path 197" d="M340.06,368.17c1.936,2.253-2.49,7.787-3.339,9.73a33.873,33.873,0,0,0-2.389,7.91.29.29,0,0,0,.007.115,29.077,29.077,0,0,1-3.851,7.362.252.252,0,0,0,.08.367,50.554,50.554,0,0,0-.461,8.421c.043,2.18-.072,4.534.864,6.542a.305.305,0,0,0-.108.036c-4.175,2.806-10.047,1.806-14.56.345,2.267-7.046-4.814-11.529-7.916-16.869-1.929-3.318-1.807-7.1-3.3-10.537-1.741-4-3.835-7.988-5.923-11.824a5.173,5.173,0,0,1-.072-2.022c.339-1.022,1.382-.893,2.253-.77,1.958,1.036,2.965,4.21,4,5.923a46.945,46.945,0,0,0,3.094,4.6,2.662,2.662,0,0,0-.108.4.144.144,0,0,0-.122.151,13.339,13.339,0,0,0,1.446,4.52,14.924,14.924,0,0,0,2.793,4.923c1.669,1.662,4.39,2.2,6.009.18a.251.251,0,0,0,.022-.3c.1-.079.187-.159.28-.245a2.45,2.45,0,0,0,2.721.144,2.787,2.787,0,0,0,1.267-2.857c.028.014.043.029.071.043a.225.225,0,0,0,.224.194,1.422,1.422,0,0,0,.194-.036.106.106,0,0,0,.05-.007,2.278,2.278,0,0,0,1.828-1.425,3.42,3.42,0,0,0,.274-1.216,12.9,12.9,0,0,0-.813-3.728c-.425-1.526-.835-3.052-1.382-4.541a.136.136,0,0,0-.137-.1l.784-.619a25.391,25.391,0,0,1,1.764,3.375c.669,1.288,1.583,2.26,3.03,2.267a.152.152,0,0,0,.18.029c.014-.007.028-.021.043-.029a.31.31,0,0,0,.086,0,.224.224,0,0,0,.209-.187c1.446-.957,1.9-2.468,2.533-4.073C332.928,371.222,336.2,367.048,340.06,368.17Z" fill="#ebd7be"/>
      <path id="Path_198" data-name="Path 198" d="M323.946,378.008a14.418,14.418,0,0,1,.871,4.031,2.285,2.285,0,0,0-1.41-1.159,1.982,1.982,0,0,0-2.03.468c-.324-.684-.64-1.382-1.029-2.03-1.195-2-3.721-4.951-2.512-7.484,1.994-1.548,4.462-.994,6,1.151l-.784.619a.149.149,0,0,0-.144.18C323.183,375.209,323.565,376.605,323.946,378.008Z" fill="#ebd7be"/>
      <path id="Path_199" data-name="Path 199" d="M323.644,381.4a2.006,2.006,0,0,1,1.008,1.562,1.865,1.865,0,0,1-1.576,1.209,10.263,10.263,0,0,1-1.562-2.533C321.917,381,323.083,381.1,323.644,381.4Z" fill="#ebd7be"/>
      <path id="Path_200" data-name="Path 200" d="M322.349,384.147c0,.137-.007.274-.015.411a2.289,2.289,0,0,0-3.469-.936,2.07,2.07,0,0,0-.431,2.224c-2.411-3.282-7.1-11.062-4.47-12.148a.22.22,0,0,0,.137-.274,3.43,3.43,0,0,1,2.836-.3c-.072,1.806,1.187,3.764,2.072,5.189.922,1.475,1.627,2.972,2.426,4.505A4.448,4.448,0,0,0,322.349,384.147Z" fill="#ebd7be"/>
      <path id="Path_201" data-name="Path 201" d="M322.082,384.9a.173.173,0,0,0,.209.072,2.507,2.507,0,0,1-.813,1.626,1.793,1.793,0,0,1-1.526.411c-.979-.655-1.921-2.4-.59-3.217C320.47,383.111,321.521,383.975,322.082,384.9Z" fill="#ebd7be"/>
      <path id="Path_202" data-name="Path 202" d="M318.4,386.753c.021.028.05.05.072.079-.173.2-.533.532-.583.59a.148.148,0,0,0-.036.158,3.318,3.318,0,0,1-1.591.95.007.007,0,0,1-.007-.007c-.864-.461-2.31-1.231-1.576-2.433a2.661,2.661,0,0,1,2.519-1,7.676,7.676,0,0,0,1.166,1.5A.221.221,0,0,0,318.4,386.753Z" fill="#ebd7be"/>
      <path id="Path_203" data-name="Path 203" d="M316.541,384.018c.144.23.28.46.417.691a2.8,2.8,0,0,0-2.763,1.446c-.49,1.152.532,1.994,1.5,2.447-3.081-.029-5.808-6.024-6.83-9.284.014-.029.029-.043.029-.072a3.221,3.221,0,0,1,.791-2.663,3.068,3.068,0,0,1,2.771-.654,12.13,12.13,0,0,0,.914,2.324C314.31,380.232,315.4,382.139,316.541,384.018Z" fill="#ebd7be"/>
    </g>
  </g>
</svg>
