<svg xmlns="http://www.w3.org/2000/svg" width="27.609" height="53.672" viewBox="0 0 27.609 53.672">
  <g id="Z" transform="translate(-364.792 -357.521)">
    <path id="Path_204" data-name="Path 204" d="M380.018,368.062c-.28-.14-.543-.307-.807-.471a3.374,3.374,0,0,0-1.591-1.127.584.584,0,0,0-.565.969c.144.118.29.216.434.327l.409.411a79.022,79.022,0,0,0-9.317.514q4.758-5.039,9.763-9.833a.583.583,0,0,0-.408-.985c-4.208.233-8.422.421-12.625.733-.684.05-.7,1.1,0,1.077,3.71-.133,7.418-.361,11.125-.571q-5.023,4.838-9.794,9.924c-.3.326-.124,1.062.41.99a79.3,79.3,0,0,1,10.6-.69c-.373.252-.746.5-1.126.748a.555.555,0,0,0,.56.958,26.325,26.325,0,0,0,2.936-1.973A.588.588,0,0,0,380.018,368.062Z"/>
    <g id="Group_54" data-name="Group 54">
      <path id="Path_205" data-name="Path 205" d="M384.8,368.007c-.037-.11-.074-.221-.12-.323h.083C384.778,367.786,384.8,367.9,384.8,368.007Z"/>
      <path id="Path_206" data-name="Path 206" d="M384.685,367.684c.046.1.083.213.12.323.01.065.019.139.028.2.019.184-.24.184-.3.036-.065-.166-.13-.36-.194-.572a.069.069,0,0,0,.046.009Z"/>
      <path id="Path_207" data-name="Path 207" d="M383.466,378.362a4.51,4.51,0,0,0,1.681,3.631.208.208,0,0,0,0,.129,1.121,1.121,0,0,1-.028.721,8.6,8.6,0,0,0-.739.674.24.24,0,0,0-.157.018c-2.327,1.044-3.039-3.325-3.528-5.173A5.627,5.627,0,0,0,383.466,378.362Z" fill="#ebd7be"/>
      <path id="Path_208" data-name="Path 208" d="M382.191,374.741a3.719,3.719,0,0,1-1.339.315,2.829,2.829,0,0,1-1.081-.047.994.994,0,0,1-.628-1.588.084.084,0,0,0,.018-.093c1.164-.055,2.328-.12,3.492-.12,0,.009-.009.028-.009.037C382.736,373.808,382.773,374.437,382.191,374.741Z" fill="#ebd7be"/>
      <path id="Path_209" data-name="Path 209" d="M382.09,408.575a2.483,2.483,0,0,1-3.5,2.393c-1.913-1.839-4.111-8.97-1.146-10.356a4.018,4.018,0,0,0,1.229,1.746,5.48,5.48,0,0,0,1.644.887c.2,1.33.637,4.055,1.783,5.312A.031.031,0,0,1,382.09,408.575Z" fill="#ebd7be"/>
      <g id="Group_53" data-name="Group 53">
        <path id="Path_210" data-name="Path 210" d="M389.581,367.94a28.819,28.819,0,0,0-4.813-.259,33.344,33.344,0,0,1-.4-4.175,12.319,12.319,0,0,1,.231-2.864c.379-1.5,1.691-4.314,4.028-1.247,1.007,1.321.84,3.806,1.016,5.4.12,1.053.231,2.106.369,3.15a1.16,1.16,0,0,1-.249.018C389.71,367.949,389.646,367.949,389.581,367.94Z" fill="#ebd7be"/>
        <path id="Path_211" data-name="Path 211" d="M390.394,367.838a10.1,10.1,0,0,1,.065,1.137.086.086,0,0,0,.009.046.2.2,0,0,1-.314-.111c-.046-.323-.093-.647-.139-.97A1.03,1.03,0,0,0,390.394,367.838Z"/>
        <path id="Path_212" data-name="Path 212" d="M388.722,367.958c.268-.166.582.241.342.435-1.1.859-2.808,1.487-3.935.341-.139-.147.046-.406.221-.3C386.533,369.233,387.66,368.614,388.722,367.958Z"/>
        <path id="Path_213" data-name="Path 213" d="M384.768,367.681a28.819,28.819,0,0,1,4.813.259c.065.009.129.009.185.018.074.407.148.8.24,1.192.009.028.037.037.055.074-.23,1.94-.258,3.935-.369,5.893a5.929,5.929,0,0,0-1.45-1.431,7.155,7.155,0,0,0-3.1-1.09,13.4,13.4,0,0,0-.333-4.591C384.8,367.894,384.778,367.783,384.768,367.681Zm4.3.712c.24-.194-.074-.6-.342-.435-1.062.656-2.189,1.275-3.372.481-.175-.111-.36.148-.221.3C386.256,369.88,387.965,369.252,389.064,368.393Z" fill="#ebd7be"/>
        <path id="Path_214" data-name="Path 214" d="M389.646,364.79c-.176-1.589-.009-4.074-1.016-5.4-2.337-3.067-3.649-.249-4.028,1.247a12.319,12.319,0,0,0-.231,2.864,33.344,33.344,0,0,0,.4,4.175h-.378a.069.069,0,0,1-.046-.009c-.85-2.864-1.691-9.838,2.17-10.143,1.672-.129,2.762,1.368,3.169,2.808a39.251,39.251,0,0,1,.887,8.508.189.189,0,0,1-.1.176.086.086,0,0,1-.009-.046,10.1,10.1,0,0,0-.065-1.137,1.03,1.03,0,0,1-.379.1C389.877,366.9,389.766,365.843,389.646,364.79Z"/>
        <path id="Path_215" data-name="Path 215" d="M374.487,399.135c-6.152-5.413-6.226-12.785-4.7-20.138a.525.525,0,0,0,.083-.111c.86-2.54,3.324-3.468,5.98-1.377,1.213-2.392,1.559-2.588,3.233-.447.558.712,1.723,1.14,1.809,3.488-.325.36,2.112,3.465,1.155,4.252-.285.235-1.271,1.3-1.582,1.521-1.678,1.18-6.176-1.166-7.435-2.652a10.921,10.921,0,0,1-1.7-3.1.177.177,0,0,0-.342.093c.351,1.635,1.072,3.482,2.725,4.184a2.472,2.472,0,0,0,2.91-.618,5.207,5.207,0,0,0,1.229,1.745.2.2,0,0,0,.064.194,2.757,2.757,0,0,0,4.536-2.272,1.673,1.673,0,0,0,1.33.333,8.893,8.893,0,0,0-1.764,3.981.316.316,0,0,0,.609.166A14.311,14.311,0,0,1,384,385.131a19.98,19.98,0,0,1,2.143-2.633.274.274,0,0,0,.12-.194c0-.018.009-.028.009-.046a.239.239,0,0,0-.083-.166,8.369,8.369,0,0,1-1.663-1.894c-.323-.61-.452-1.312-.729-1.94.175-.055.36-.111.535-.185.25-.11.065-.508-.194-.443a5.918,5.918,0,0,1-4.175-.268c-1.469-.7-2.8-2.365-1.533-3.9a.384.384,0,0,0,.055-.1l.443-.027a1.054,1.054,0,0,0-.249,1.2,1.708,1.708,0,0,0,1.6.924,3.837,3.837,0,0,0,2.457-.572,1.649,1.649,0,0,0,.3-1.682c.111,0,.222-.009.323,0a9.42,9.42,0,0,1,1.183.111.33.33,0,0,0,.489.083c2.8.591,4.591,2.476,5.57,5.367a20.237,20.237,0,0,1,.176,12.443c-.869,2.743-3.021,5.053-3.3,7.917a33.208,33.208,0,0,0,1.062,10.521,36.5,36.5,0,0,1-7.768.822c-2.07-.037-5.136.065-7.1-.868a66.909,66.909,0,0,0,.758-9.986A.29.29,0,0,0,374.487,399.135Z" fill="#ebd7be"/>
        <path id="Path_216" data-name="Path 216" d="M375.848,377.509c1.213-2.392.87-1.789,3.233-.447.991.562,1.723,1.14,1.809,3.488" fill="#ebd7be"/>
        <path id="Path_217" data-name="Path 217" d="M380.852,375.053a3.74,3.74,0,0,0,1.339-.314c.582-.305.545-.933.453-1.5,0-.009.009-.027.009-.037-1.164,0-2.328.065-3.492.12a.084.084,0,0,1-.018.093,1,1,0,0,0,.628,1.589A2.848,2.848,0,0,0,380.852,375.053Zm-.157,3.307c.489,1.847,1.2,6.217,3.528,5.173a.235.235,0,0,1,.157-.019,8.6,8.6,0,0,1,.739-.674,1.121,1.121,0,0,0,.028-.721.208.208,0,0,1,0-.129,4.51,4.51,0,0,1-1.681-3.63A5.626,5.626,0,0,1,380.7,378.36Zm-2.106,7.621a2.483,2.483,0,0,0,3.5-2.393.031.031,0,0,0,.009-.018c-1.146-1.257-1.58-3.982-1.783-5.312a5.457,5.457,0,0,1-1.644-.887,4.021,4.021,0,0,1-1.229-1.745C374.478,377.011,376.676,384.142,378.589,385.981Zm-8.8-6.984c-1.524,7.353-1.45,14.725,4.7,20.138a.29.29,0,0,1-.055.48,66.909,66.909,0,0,1-.758,9.986c1.959.933,5.025.831,7.1.868a36.5,36.5,0,0,0,7.768-.822,33.208,33.208,0,0,1-1.062-10.521c.277-2.864,2.429-5.174,3.3-7.917a20.237,20.237,0,0,0-.176-12.443c-.979-2.891-2.771-4.776-5.57-5.367a.33.33,0,0,1-.489-.083,9.42,9.42,0,0,0-1.183-.111c-.1-.009-.212,0-.323,0a1.649,1.649,0,0,1-.3,1.682,3.837,3.837,0,0,1-2.457.572,1.708,1.708,0,0,1-1.6-.924,1.054,1.054,0,0,1,.249-1.2l-.443.027a.384.384,0,0,1-.055.1c-1.266,1.533.064,3.2,1.533,3.9a5.918,5.918,0,0,0,4.175.268c.259-.065.444.333.194.443-.175.074-.36.13-.535.185.277.628.406,1.33.729,1.94a8.369,8.369,0,0,0,1.663,1.894.239.239,0,0,1,.083.166c0,.018-.009.028-.009.046a.274.274,0,0,1-.12.194A19.98,19.98,0,0,0,384,385.131a14.311,14.311,0,0,0-1.377,3.242.316.316,0,0,1-.609-.166,8.893,8.893,0,0,1,1.764-3.981,1.673,1.673,0,0,1-1.33-.333,2.757,2.757,0,0,1-4.536,2.272.2.2,0,0,1-.064-.194,5.207,5.207,0,0,1-1.229-1.745,2.472,2.472,0,0,1-2.91.618c-1.653-.7-2.374-2.549-2.725-4.184a.177.177,0,0,1,.342-.093,8.146,8.146,0,0,0,1.7,3.1,2.3,2.3,0,0,0,3.39.019,16.035,16.035,0,0,1-.776-3.233,12.046,12.046,0,0,1-.231-3.049,3.3,3.3,0,0,0-5.543,1.478A.525.525,0,0,1,369.785,379Zm-.434-.129a.306.306,0,0,1-.009-.13,3.626,3.626,0,0,1,6.18-1.893,2.26,2.26,0,0,1,1.81-1.663,2.068,2.068,0,0,1,.712-2c.009-.065.037-.13.11-.139a25.234,25.234,0,0,1,6.356-.517,15.31,15.31,0,0,0-.259-4.868.285.285,0,0,0,.093.018c.064.213.129.406.194.573.055.148.314.148.3-.037-.009-.065-.018-.139-.028-.2a13.4,13.4,0,0,1,.333,4.591,7.155,7.155,0,0,1,3.1,1.09,5.929,5.929,0,0,1,1.45,1.431c.111-1.958.139-3.953.369-5.893-.018-.037-.046-.046-.055-.074-.092-.388-.166-.785-.24-1.192a1.16,1.16,0,0,0,.249-.018c.046.323.093.647.139.97a.2.2,0,0,0,.314.111,33.174,33.174,0,0,1-.166,7.029v.01a18.953,18.953,0,0,1,1.967,6.863,20.85,20.85,0,0,1-1.385,10.152c-1.127,2.753-2.605,4.72-2.735,7.833a33.672,33.672,0,0,0,1.155,8.9.362.362,0,0,1-.388.444.33.33,0,0,1-.148.083,34.655,34.655,0,0,1-9.708.785c-1.534-.1-4.333.009-5.635-1.053a.369.369,0,0,1-.471-.333,81.879,81.879,0,0,1,1.034-10.179C368.049,394.414,366.866,386.036,369.351,378.868Z"/>
      </g>
    </g>
  </g>
</svg>
